/* XPM */
static char *ea0f628df88642d0f5286eecfa09430dog7QQ03IYdbWqwNJ[] = {
/* columns rows colors chars-per-pixel */
"64 64 238 2 ",
"   c None",
".  c #1D2933",
"X  c #1B242D",
"o  c #242B2D",
"O  c #292E2C",
"+  c #222D35",
"@  c #242E37",
"#  c #2B3435",
"$  c #26313A",
"%  c #2B353B",
"&  c #2E393A",
"*  c #283335",
"=  c #323C3A",
"-  c #343A38",
";  c #36413D",
":  c #3A433D",
">  c #3C463B",
",  c #424D3E",
"<  c #2D3942",
"1  c #2C3743",
"2  c #333C44",
"3  c #333E4B",
"4  c #364141",
"5  c #3A4442",
"6  c #3D4A43",
"7  c #3C444B",
"8  c #3A454A",
"9  c #3C4552",
"0  c #3C4858",
"q  c #424C45",
"w  c #434C4C",
"e  c #464947",
"r  c #445245",
"t  c #46554B",
"y  c #4B544C",
"u  c #4D5B4C",
"i  c #495645",
"p  c #53574D",
"a  c #434B53",
"s  c #474D57",
"d  c #4C5353",
"f  c #4C535B",
"g  c #4A5856",
"h  c #525453",
"j  c #535C54",
"k  c #53535C",
"l  c #565A5B",
"z  c #635C53",
"x  c #56644E",
"c  c #546353",
"v  c #5B6757",
"b  c #656A5A",
"n  c #63715C",
"m  c #71665F",
"M  c #4A5363",
"N  c #565B66",
"B  c #505E77",
"V  c #645C67",
"C  c #775D72",
"Z  c #605E70",
"A  c #5B6264",
"S  c #5C626B",
"D  c #56606C",
"F  c #5C6778",
"G  c #5F7061",
"H  c #636364",
"J  c #64646B",
"K  c #696968",
"L  c #756D6A",
"P  c #6C7B66",
"I  c #6A7668",
"U  c #737B6B",
"Y  c #777667",
"T  c #6C6D73",
"R  c #6C6E7C",
"E  c #666776",
"W  c #736D74",
"Q  c #786B7B",
"!  c #6D747B",
"~  c #697377",
"^  c #7C7475",
"/  c #74727D",
"(  c #7C757A",
")  c #787977",
"_  c #84756B",
"`  c #837C74",
"'  c #8A7D75",
"]  c #847879",
"[  c #947C7B",
"{  c #896B6F",
"}  c #936E66",
"|  c #73806C",
" . c #7B8273",
".. c #7D8779",
"X. c #88866B",
"o. c #848574",
"O. c #8C8473",
"+. c #8C8A74",
"@. c #85847B",
"#. c #8D837C",
"$. c #858B7A",
"%. c #918475",
"&. c #93867D",
"*. c #948B7C",
"=. c #958B78",
"-. c #84917C",
";. c #8A927A",
":. c #99937E",
">. c #97967A",
",. c #95826E",
"<. c #A68D77",
"1. c #ABA87F",
"2. c #766982",
"3. c #6A7486",
"4. c #747582",
"5. c #7D7C83",
"6. c #797988",
"7. c #6E7B97",
"8. c #6C6880",
"9. c #5B759C",
"0. c #96678A",
"q. c #847A87",
"w. c #967A86",
"e. c #8A7791",
"r. c #8D6C8D",
"t. c #A77AA1",
"y. c #7C8389",
"u. c #7A8194",
"i. c #8C8484",
"p. c #8D8A84",
"a. c #8C848C",
"s. c #858788",
"d. c #938584",
"f. c #938B84",
"g. c #93868B",
"h. c #958A8A",
"j. c #9B8D8C",
"k. c #9B8A82",
"l. c #8B958C",
"z. c #8B9784",
"x. c #939284",
"c. c #9B9484",
"v. c #9B9B83",
"b. c #9C938C",
"n. c #96988A",
"m. c #8D8594",
"M. c #8D8C92",
"N. c #848896",
"B. c #938B93",
"V. c #998C94",
"C. c #938C9B",
"Z. c #998D9B",
"A. c #938693",
"S. c #8D9298",
"D. c #9C9394",
"F. c #95949C",
"G. c #9D939A",
"H. c #9C9B9C",
"J. c #979795",
"K. c #A3988B",
"L. c #A19493",
"P. c #A1969B",
"I. c #A29A9C",
"U. c #A49A93",
"Y. c #A88F8A",
"T. c #9EA38B",
"R. c #9DA185",
"E. c #99A693",
"W. c #A3A386",
"Q. c #A4A38D",
"!. c #A3AA8D",
"~. c #ABAA8C",
"^. c #AAA48E",
"/. c #B3AD8B",
"(. c #B5B28B",
"). c #B9B58A",
"_. c #A4A393",
"`. c #AAA693",
"'. c #A6AB91",
"]. c #ABAC94",
"[. c #A4A39C",
"{. c #A8A89C",
"}. c #B2A993",
"|. c #ACB193",
" X c #B8B798",
".X c #AFB18C",
"XX c #9C8FA1",
"oX c #9B94A2",
"OX c #9E9AA4",
"+X c #9E9BAB",
"@X c #9995A6",
"#X c #9294A7",
"$X c #A096A3",
"%X c #A29BA3",
"&X c #A29CAB",
"*X c #A89BA4",
"=X c #A29EB2",
"-X c #A29FB8",
";X c #9EA6A6",
":X c #9DA0B2",
">X c #A5A4A3",
",X c #ACAAA3",
"<X c #A5A3AC",
"1X c #A8A8A9",
"2X c #AAB4A7",
"3X c #B6B5A5",
"4X c #A4A1B4",
"5X c #A8A5B5",
"6X c #B4BAB5",
"7X c #B1ADAD",
"8X c #C3BEAC",
"9X c #BEC3A5",
"0X c #BEC3B9",
"qX c #BAC19F",
"wX c #C3C8A8",
"eX c #C8CFB8",
"rX c #C1C39F",
"tX c #A9A9C1",
"yX c #C6CAC7",
"uX c #CDD2CB",
"iX c #D7D6CA",
"pX c #D7DAD7",
"aX c #D2CDCB",
"sX c #E3DCD6",
"dX c #DDE2DD",
"fX c #E2E2DD",
"gX c #E3E5E3",
"hX c #EBEEEC",
"jX c #E7EAE7",
"kX c #EDF1EC",
"lX c #F4F5F4",
"zX c white",
"xX c #FEFFFE",
"cX c #FDFEFD",
"vX c #FEFEFE",
"bX c #F6F9F6",
"nX c #EFF2F0",
"mX c #DDE0E1",
/* pixels */
"                                                                                                                                ",
"                                                  zXzXzXbXbXzXzXzXzXzXzXzXzX                                                    ",
"                                          zXzXcXcXjXgXpX0X0X0XyX0X6X0XuXuXkXzXzXzXzX                                            ",
"                                      cXzXcXdXuXE.I U v t g c t u y u G P l.0XpXjXbXzXcX                                        ",
"                                  zXbXjXdXE.v c t 4 6 6 r 6 6 ; ; 5 ; ; t y c P | z.yXkXzX                                      ",
"                                cXkX{.n x t t c g 6 6 6 t c u 6 5 6 = & 4 r c u u u | y.pXzXzX                                  ",
"                              zXlX;Xc 6 6 r u t 6 r : 5 > 6 0 x u 5 = 5 5 ; : > ; > u u U uXbXzX                                ",
"                            zXpXl.G t 6 6 6 q q ; > 6 6 4 4 * ; > = 4 4 r r & # # & t > ; v >XhXzX                              ",
"                          zXjXK ; 5 5 - ; : 5 ; ; 5 8 4 < $ * = 4 # & 4 q q : = = * = > > : i 2XzXzX                            ",
"                          zXuXg = - = & = 5 q - & = & % * * # ; 4 ; ; = = 5 q = - # # 5 u y t l.lXzX                            ",
"                          cX6X0 # # O - > e e - = = & = & * & 5 6 : q q 5 5 q 6 ; : O # y u y P uXzX                            ",
"                        cXbX..; # # - , p p e e e 7 2 2 5 8 w w d a d j j p y p q ; - o q x i x l.lXzX                          ",
"                        zXmXc * @ - y b m z p h k h d e s l N J A A b K I U | P b y - O - p , , U mXcX                          ",
"                        zX>X& * & y L Y _ m K H K K J V H J W ( ( ] ) @.*.v.|.>.>.Y p - # q , , I pXzX                          ",
"                      zXlXI # & d Y O.,.X.' ' ` ` ^ ] ] ] ] [ q.i.f.x.:.v.|.wXrX/.>.Y i - - , i v yXzX                          ",
"                      cXjXj # 5 U +.,.%.%.' ' #.[ #.w.i.g.h.j.j.b.b.K.^.].wXeXeXrX(.>.m , , , u x 2XbX                          ",
"                      zXuX6 & l x.:.%.=.%.&.%.&.h.d.d.h.j.j.j.L.Y.K.Y.^./.wXeXwXwX).).1.b u x x x z.hXcX                        ",
"                      zX1X= q U T.v.:.:.=.&.k.h.h.h.h.j.V.Y.L.L.L.U.U.}./. XwXwX X).).1.X.b v x x | dXcX                        ",
"                    zXzXl.> j z.v.c.c.c.c.j.V.V.G.D.V.G.L.P.P.L.L.L.U.U.{.3X3X X X X(.).1.Y b x x P pXcX                        ",
"                    zXbXs.r I n.v.v.c.c.K.K.P.P.$X%X%X%X$X$X$XP.H.L.U.I.{.{.,X X X(.).).).X.n n v P dXcX                        ",
"                    zXbXs.y  .v.c.c.c.c.j.D.I.%X&X=X&X&X&X$XOX$X%X$XP.%X%X{.,X{.].}./.(.).>.P n v | fXzX                        ",
"                    zXlX..j ..v.:.c.c.b.b.L.L.%X&X&X&X&X&X&X&X&XOX$XOX%X%X>X[.[._.`.~./.).>. .| n | fXcX                        ",
"                    zXbXz.c $.:.:.K.c.b.b.L.L.%X&X$XOX+X&X+X&XoXoX$XOXH.%X%X>XI.`._.^.~..XW.;.P n | fXcX                        ",
"                      cXH.v o.:.>.:.c.b.L.D.G.%X&X&X&X&X&X+XOX+XOXoXoXH.H.H.[.[.[.^._.^.~.W.;.P n -.jXcX                        ",
"                      zX>Xv Y =.=.:.c.b.L.L.I.%X&X&X&X&X+X&X+XOXOXOXOXH.%X>X>X{._._._.Q.!.W.-.| | z.kXzX                        ",
"                      zX2XK X.X.=.:.b.D.H.%X%X<X<X=X-X&X=X=X+X+X+X%X+X>X>X1X>X>X[.^.^.K.W.R.-...| E.nXzX                        ",
"                    zXzXuXU X.O.:.b.J.H.H.OX&X&X4X-X-X=X4X4X=X&X&X&X4X<X;X1X1X1X{.^.W.K.W.>.;.-...qXlXzX                        ",
"                  zXbXlXpX..X.+.*.$.! T 3.u.C.#X=X=X&X&X-X5X=X:X=X=X:X:X:X:X;X1X,X'.K.v.K.>.z.-...2XbXzX                        ",
"                zXbX8XU.V.U +.X.K j a w 3 3 s B R m.C.@X+X&X@X@X#X#XC.7.7.3.F ! J.'.!.R.R.R.R.-...E.kXcX                        ",
"                zXjX&._ Y o.>.Y H K W / R E M f M S q.C.XXXXC.e.8.N 0 3 9 0 M M D  .v.!.W.!.R.-...>.uXbXzX                      ",
"                zXmX' { ' +.;.U ) ' ^ ] / 2.W / W E W a.XX#Xm.! J N N E 4.N.S.u.4.~ U R.!..XT.-.X.1.rXjXzX                      ",
"                zXdX[ k.&.#.+.' ` m z y = 2 3 M V W ^ h.oX@XC.5.Q / L K E / y.M.S.s.y.x.~.|.!.;.,.k.<.sXzX                      ",
"                zXfX<.k.#.+.+.O._ z e F 0 . M 9.D C ^ &.L.oXM.( ^ V M 0 % 2 s V ^ p.p.z.Q.|.'.;.*.j.} iXzX                      ",
"                zXhXK.&.' O.=.=.' Y K 4.7.M 8.3.E W _ d.P.G.p.( q.J 7.9.% % B M h ( p.J.T.].|.;.b.{.Y.sXzX                      ",
"                zXlX{.w.w.#.;.:.c.f.#.` / 4.2./ Q ] ' j.*X*Xa.q.q.4.4.2.f N 7.E K ^ p.J._.].'.+.k.Y.}.sXzX                      ",
"                zXkX2Xw.w.p.*.c.b.b.h.g.g.e.q.q.] ' &.Y.*X>XD.q.q.e.5.Q Q 6.N.a.h.n.n._.T.'.T._ } w.}.sXzX                      ",
"                zXkX].h.' @.+.n.U.L.P.G.V.m.g.A.d.*.k.L.*X*XI.J.B.C.m.e.e.a.m.J.J._._.Q.Q.!.!.h.{ { ,XfXvX                      ",
"                zXbX3Xf.b.o.+.v.L.[.P.H.Z.Z.Z.j.h.&.&.P.1X{.U.G.oX@XoXC.M.C.F.G.>X2X{.].R.!.!.J.{ [ 7XhXzX                      ",
"                  zXsXv.b.#.+.c.U.I.$X$X$XG.V.V.k.&.c.I.1XI.b.B.F.+X&X$XoXoXOX<X<X>X,X'.W.T.T.%.} U.3XlXzX                      ",
"                  zXlX3Xf.@.o.x.D.I.%X*XXXZ.V.g.#.&.L.*X7X,Xb.i.a.XX%X&X&X1X<X<X1X>X,X'.T.T.>.<. X`.yXzX                        ",
"                    zXhX,X` o.x.n.I.%X&XZ.V.w.w.d.b.%X4X5X7X{.K.a.m.XX$X=X1X5X1X1X>X{._.T.n.>.]. X3XjXzX                        ",
"                      zXkX6X$.p.b.H.$XG.G.Z.A.B.c.I.<X5X5X7X,X`.b.q.Z.XX$X&X1X5X<X[.{.T.R.z.v.].8XfXbX                          ",
"                        zXkXl.O.p.V.D.Z.V.B.B.g.' d.+X-X-X:XJ.J.g.( A.XX@X&X4X<X<XE._.T.z.-.f.,XfXzXzX                          ",
"                        zXhXz.) $.h.h.h.g.A.B.g.^ W a.m.C.e.J W 5.e.C.Z.G.@X;XOX;XH.E.R.s.$.,XfXvXzX                            ",
"                        zXhXy.U #.p.p.d.h.B.B.a.' W K J A E 3.7.N.#X+X#XF.F.@XH.F.J.n.z...yXbXzX                                ",
"                          lX@.K @.p.h.h.i.s.y.T K h d 7 9 a D ~ y.N.#X#XF.F.F.H.F.l.z. .z.fXzX                                  ",
"                          bXs.y U p.f.f.@./ H l N V N E E N Z M A S 3.N.F.F.S.S.l.l...I R.jXzX                                  ",
"                          zXH.5 b ) d.p.) H k J Q ] q.r.e.e.2.3.R N g 3.N.S.B.s.M.y.I I 0XcX                                    ",
"                          zXyXq h K @.p.W J N V C C C C 2.r.C C E k a D 6.l.S.M.y.~ c @.jXzX                                    ",
"                          zXgXN e h ^ p.T ! q.] 0.0.0.0.0.0.r.r.2.8.J N ~ S.y.! I A A eXzX                                      ",
"                            bXa.- e K L f J s.] q.0.t.t.t.t.t.e.e.N.! N ! y.~ l j g s.lXzX                                      ",
"                            zX6X- 5 v k a J ( @.] { r.0.r.e.e.6.6.u.R g S ~ l a 6 g yXzX                                        ",
"                            zXmXk - h e 7 N / @.^ K E Q 2.2.4.4.u.6.N 0 g N w 4 4 S.bXzX                                        ",
"                              cXm.- e - 2 a J q.q.N f f a f N u.N.! a 8 a g 5 & A pXzX                                          ",
"                              zXyXe - = = 7 N T a.T k a 3 M 4.N.7.N 9 4 8 a & a 6XzX                                            ",
"                              zXbXh.- # # 2 e N E T E N M 3.u.6.F 0 < < 2 * 9 7XcX                                              ",
"                                zXgXL O O * 2 e s s N 0 M R F D g 2 * < @ & F.bX                                                ",
"                                  zXpXh o % = 2 3 3 9 1 8 M a 0 2 < @ $ . S jXzX                                                ",
"                                    zX7X# o @ < < 1 1 1 1 9 8 < 1 $ $ . D pXzX                                                  ",
"                                    zXnX) + o @ $ 1 $ . 1 1 1 1 $ . . f uXzX                                                    ",
"                                      zXgX( # + X X . + $ . $ . . 7 y.pXvXzX                                                    ",
"                                        zXnX6XS./ ~ 6.y.y.M.S.S.:XaXbXzX                                                        ",
"                                          zXzXzXbXbXzXcXzXbXzXzXzXzXzX                                                          ",
"                                                zXzXzXzXzX                                                                      "
};
