/* XPM */
static char *result[] = {
/* columns rows colors chars-per-pixel */
"64 64 40 1 ",
"  c #BD5612",
". c #C25812",
"X c #C85B13",
"o c #CD5D14",
"O c #D25F14",
"+ c #D76215",
"@ c #DC6415",
"# c black",
"$ c #E86A17",
"% c black",
"& c black",
"* c black",
"= c #CD804D",
"- c #D1814D",
"; c #D5844E",
": c #D9854E",
"> c #DD874E",
", c black",
"< c black",
"1 c black",
"2 c black",
"3 c black",
"4 c black",
"5 c black",
"6 c black",
"7 c black",
"8 c black",
"9 c black",
"0 c black",
"q c black",
"w c black",
"e c black",
"r c black",
"t c black",
"y c black",
"u c black",
"i c black",
"p c black",
"a c black",
"s c None",
/* pixels */
"ssssssssssssssssssssssssssssssssssssssssssssssssssssssssssssssss",
"ssssssssssssssssssssssssssssssssssssssssssssssssssssssssssssssss",
"ssssssssssssssssssssssssssssssssssssssssssssssssssssssssssssssss",
"ssssssssssssssssssssssssssssssssssssssssssssssssssssssssssssssss",
"ssssssssssssssssssssssssssssssssssssssssssssssssssssssssssssssss",
"ssssssssssssssssssssssssssssssssssssssssssssssssssssssssssssssss",
"ssssssssssssssssssssssssssssssssssssssssssssssssssssssssssssssss",
"ssssssssssssssssssssssssssssssssssssssssssssssssssssssssssssssss",
"ssssssssssssssssssssssssssssssssssssssssssssssssssssssssssssssss",
"ssssssssssssssssssssssssssssssssssssssssssssssssssssssssssssssss",
"ssssssssssssssssssssssssssssssssssssssssssssssssssssssssssssssss",
"ssssssssssssssssssssssssssssssssssssssssssssssssssssssssssssssss",
"ssssssssssssssssssssssssssssssssssssssssssssssssssssssssssssssss",
"ssssssssssssssssssssssssssssssssssssssssssssssssssssssssssssssss",
"ssssssssssssssssssssssssssssssssssssssssssssssssssssssssssssssss",
"ssssssssssssssssssssssssssssssssssssssssssssssssssssssssssssssss",
"ssssssssssssssssssssssssssssssssssssssssssssssssssssssssssssssss",
"ssssssssssssssssssssssssssssssssssssssssssssssssssssssssssssssss",
"sssssssssssssssssssaaaaaasssssssssssssssssssssssssssssssssssssss",
"sssssssssssssssssaaaaaaaaaaassssssssssssssssssssssssssssssssssss",
"sssssssssssssssaaaaaaaaaaaaaasssssssssssssssssssssssssssssssssss",
"ssssssssssssssaaaay622225eaaaassssssssssssssssssssssssssssssssss",
"sssssssssssssaaaa6$$$$$$$$,aaaasssssssssssssssssssssssssssssssss",
"sssssssssssssaaaq$$$$$$$$$$5aaaassssssssssssssssssssssssssssssss",
"ssssssssssssaaaq$$$$$$$$$$$$5aaassssssssssssssssssssssssssssssss",
"sssssssssssaaay$$$$$$$$$$$$$$8aaasssssssssssssssssssssssssssssss",
"sssssssssssaaa2$$$$$$$$$$$$$$$iaaaaaaaaaaaaaaaaaaaasssssssssssss",
"sssssssssssaay$$$$$$$$$$$$$$$$6aaaaaaaaaaaaaaaaaaaaassssssssssss",
"ssssssssssaaa6$$$$$$3aa9$$$$$$*aaaaaaaaaaaaaaaaaaaaaasssssssssss",
"ssssssssssaaa2$$$$$&paaa2$$$$$$$$$$$$$$$$$$$$$$$$$$aasssssssssss",
"ssssssssssaaa$$$$$$6aaaae$$$$$$$$$$$$$$$$$$$$$$$$$$aaassssssssss",
"ssssssssssaaa$$$$$$raaaaa$$$$$$$$$$$$$$$$$$$$$$$$$$aaassssssssss",
"ssssssssssaaa$$$$$$raaaaa$$$$$$$$$$$$$$$$$$$$$$$$$$aaassssssssss",
"ssssssssssaaa$$$$$$raaaai$$$$$$$$$$$$$$$$$$$$$$$$$$aaassssssssss",
"ssssssssssaaa&$$$$$6aaaaq$$$$$$$$$$$$$$$$$$$$$$$$$$aaassssssssss",
"ssssssssssaaa2$$$$$*paaa$$$$$$$$$$$$$$$$$$$$$$$$$$aaasssssssssss",
"ssssssssssaaa8$$$$$$6aae$$$$$$*aaaaaa=          =aaaasssssssssss",
"sssssssssssaay$$$$$$$,2$$$$$$$6aaaaaa-..........-aaassssssssssss",
"sssssssssssaaa*$$$$$$$$$$$$$$$iaaaaaa;XXXXXXXXXX;aaassssssssssss",
"sssssssssssaaar$$$$$$$$$$$$$$6aaasaaa:oooooooooo:aaassssssssssss",
"ssssssssssssaaa5$$$$$$$$$$$$,paassaaa>OOOOOOOOOO>aaassssssssssss",
"ssssssssssssaaaa3$$$$$$$$$$*paaassaaa<++++++++++<aaassssssssssss",
"sssssssssssssaaap6$$$$$$$$,iaaasssaaa1@@@4774@@@1aaassssssssssss",
"ssssssssssssssaaaar3$$$$,qaaaassssaaaw###taau###0aaassssssssssss",
"sssssssssssssssaaaaaaaaaaaaaassssssaaaaaaaaaaaaaaaasssssssssssss",
"sssssssssssssssssaaaaaaaaaaasssssssaaaaaaaaaaaaaaaasssssssssssss",
"ssssssssssssssssssaaaaaaaassssssssssaaaaaaaaaaaaaassssssssssssss",
"ssssssssssssssssssssssssssssssssssssssssssssssssssssssssssssssss",
"ssssssssssssssssssssssssssssssssssssssssssssssssssssssssssssssss",
"ssssssssssssssssssssssssssssssssssssssssssssssssssssssssssssssss",
"ssssssssssssssssssssssssssssssssssssssssssssssssssssssssssssssss",
"ssssssssssssssssssssssssssssssssssssssssssssssssssssssssssssssss",
"ssssssssssssssssssssssssssssssssssssssssssssssssssssssssssssssss",
"ssssssssssssssssssssssssssssssssssssssssssssssssssssssssssssssss",
"ssssssssssssssssssssssssssssssssssssssssssssssssssssssssssssssss",
"ssssssssssssssssssssssssssssssssssssssssssssssssssssssssssssssss",
"ssssssssssssssssssssssssssssssssssssssssssssssssssssssssssssssss",
"ssssssssssssssssssssssssssssssssssssssssssssssssssssssssssssssss",
"ssssssssssssssssssssssssssssssssssssssssssssssssssssssssssssssss",
"ssssssssssssssssssssssssssssssssssssssssssssssssssssssssssssssss",
"ssssssssssssssssssssssssssssssssssssssssssssssssssssssssssssssss",
"ssssssssssssssssssssssssssssssssssssssssssssssssssssssssssssssss",
"ssssssssssssssssssssssssssssssssssssssssssssssssssssssssssssssss",
"ssssssssssssssssssssssssssssssssssssssssssssssssssssssssssssssss"
};
