/* XPM */
static char *fc970e7facf94d918a9e9ca97f5f3b35OJoZX2r161R4e34x[] = {
/* columns rows colors chars-per-pixel */
"64 64 212 2 ",
"   c None",
".  c #4E0D05",
"X  c #540E06",
"o  c #530E08",
"O  c #590F06",
"+  c #5B1107",
"@  c #541009",
"#  c #5D1109",
"$  c #551006",
"%  c #65140B",
"&  c #6C160C",
"*  c #7A1A0E",
"=  c #58221A",
"-  c #6F3E30",
";  c #6A352A",
":  c #841D0F",
">  c #831D10",
",  c #8C1E11",
"<  c #921F12",
"1  c #8D2113",
"2  c #8C2B1A",
"3  c #932314",
"4  c #9B2516",
"5  c #9C2619",
"6  c #9E2819",
"7  c #98291A",
"8  c #A32616",
"9  c #A42917",
"0  c #AB2A16",
"q  c #A22718",
"w  c #A32819",
"e  c #AC2B1A",
"r  c #A92618",
"t  c #B42D1B",
"y  c #BA2E1D",
"u  c #AB321E",
"i  c #B6311D",
"p  c #BD321E",
"a  c #BF3B1D",
"s  c #983727",
"d  c #962C20",
"f  c #AE3423",
"g  c #A63926",
"h  c #B63424",
"j  c #BB3322",
"k  c #BB3924",
"l  c #BC3B2C",
"z  c #B63928",
"x  c #A62F22",
"c  c #C2351E",
"v  c #C3391F",
"b  c #C22F1C",
"n  c #C33621",
"m  c #CB3722",
"M  c #C53A24",
"N  c #CC3A24",
"B  c #C33D2C",
"V  c #CB3D29",
"C  c #D43D25",
"Z  c #D83F26",
"A  c #D33E29",
"S  c #D83F28",
"D  c #C03D30",
"F  c #9C4635",
"G  c #8E5B31",
"H  c #A94527",
"J  c #BA452A",
"K  c #AC5022",
"L  c #A64836",
"P  c #BE4132",
"I  c #B14836",
"U  c #BA563C",
"Y  c #A4513D",
"T  c #AF6F34",
"R  c #CD412C",
"E  c #C14B2A",
"W  c #D64026",
"Q  c #D94126",
"!  c #D4422B",
"~  c #DA422A",
"^  c #D15E2D",
"/  c #CF4533",
"(  c #C04C34",
")  c #D34731",
"_  c #D44832",
"`  c #D34C39",
"'  c #CC5B2F",
"]  c #C57230",
"[  c #D5783B",
"{  c #D96D34",
"}  c #E27739",
"|  c #805747",
" . c #855C4B",
".. c #855C4A",
"X. c #975847",
"o. c #AA5340",
"O. c #A85A46",
"+. c #BA5A44",
"@. c #8A614F",
"#. c #8C6452",
"$. c #8D6958",
"%. c #926C5A",
"&. c #916855",
"*. c #93715E",
"=. c #A8624C",
"-. c #B9634E",
";. c #AE6A53",
":. c #A86A57",
">. c #B66C56",
",. c #BE725C",
"<. c #A9745F",
"1. c #937260",
"2. c #AD7A65",
"3. c #B67C65",
"4. c #BC7A64",
"5. c #BE7D6C",
"6. c #B67663",
"7. c #C5843B",
"8. c #DB923B",
"9. c #9C846F",
"0. c #BC836B",
"q. c #B8886E",
"w. c #A18470",
"e. c #B58C76",
"r. c #BC8973",
"t. c #BA8371",
"y. c #AD997F",
"u. c #BB927B",
"i. c #AE856D",
"p. c #CC9142",
"a. c #E08A40",
"s. c #EC9D49",
"d. c #F6BC5C",
"f. c #F1A54F",
"g. c #C38976",
"h. c #C48E7C",
"j. c #C18774",
"k. c #C2917D",
"l. c #FCDE6B",
"z. c #AD9A84",
"x. c #B59F85",
"c. c #BC9B85",
"v. c #BE9A85",
"b. c #BCA38B",
"n. c #B9A58C",
"m. c #BFAA92",
"M. c #BBA895",
"N. c #C29783",
"B. c #C3A48C",
"V. c #C2AB94",
"C. c #CBAD9B",
"Z. c #C7A491",
"A. c #C4B29B",
"S. c #CBB59D",
"D. c #C8B599",
"F. c #D0BB9E",
"G. c #CCBBA3",
"H. c #CBBDAB",
"J. c #C7B7A5",
"K. c #D2BDA4",
"L. c #D2BDA9",
"P. c #CEC1AD",
"I. c #D4C0A5",
"U. c #D4C3AC",
"Y. c #D8C6AD",
"T. c #CFC1B0",
"R. c #CDC7BF",
"E. c #CEC9BF",
"W. c #D3C5B2",
"Q. c #D6C9B4",
"!. c #DBCCB5",
"~. c #DCCEBA",
"^. c #D5C8B9",
"/. c #DED2BC",
"(. c #DFD5BB",
"). c #E0CEB6",
"_. c #E2CFBB",
"`. c #E1D3BD",
"'. c #E3D4BD",
"]. c #E1D4BE",
"[. c #E3D4BF",
"{. c #E1D4BD",
"}. c #E4D5BE",
"|. c #E2D3BC",
" X c #E1D5BB",
".X c #CFC9C0",
"XX c #D2CCC2",
"oX c #DED3C2",
"OX c #D7D3CA",
"+X c #D5D0C6",
"@X c #DFDED8",
"#X c #DBD7D1",
"$X c #E4D5C2",
"%X c #E7DBC7",
"&X c #E5D9C5",
"*X c #E8D9C7",
"=X c #E8DBC6",
"-X c #E6DBCA",
";X c #E8DDCB",
":X c #E8DDC9",
">X c #EADDCC",
",X c #E8D5C3",
"<X c #E1DED7",
"1X c #EBDFD1",
"2X c #E0DED8",
"3X c #EBE1CF",
"4X c #EBE2D3",
"5X c #EEE6D9",
"6X c #EFE8D9",
"7X c #E3E0D9",
"8X c #F1E9DB",
"9X c #F1E6D9",
/* pixels */
"                                                                                                                                ",
"                                                                                                                                ",
"                                                                                                                                ",
"                                                                                                             X X{.(.(.(.oXoX    ",
"(.(.(. X`.`._.`. X{.`.`.`.`.`.$X`.`.$X`.`.`./. X`.`./.`.`.`./.{.`.$X{.}.,X{.}.`. X X`.`.{. X{.{.{.}.`.`. X X).|. X`. X_.).!.    ",
"  -X3X}. X X X`.|.`.`.`.`.|.`. X{.|.`. X`. X X X X`.`.`.`.`.`./.`.{.}.{.{.{.}.`.{.{. X`.Q.U.!. X!./. X X X X|.|. X_. XQ.V.z.    ",
"  3X;X$X`.`.`.`.|.|.`.{.`.$X`.|.}.{.}.}.|.`.{.{.`.`.{.$X{.$X(.$X{.$X,X{.{.{.`.{.{.{.{. XU.G.Q.{./.A./.).|.|.|.|._.|.|.`. XQ.    ",
"  oX~.!.!.)._. X_.|.{.,X`.`.,X,X,X&X*X*X*X*X;X&X-X;X;X;X;X;X;X;X;X;X;X;X;X;X;X;X;X%X%X%X*X*X&X;X;Xz.G.}.|.|.|.|. X). X~.~.      ",
"        I.G.G.I.b.b.K.K.9. .| | |  . .|  . . .@.@. .@.@.#.#.#.&.&.#.&.%.$.%.&.%.%.$.%.%.%.1.%.1.$.#.*.n.I.V.y.F.K.K.K.I.        ",
"              I.D.A.Y.K.w.= . . . . . X X @ X + # % & & & & & & & & % % % # O X X o @ @ o o + o $ $ - V.I.B.y.K.K.              ",
"              U.)._.).Y.n.; X X + # % & & & * > 1 3 3 3 4 4 3 4 3 4 6 6 6 q 6 4 3 1 > 1 > > > > > * =.D.Y.Y.!.!.L.              ",
"              !. X`.{.!.M.F * : 1 3 4 3 6 e j t t i p i i i y y p p p p p y p p j t r 4 6 6 3 , , , <.I. X}.|.~.                ",
"              !.`.`./.!.A.X., 3 q q 3 6 e y t j j j h h h z z z k h z h h h h h h i u q 3 3 5 5 , 1 2.~.{.`. X~.                ",
"              !.{.`.`./.G.:., 5 q w 4 e y t j j j p j p p p p p i j i p j j j y i i t t 4 4 4 6 < 2 e.{.{.`.`.`.                ",
"              (.}.L.V.Q.H.:., 6 w 9 e h t j p p y c y c p c p p j p p c j p j j j p p y e 6 6 w < 2 v.&X{.,X,X`.                ",
"              oX$XS.n.Q.U.<.3 q r e j h t j p p c p p p p p c p c p p p j p c p p p p p h x 6 w < s V.-X`.,X$X$X                ",
"                ,XU.m._.Q.2.2 6 0 i j z y c y c p p c c c c p c c c c p c p p p p p p p z f 9 q < F J.-X$X$X$X$X                ",
"                {./.U.}./.i.7 w 0 c h l y j p n c c c c c p c a p c c c c c c n n c c t l h t 8 < F L.-X$X$XoX                  ",
"                {.$X{.$XoXe.d w y c j l p c n c c c c c c c v a v c c c c c n c c c c p l h p 8 , o.^.-X`.`.`.                  ",
"                {.$X}.$XoXu.d w p c y l p p c c v c c v c v U =.k c n c c c c c c p p j P j j 9 < :.oX&X$X,X$X                  ",
"                |.$X{.$X=Xc.s 9 p n j l j p c c c c c c c n H H a v n c n M c c c c c j P j c 0 3 2.-X$X`.$XoX                  ",
"                oX$X,X$X;Xb.s 9 c n j B p p v n c c M v v c v n v c v c v c v c c c p j D j c t 3 6.^.,X$X$X&X                  ",
"                oX`.$X$X3Xm.F 0 c c j E j p n n v M M m m m N N m m M M c M n n M c c j B p c t d i.M.G./.$XoX                  ",
"                oX$X$X$X1XV.L 0 b n p l n c M N N C C A W C C A A C C C N N m v c v c l l b c t s C.<X$X$X$X                    ",
"                  {.$X,X4XA.o.e j c n B V C C Z Z Q C Q S Z S S C Q S A Q Q C C v N c l l c c 0 s C.4X,X$X,X                    ",
"                  $X$X{.4XJ.O.i n C N R V C W W Q C Q A S S C Q Q A S A S C Z Z Q C v V j n c t L H.1X$X,X,X                    ",
"                  $X$X$X3XI.-.p N C C V V C S C S Q S Q ~ S S ~ Q Q ~ Q Q Z Q Q W C N R n v c t Y Q.1X$X,X`.                    ",
"                  ].$X$X3XP.,.p v C A V V N C C A C A W S S S S A Q A S A Q C C C C N R N V c 0 O._.-X,X$X&X                    ",
"                  ].&X,X3XW.4.c v C A m m V ! R ! ) _ ) _ _ ) _ ) _ _ _ ) ) R ! V V N N C C N t ;.&X-X,X$X&X                    ",
"                  &X,X$X3XQ.0.n v W C C C A A A A W W ! ~ S S ~ ! A ! W W ! A A C C W N C Z N p 3.;X-X,X,X                      ",
"                  oX&X{.3XoX0.B { s.} C A C A W W W Q Q S S ~ ~ ~ ~ Q Q Q W A W W Z Z Z Z Z N j r.4X&X,X$X                      ",
"                  &X,X,X;XoXr.' l.l.d.E m V V W ! ! ) ) _ _ ) ) ) ) ) ) ) ! ! V V V N C C C M z N.4X$X,X,X                      ",
"                    $X,X;X$Xu.' f.d.s.K M / C W ~ ~ ~ ~ ~ ~ ) ~ ~ ~ ~ _ _ ~ ~ Q A R ! C C C v z Z.9X,X,XoX                      ",
"                    &X,X-X;XN.E { [ ] K M ` W Q ~ ~ ~ ~ ~ ~ ~ ~ ~ ~ ~ ~ ~ Q Q Q W _ / C W C v I S.9XI.!.&X                      ",
"                    $X$X-X-Xb.E { G T T j ` W Q ~ ~ ~ ~ ~ ~ ~ ~ ~ ~ ~ ~ ~ Q Q Q C ` R W W V c I L.3XD.U.-X                      ",
"                    $X$X,X1XB.( } 7.p.7.p ) R W ~ ~ ~ ` ~ ~ ~ ~ ~ ~ ~ ~ ! ! W ! V / C C W C p o.Q.>XS. X                        ",
"                    &X,X&X3XV.( ^ 8.8.T t N C C ! ! ! ! ! ! ) ) ! ) ! R ! R V V N N C Q A C j -.$X;X!.,X                        ",
"                    &X$X$X3XV.+.b a M p n A A A S S A Q C W W Q S Q A W W W W Q S Z Z C C V e >.&X>X$X&X                        ",
"                    &X$X,X3XD.+.c c C C C C A A A A W A R W W W A A A A A A A A A V V A A m t 3.>X*X,X^.                        ",
"                    $X$X,X>XG.-.c v C C m V N R R R / ) _ _ _ W _ _ ) ) ) ! ! V N V N C C m e r.1X-X&XH.                        ",
"                      $X$XH.M.,.c c C C N N N V m Z Z C C C C C A C W W C C C m m v N C C b f N.4X&X,X$X                        ",
"                      $X~.H.A.,.c c v C N N C C Z Z Z Z Z C Z C A W W W Z Z C C C C V C C y g Z.4X$X$X$X                        ",
"                      $X,X;XQ.4.c c m C V V N C Z Z Z Z C Z C Z C Q A C Z Z C C N / N Z A t H C.4X{.$X                          ",
"                      $X$X-XW.4.n c C C V V C C C C C C Z C C C C C Z C C C C C N ) N C V t L L.;X$X$X                          ",
"                      $X$X&XQ.0.j b m C V R N C C C C C C C C C C Z C C C C C C V ) m C m r o.Q.;X$X$X                          ",
"                      $X}.$X~.r.z n N C M R m C C C C C C C C C C C C C C C C C R R C C M 0 =.oX;X&X$X                          ",
"                      oX}.&X~.e.f n A C V R m C C C C C C C C C C C C C C C m C R R N N y 0 >.oX&X$X{.                          ",
"                      $X`.&X~.u.g y m C m V v C m C C C C C C C C C C C C C C m R R N m y 0 3.oX&X$X$X                          ",
"                      $X`.$X/.u.g 0 N C n V m N N C m C C C C C C m C A C A C m / N m c p w e.-X$X$X                            ",
"                        `.,X/.b.L 0 c C m V m C C C m C C C C m C C C S m m C m B m v b t u u.-X$X`.                            ",
"                        `.$XoXb.L w t m m M m m C m C C N N m C m m m m m m m m V n p y t g B.&X$X`.                            ",
"                        /.,X`.b.L 8 t b n n n m m m m m V V N C m A m V N C m M j y y j e g C.$X`.!.                            ",
"                        /.|.`.V.o.8 r p y b m m m m m N M V v N C N m V m m n j t y y t r L G.$X`.Q.                            ",
"                        Q.|.~.V.O.8 8 r y y c N C m N m N N C C m m C m C v b y y y j e 8 o.K.`._.Y.                            ",
"                        Q. X_.V.O.q 8 8 r e t y b N N C N m m v m m m b y y y t y y e r 4 O.U.{. XU.                            ",
"                        U.I.U.V.;.6 5 6 6 6 q w w r e t y t y t r r r q 8 q r r r r < 8 4 ;.I.W.!.                              ",
"                      4X!.n.m.D.B.h.k.h.k.k.k.k.h.h.h.h.h.g.g.g.j.j.r.5.5.5.5.4.4.6.,.6.6.u.G.y.S.$X                            ",
"                  ;X4X4X4X*X-X1X4X5X5X5X5X6X6X9X9X8X8X8X8X8X9X8X5X8X9X9X9X9X9X4X9X4X4X;X;X&X-X~.-X4X4X4X                        ",
"                  /.!. X}.}.{.{.}.$X$X*X=X=X;X;X>X>X>X>X3X3X;X;X>X;X>X>X>X>X>X>X>X=X;X-X&X&X&X,X&X(.].].$X                      ",
"                    J./. X X}.`. X'.}.`. X). X).|. X).|.).|.)./.`.`. X|.'.|.'.}.}.|. X{.`.`.`. X{.{.Q.J.                        ",
"                    ^.Q.Q.Q.W.T.W.H.P.H.P.H.H.H.H.H.H.H.H.H.H.H.H.H.H.H.H.H.H.T.T.T.T.T.W.T.W.W.Q.Q.Q.R.                        ",
"                #XOXOX+XXXXXXXXXXXXXXXXXXXXX.XE.^..X.X.XE.E.R.R.R.R.R.R.R.^..X.XR.R.R..XR.E.E.E..XE.E.XXOX<X                    ",
"            7X<X2X2X<X<X<X2X2X<X<X<X<X<X@X<X2X7X2X@X@X@X2X2X2X2X@X@X@X@X@X@X@X@X2X2X@X@X@X@X7X@X@X<X7X7X2X2X2X                  ",
"                                                                                                                                "
};
