/* XPM */
static char *_b90fc386ba1494bce1c6b82f6e8289dbje8T9s3hADHSLtz[] = {
/* columns rows colors chars-per-pixel */
"64 64 228 2 ",
"   c None",
".  c #952315",
"X  c #9C2516",
"o  c #98291B",
"O  c #A42A1A",
"+  c #AC2B1A",
"@  c #A52717",
"#  c #B32E1C",
"$  c #B92E1D",
"%  c #B6321D",
"&  c #BC321D",
"*  c #BE3A1F",
"=  c #98362C",
"-  c #993328",
";  c #A83626",
":  c #BD3422",
">  c #BE3926",
",  c #B83927",
"<  c #961F13",
"1  c #C2341E",
"2  c #C4391F",
"3  c #C43621",
"4  c #C53A23",
"5  c #CA3A23",
"6  c #C53E2B",
"7  c #CD3E2A",
"8  c #CA3621",
"9  c #D43D26",
"0  c #D83F27",
"q  c #D33E29",
"w  c #D83F29",
"e  c #B84228",
"r  c #A84A37",
"t  c #B74A35",
"y  c #BB563A",
"u  c #AF5436",
"i  c #9E733D",
"p  c #C2422B",
"a  c #CA422C",
"s  c #D54027",
"d  c #D5432B",
"f  c #DB432B",
"g  c #DA462B",
"h  c #CA4B31",
"j  c #D64B33",
"k  c #DA4C35",
"l  c #D94833",
"z  c #CB563A",
"x  c #D95A3B",
"c  c #E1482E",
"v  c #E36938",
"b  c #D07D38",
"n  c #B75B48",
"m  c #AB5B47",
"M  c #B86955",
"N  c #AE7150",
"B  c #936B6C",
"V  c #B97866",
"C  c #AA7B73",
"Z  c #A3706D",
"A  c #9D5041",
"S  c #D55D42",
"D  c #C35F47",
"F  c #DD6445",
"G  c #DB6546",
"H  c #DB7649",
"J  c #D9775A",
"K  c #C46F57",
"L  c #E26C4A",
"P  c #E06648",
"I  c #E4734D",
"U  c #E3794D",
"Y  c #E67A53",
"T  c #E77A54",
"R  c #D97A63",
"E  c #CF873A",
"W  c #958679",
"Q  c #BA8775",
"!  c #B68C76",
"~  c #E69844",
"^  c #E78358",
"/  c #E5884B",
"(  c #DCA347",
")  c #E7A94D",
"_  c #DE8669",
"`  c #DF8D76",
"'  c #C4917D",
"]  c #DB9179",
"[  c #D7927A",
"{  c #C18A77",
"}  c #E88867",
"|  c #E08F72",
" . c #DE9742",
".. c #FACF6D",
"X. c #F8C45F",
"o. c #175C9D",
"O. c #1A609A",
"+. c #025EAA",
"@. c #0B64AD",
"#. c #0761A7",
"$. c #1569AF",
"%. c #1B6BAF",
"&. c #1466AB",
"*. c #1E6EB0",
"=. c #176AB0",
"-. c #2472B2",
";. c #2B79B6",
":. c #2975B4",
">. c #327CB6",
",. c #347FB9",
"<. c #2870AB",
"1. c #205E93",
"2. c #4A7CA6",
"3. c #3A85BC",
"4. c #3E8ABF",
"5. c #3681BA",
"6. c #428BBF",
"7. c #4F8AB3",
"8. c #7290A4",
"9. c #448EC1",
"0. c #4692C3",
"q. c #4A95C4",
"w. c #4E9AC6",
"e. c #539EC9",
"r. c #539CC6",
"t. c #5BA5CB",
"y. c #58A4CA",
"u. c #63ABCE",
"i. c #6AABCC",
"p. c #6AAED0",
"a. c #67ACD0",
"s. c #6DB1D2",
"d. c #74B4D3",
"f. c #7CB9D6",
"g. c #79B6D4",
"h. c #77AECC",
"j. c #948B83",
"k. c #998F85",
"l. c #9B9284",
"z. c #B99B86",
"x. c #AE998A",
"c. c #B7A48C",
"v. c #BCAD9A",
"b. c #BCAA97",
"n. c #B6AD9E",
"m. c #889DA8",
"M. c #98A5A5",
"N. c #BAB7A9",
"B. c #B0B4B2",
"V. c #C69B85",
"C. c #D39A86",
"Z. c #C2A58E",
"A. c #C2AC94",
"S. c #C7AA96",
"D. c #CAB49D",
"F. c #C6B29D",
"G. c #D4AF9C",
"H. c #CDBAA3",
"J. c #CBB9A7",
"K. c #D3BCA7",
"L. c #CABEB1",
"P. c #D1B7AA",
"I. c #D4C2AB",
"U. c #D8C4AA",
"Y. c #CCC5BB",
"T. c #CCC3B6",
"R. c #D3C4B3",
"E. c #DBCAB5",
"W. c #DBCCBA",
"Q. c #D6C8B8",
"!. c #DED1BD",
"~. c #E3D3BD",
"^. c #E3CEBC",
"/. c #82BBD6",
"(. c #85BDD9",
"). c #8ABFD7",
"_. c #8FB5C4",
"`. c #A0B8C1",
"'. c #8CC1D9",
"]. c #88C1D8",
"[. c #94C5DC",
"{. c #9CCADE",
"}. c #9BC6DD",
"|. c #A2CCDF",
" X c #AACCDF",
".X c #BED9DE",
"XX c #9CC9E0",
"oX c #A5CDE1",
"OX c #A9CFE3",
"+X c #ACD2E3",
"@X c #B2D5E4",
"#X c #BBDBE8",
"$X c #B7D9E5",
"%X c #D2CCC3",
"&X c #D8CDC6",
"*X c #DED2C2",
"=X c #D7D3CC",
"-X c #C8DADE",
";X c #D8DCD6",
":X c #CFCBC2",
">X c #E5D6C5",
",X c #E5D6C3",
"<X c #E8D7C6",
"1X c #E6D8C5",
"2X c #E6D9C5",
"3X c #E8D9C6",
"4X c #E5D9CA",
"5X c #E9DBCB",
"6X c #E6D7C9",
"7X c #E2DED6",
"8X c #E0DED8",
"9X c #EBDFD1",
"0X c #EAE0CE",
"qX c #ECE2D3",
"wX c #EBE6DA",
"eX c #F2E9DC",
"rX c #F1E6D7",
"tX c #C2DDEA",
"yX c #C6DDE8",
"uX c #C4E0EB",
"iX c #CBE4EE",
"pX c #DDE7ED",
"aX c #DBEAEE",
"sX c #D6E4EC",
"dX c #CEE4F0",
"fX c #D4E9F1",
"gX c #DBECF3",
"hX c #D6E7F3",
/* pixels */
"                                                              R D =                                                             ",
"                                                            R G z o o =                                                         ",
"                                                            R G z . . < . -                                                     ",
"                                                            J L z . . X X X X - =                                   ,X,X2X~.,X4X",
"  >X,X*X,X~.2X2X,X,X,X,X,X,X,X,X,X,X,X,X>X>X>X<X<X,X,X,X,X,X_ F z X @ + + # $ $ + ; M Z.^.<X2X,X<X<X,X,X,X,X,X,X,X,X,X,X~.~.!.*X",
"    >X>X2X2X,X,X,X,X6X,X,X,X<X,X,X,X<X,X>X<X>X<X<X,X~.<X,X,X| P z X O O + : 1 1 1 & # ; n V.K.W.,X,X,X,X,X,X>X>X,X,X,X,X,XI.v.x.",
"    4X2X2X,X,X2X,X6X,X6X,X,X2X,X2X2X,X<X>X>X<X<X,X3X<X<X,X<X| P z O O X # : & 3 1 2 1 & + @ = V K.9XL.W.,X>X>X>X,X6X,X,X,X,X!.  ",
"    ,X!.!.~.~.~.,X,X,X,X6X>X2X3X3X3X3X5X3X5X5X5X5X5X5X0X5X5X| L S O O + $ : : : & & 2 1 1 % X . ; V z.x.,X6X>X6X>X>X,X,X~.*X>X  ",
"          U.I.U.U.c.S.U.U.! W W W j.j.j.j.j.k.k.k.k.l.l.l.l.R G S O + $ 1 $ 3 : , , : 3 3 3 $ X . < o A ! I.I.c.D.I.U.I.U.R.    ",
"              E.U.F.K.E.U.' B O.+.o.o.o.o.o.o.o.&.O.O.O.O.1.B L z O # : 1 3 3 3 3 > 6 , , : : $ @ . . - c.U.I.! H.I.R.          ",
"                E.~.~.~.U.b.l.&.+.+.+.+.+.+.+.+.+.#.#.#.#.#.B L S + : , 3 2 3 3 3 3 : : : 4 , : O X X r A.U.W.E.^.U.            ",
"                E.~.3X~.!.v.x.<.#.@.#.@.+.&.@.@.@.@.@.@.@.@.Z L S + : : 3 3 3 3 3 3 3 3 1 1 : : + o o r D.!.2X~.~.E.            ",
"                ~.2X2X~.!.D.c.5.$.$.$.$.$.$.$.$.$.$.$.%.=.%.Z L S + , : 8 4 4 4 3 3 1 4 1 2 3 3 + O O m I.2X,X,X,X!.            ",
"                ~.2X~.~.~.H.! 2.%.%.$.%.%.%.*.*.*.*.*.*.*.<.Z L S # 4 > 3 4 4 3 4 4 4 4 4 4 3 3 : O X N Q.2X,X2X,X2X            ",
"                2X~.I.H.!.I.c.7.*.-.*.-.-.-.-.-.-.:.:.-.-.:.Z I S # 4 6 8 4 4 4 3 4 4 4 4 4 2 2 > + X N *X2X<X3X,X              ",
"                2X2XD.c.!.U.! 7.-.:.:.:.;.;.;.;.;.;.;.;.;.>.C I S : 6 4 3 5 4 4 4 4 2 8 3 4 4 3 > # o Q ,X2X3X3X,X              ",
"                >X2XI.H.,XR.c.8.;.>.>.>.>.>.>.>.;.5.5.5.5.>.C I G & 5 6 4 5 5 8 2 p y 6 3 4 4 4 6 + O z.5X3X3X~.~.              ",
"                6X3X~.E.2XQ.Z.8.5.5.,.,.5.5.5.3.3.3.5.5.3.3.C U S 3 4 6 8 5 5 5 2 p u 6 4 8 4 3 6 : ; z.5X2X2X3X3X              ",
"                  3X2X<X3X*Xc.8.3.4.4.4.3.4.4.4.4.4.4.4.4.6.Q U G & 5 p 5 4 2 8 2 9 * 8 8 8 8 4 6 $ ; F.5X2X2X,X2X              ",
"                  ,X3X,X3X6XA.m.4.4.9.4.9.9.9.9.0.6.0.0.6.6.C U G 2 8 p 5 5 2 2 9 2 5 2 6 8 2 6 6 $ r H.qX<X,X,X2X              ",
"                  ,X3X3X2X2XA.m.0.0.0.9.0.0.0.0.0.q.q.0.q.0.Q T G 2 5 6 2 9 8 9 9 9 2 2 5 5 8 6 6 $ m R.9X<X2X>X                ",
"                  6X<X3X0X0XA.M.q.q.q.w.w.w.w.w.w.w.w.w.w.w.Q T G 2 6 7 9 0 f f s f f 9 5 8 5 p 5 $ m P.,X3X4X>X                ",
"                  6X3X3X3X0XS.M.r.r.e.e.w.e.e.e.e.e.e.y.e.e.Q T G 4 9 d f f f f f f f f f 5 5 6 5 % N v.J.W.3X>X                ",
"                  6X3X3X4X0XG.M.r.e.e.e.y.e.y.y.y.y.y.y.t.t.Q ^ G s g d f c f f f f f f f f 5 p 5 % Q 9X4X,X2X4X                ",
"                  0X2X2X3XqXH.M.t.e.t.t.y.t.t.t.t.t.u.t.t.u.Q T L s f f f f c f f f f f f f f 7 4 % { 9X4X3X3X4X                ",
"                  0X2X2X3XqXH.n.i.t.u.u.u.a.u.u.a.u.u.u.u.i.Q ^ L d l d f f l f f f f f f f s a 3 , V.9X4X4X3X3X                ",
"                    2X2X<XqXJ.n.i.i.i.a.a.a.a.a.p.p.p.p.p.i.{ ^ G s f g g g f f l f f f f f q d 5 e S.rX6X3X3X                  ",
"                    3X2X3XqXI.b.h.a.a.a.p.p.s.p.s.s.s.s.d.d.{ ^ L g g d j j k k k k j k l d d d 9 t H.rX6X5X6X                  ",
"                    3X2X3XqXR.b.h.h.p.s.d.s.d.d.d.d.d.d.d.f.' ^ L 0 c c f g f g g f f g d s s s 9 y K.eX3X3X3X                  ",
"                    2X3X2XrXE.v._.d.g.g.g.g.g.g.f.f.f.f.f.f.' ^ L x v v c g g c f f f f f f f f 9 n W.wX5X3X4X                  ",
"                    2X3X3XqXW.b._.g.g.g.f.f.f.f.f.f.(.f.(.].V.} I ~ X.../ l g g l f g s g s s g s D &XqX3X5X4X                  ",
"                    2X3X2XqX,Xb._.g.(./.(.(.(.(.].].].(.].].Z.} I ~ ....) k k k k k k j l d d g 4 V 3XqX3X4X4X                  ",
"                    6X3X3XqX*Xv.`.].(.'.).).(.).].'.'.'.[.).V.H I E  .~ b c c g f f c f c l l f 4 { 3X5X<X6X                    ",
"                      <X3X9X4XA.`.].].'.'.'.[.[.'.[.[.[.[.}.{ ^ U ~ E u c c g c f f f f f l g f 6 ' qX,XE.6X                    ",
"                      2X3X9X4XF.`.[.'.[.[.[.[.[.[.XX}.[.[.}.C.} U ( N h c g c c c c l g f g j f p V.qXE.J.,X                    ",
"                      ,X6X9X5XF.B.[.[.XX[.XX[.{.XX}.}.}.}.|.C.} H ( i y 0 g c g l c f g g s d s p S.rXQ.W.5X                    ",
"                      3X5X5X9XF.B.XXXXXX{.{.XX{.{.|.{.|.{.|.C.} b ) ( e g g k k j j d d q 0 w 9 t H.eX,X,X4X                    ",
"                      2X3X5XqXF.B.oXXXoX|.|.|.|.|.|.|.oX|. X[ T H E E e s g g g f f g f c f c 9 n I.rX3X3X6X                    ",
"                      2X3X3XqXF.B.oXoXOX|.+XoXOXOXOXOXOX+X X[ ^ P p a 4 g g g g f f w f w q f 5 D W.qX3X*X                      ",
"                      2X3X5XqXJ.N.+XOX+X+X+X+X+XOX+X+X@X+X+X[ T v 9 g g g d d g j j j j d q f 5 M ^.9X6XW.                      ",
"                      4X2X2XI.A.N.+X+X+X+X+X@X@X@X@X@X@X@X@X[ T S 9 q q g j k j j l s q q d f 3 V 6X9X6X3X                      ",
"                      4X3X!.T.F.N.@X$X@X$X@X@X$X$X$X@X$X@X$X[ T F 0 q f w 0 s f f f f f q d q 3 { 9X5X<X6X                      ",
"                        2X2XqXR.N..X$X$X$X#X#X#X#X#X#X#X#X#X[ Y F 9 f d f f f f f f f f d l w > { 9X3X3X3X                      ",
"                        2X2X0XI.N..XtX#X#XuX#X#XtX#XtXtX#XtX[ Y x 9 d w f f f f 0 f w f d l q , V.qX3X3X2X                      ",
"                        2X~.0XQ.v.-XuXuXuXuXuXuXtXtXyXtXyXyX` I x 0 f w w f f w f f f f s d 9 , S.qX6X<X                        ",
"                        2X~.0XQ.v.-XiXiXiXiXiXiXiXiXiXiXiXyX` T x 9 d d f f f f f w f w l d 8 t H.qX<X,X                        ",
"                        2X2X0XW.v.-XiXiXdXiXiXiXiXdXiXdXfXdXC.I x 9 d w f f w w 0 0 0 s d d 4 n K.qX<X,X                        ",
"                        2X2X2X!.b.;XfXfXfXfXfXfXhXhXhXhXhXsX` I x 9 s d q f f 0 0 f w 0 d q 3 n Q.5X<X,X                        ",
"                        >X2X2X!.b.;XfXgXgXgXgXgXgXgXgXgXgXpX] I x 9 d q 0 f q q s s q 0 a 9 & M W.0X2X,X                        ",
"                        ,X~.2X~.b.;XgXgXgXgXgXgXgXgXgXgXgXpX] I x 5 d 9 0 0 0 0 0 s 0 9 d 9 & V !.2X2X~.                        ",
"                          2X2X*Xb.=XgXgXgXgXgXgXgXgXgXgXgXpX` I z 9 a 0 0 0 9 0 0 0 0 9 a 2 % Q 2X2X,X!.                        ",
"                          ~.2X,Xv.=XgXgXgXgXgXgXgXgXgXgXgXaX` L j 8 d s 9 0 0 0 0 w 0 9 9 1 * ! *X2X~.                          ",
"                          ~.2X~.b.:XgXaXaXgXgXgXgXgXgXgXgXaX` L h 5 s s w w 0 0 0 q 0 5 1 1 : V.0X!.~.                          ",
"                          ~.~.,Xv.Y.gXgXhXgXaXgXgXgXgXgXaXaX` L h 4 s 5 q 9 9 9 5 q 7 5 $ 1 , b.0X~.!.                          ",
"                          W.2X~.A.Y.aXhXaXgXgXhXgXgXgXgXaXgX` P h 2 5 5 7 q q 7 7 7 7 3 1 # r D.~.2X!.                          ",
"                          E.E.U.A.T.aXaXaXaXgXhXgXgXgXgXaXwX` L h 1 5 5 7 a a 7 q 9 5 3 & + u D.E.E.E.                          ",
"                        qX~.c.D.K.*XwXwXwXwXwXwXwXwXwXwXwXqX} F p $ 3 5 5 5 9 9 9 9 & $ # + V K.A.A.W.                          ",
"                    0XqXqXqX5X5XrXeXrXrXeXeXeXeXeXeXeXeXeXeX_ F p $ 3 5 q 9 9 9 9 % @ ; M G.0XqX,X,XqXqXqX                      ",
"                    *X~.,X2X3X3X6X6X5X5X5X5X5X5X5X9X5X9X9X5X_ F p # 1 8 0 9 8 8 # ; M S.<X5X5X5X4X4X6X3X3X4X                    ",
"                      K.~.2X,X,X>X>X>X<X6X>X6X,X>X6X,X,X,X~.} P e + $ 1 1 $ $ t V G.~.,X<X<X,X,X>X6X>X,XI.N.                    ",
"                    &XQ.W.W.Q.R.R.R.R.L.L.L.R.R.L.L.L.K.L.P.R P 6 + + @ + A V Z.P.Q.Q.R.R.R.Q.Q.W.W.Q.W.W.Y.                    ",
"                  =X=X=X%X%X%X:X%X%X:X:X:XY.:XY.Y.:X:XY.L.L.R P > @ ; M z.v.L.L.Y.Y.T.T.Y.Y.T.Y.Y.Y.Y.:XY.%X;X                  ",
"              8X7X7X8X8X7X8X;X8X8X8X8X8X8X8X8X8X8X8X8X8X9X9XC.R D K P.&X;X8X8X8X8X8X8X7X7X7X8X8X8X8X7X8X8X8X7X8XwX              ",
"                                                                                                                                "
};
