/* XPM */
static char *result[] = {
/* columns rows colors chars-per-pixel */
"64 64 16 1 ",
"  c #000000",
". c #3B3530",
"X c #44372E",
"o c #4C392C",
"O c #553B2A",
"+ c #5D3D28",
"@ c #663F26",
"# c #88481E",
"$ c #904A1C",
"% c #994C1A",
"& c #A14E18",
"* c #AA5016",
"= c #B25214",
"- c #BB5512",
"; c #E86A17",
": c None",
/* pixels */
"::::::::::;;;;;;;;;;;;;;;;;;;;;;;;;;;;;;;;;;;;;;;;;;;;::::::::::",
"::::::::::;;;;;;;;;;;;;;;;;;;;;;;;;;;;;;;;;;;;;;;;;;;;::::::::::",
"::::::::::;;;;;;;;;;;;;;;;;;;;;;;;;;;;;;;;;;;;;;;;;;;;::::::::::",
"::::::::::;;;;;;;;;;;;;;;;;;;;;;;;;;;;;;;;;;;;;;;;;;;;::::::::::",
"::::::::::;;;;;;;;;;;;;;;;;;;;;;;;;;;;;;;;;;;;;;;;;;;;::::::::::",
"::::::::::;;;;;;;;;;;;;;;;;;;;;;;;;;;;;;;;;;;;;;;;;;;;::::::::::",
"::::::::::;;;;;;;;;;;;;;;;;;;;;;;;;;;;;;;;;;;;;;;;;;;;::::::::::",
"::::::::::;;;;;;;;;;;;;;;;;;;;;;;;;;;;;;;;;;;;;;;;;;;;::::::::::",
"::::::::::;;;;;;;;----------------------------;;;;;;;;::::::::::",
"::::::::::;;;;;;;;----------------------------;;;;;;;;::::::::::",
"::::::::::;;;;;;;;----------------------------;;;;;;;;::::::::::",
"::::::::::;;;;;;;;----------------------------;;;;;;;;::::::::::",
"::::::::::;;;;;;;;----------------------------;;;;;;;;::::::::::",
"::::::::::;;;;;;;;----------------------------;;;;;;;;::::::::::",
"::::::::::;;;;;;;;----------        ----------;;;;;;;;::::::::::",
"::::::::::;;;;;;;;--------            --------;;;;;;;;::::::::::",
"::::::::::;;;;;;;;-------              -------;;;;;;;;::::::::::",
"::::::::::;;;;;;;;-------              -------;;;;;;;;::::::::::",
"::::::::::;;;;;;;;------                ------;;;;;;;;::::::::::",
"::::::::::;;;;;;;;------                ------;;;;;;;;::::::::::",
"::::::::::;;;;;;;;------                ------;;;;;;;;::::::::::",
"::::::::::;;;;;;;;------                ------;;;;;;;;::::::::::",
"::::::::::;;;;;;;;------                ------;;;;;;;;::::::::::",
"::::::::::;;;;;;;;------                ------;;;;;;;;::::::::::",
"::::::::::;;;;;;;;------                ------;;;;;;;;::::::::::",
"::::::::::;;;;;;;;------                ------;;;;;;;;::::::::::",
"::::::::::;;;;;;;;-------              -------;;;;;;;;::::::::::",
"::::::::::;;;;;;;;-------              -------;;;;;;;;::::::::::",
"::::::::::;;;;;;;;--------            --------;;;;;;;;::::::::::",
"::::::::::;;;;;;;;----------        ----------;;;;;;;;::::::::::",
"::::::::::;;;;;;;;----------        ----------;;;;;;;;::::::::::",
"::::::::::;;;;;;;;----------        ----------;;;;;;;;::::::::::",
"::::::::::;;;;;;;;----------        ----------;;;;;;;;::::::::::",
"::::::::::;;;;;;;;----------        ----------;;;;;;;;::::::::::",
"::::::::::;;;;;;;;----------        ----------;;;;;;;;::::::::::",
"::::::::::;;;;;;;;----------        ----------;;;;;;;;::::::::::",
"::::::::::;;;;;;;;----------        ----------;;;;;;;;::::::::::",
"::::::::::;;;;;;;;----------------------------;;;;;;;;::::::::::",
"::::::::::;;;;;;;;----------------------------;;;;;;;;::::::::::",
"::::::::::;;;;;;;;----------------------------;;;;;;;;::::::::::",
"::::::::::;;;;;;;;----------------------------;;;;;;;;::::::::::",
"::::::::::;;;;;;;;----------------------------;;;;;;;;::::::::::",
"::::::::::;;;;;;;;----------------------------;;;;;;;;::::::::::",
"::::::::::;;;;;;;;----------------------------;;;;;;;;::::::::::",
"::::::::::;;;;;;;;----------------------------;;;;;;;;::::::::::",
"::::::::::;;;;;;;;----------------------------;;;;;;;;::::::::::",
"::::::::::;;;;;;;;----------------------------;;;;;;;;::::::::::",
"::::::::::;;;;;;;;----------------------------;;;;;;;;::::::::::",
"::::::::::;;;;;;;;----------------------------;;;;;;;;::::::::::",
"::::::::::;;;;;;;;----------------------------;;;;;;;;::::::::::",
"::::::::::;;;;;;;;----------------------------;;;;;;;;::::::::::",
"::::::::::;;;;;;;;----------------------------;;;;;;;;::::::::::",
"::::::::::;;;;;;;;----------------------------;;;;;;;;::::::::::",
"::::::::::;;;;;;;;----------------------------;;;;;;;;::::::::::",
"::::::::::;;;;;;;;----------------------------;;;;;;;;::::::::::",
"::::::::::;;;;;;;;----------------------------;;;;;;;;::::::::::",
"::::::::::;;;;;;;;;;;;;;;;;;;;;;;;;;;;;;;;;;;;;;;;;;;;::::::::::",
"::::::::::;;;;;;;;;;;;;;;;;;;;;;;;;;;;;;;;;;;;;;;;;;;;::::::::::",
"::::::::::;;;;;;;;;;;;;;;;;;;;;;;;;;;;;;;;;;;;;;;;;;;;::::::::::",
"::::::::::;;;;;;;;;;;;;;;;;;;;;;;;;;;;;;;;;;;;;;;;;;;;::::::::::",
"::::::::::;;;;;;;;;;;;;;;;;;;;;;;;;;;;;;;;;;;;;;;;;;;;::::::::::",
"::::::::::;;;;;;;;;;;;;;;;;;;;;;;;;;;;;;;;;;;;;;;;;;;;::::::::::",
"::::::::::;;;;;;;;;;;;;;;;;;;;;;;;;;;;;;;;;;;;;;;;;;;;::::::::::",
"::::::::::;;;;;;;;;;;;;;;;;;;;;;;;;;;;;;;;;;;;;;;;;;;;::::::::::"
};
