/* XPM */
static char *result[] = {
/* columns rows colors chars-per-pixel */
"64 64 22 1 ",
"  c #AA733C",
". c #AB733C",
"X c #AB743C",
"o c #AC743C",
"O c #AD753C",
"+ c #AD753D",
"@ c #AE763D",
"# c #AF763D",
"$ c #AF773D",
"% c #B0773D",
"& c #B1773E",
"* c #B1783E",
"= c #B2783E",
"- c #B3793F",
"; c #B47A3F",
": c #B57B3F",
"> c #B77B40",
", c #B87C40",
"< c #B97D40",
"1 c #BA7E41",
"2 c #BB7F41",
"3 c #BD8042",
/* pixels */
"   -3333333<.  X*************************+   @*************$    ",
" o<3333333331.  %************************.  +***************@   ",
".<33333333333<. +***********************#   %****************o  ",
"<3333333333333;  %**********************X  O*****************@ .",
"333333333333333@ o*********************O   +*****************# <",
"3333333333333331  o*******************@     *****************o&3",
"3333333333333333=  +*****************@      +***************$ ,3",
"3333333333333333-   @***************$  &,:@  $*************%  :3",
"3333333333333333=    O*************@  :3333,. %***********%.  @3",
"3333333333333333o     o***********@  >3333331..%*********%o    >",
"133333333333333&       o%********+  :33333333,  $*******%X     .",
"+3333333333333&         .%******o  -3333333333:  $*****%.       ",
" &33333333332$            +%**@   o333333333333&  @***$. .@###O ",
"  =333333332o                     +333333333333-    X.  +******%",
"%. :3333331o   #**#                ,33333333333o       +********",
"*%. ;2333:.  O*****@               $3333333333=       @*********",
"**%o .@@    +*******+               &33333333-       @**********",
"***%.      $*********o               &333333;       @***********",
"****%.    O**********%        .+++X   &3333;       @************",
"*****%.   #***********o      %*****$.  $>>$       @*************",
"******%.  @***********@    o%*******$            @**************",
"*******%  .***********@   @**********%.         O***************",
"********#  O*********$   #************%X       X****************",
"*********X  $*******@   %**************%X      #****************",
"*********@   %*****+  .%****************%.     *****************",
"*********#   .%**#X  .%******************%    X*****************",
"*********@     X     %********************#   .*****************",
"*********o          $**********************+   %****************",
"********$          +************************X  o****************",
"*******%.          *************************$   @***************",
"*******o          O**************************o   $**************",
"******o           +**************************+    $*************",
"*****O            .**************************+     %************",
"****@              $*************************o     .%***********",
"***O        X      X************************%        $**********",
"**o       @***$+    +***********************X         $*********",
"%o       @******%X   #*********************o           @********",
".       +*********O   %*******************+    $>,,-.   @******%",
"       X***********+  X%*****************+    &23333,.   .#**%+ ",
"       %************@  o****************@    &3333333<.         ",
"      #**************O  o**************+    &333333333<.        ",
"     O****************X  o***********%o    =333333333331.       ",
"     %****************#   o*********%.    &3333333333333<.      ",
"    O*****************@    o%******@     @333333333333333,      ",
"    +*****************o      @***@.     .13333333333333333=     ",
"    o****************%                  &333333333333333331     ",
"     $***************X                  -333333333333333333     ",
"      $*************+                   @33333333333333333,     ",
"       $***********$                     ,3333333333333333@     ",
"        @*********$                      .133333333333333=   o@.",
"&        o%******%.                       .2333333333333-   ;333",
"3;         $****%.        O###+            o23333333333;   :3333",
"33:         o@#@         %******X           +233333333:   :33333",
"333:                   .%********o           o<333333=   :333333",
"3333-                 o%**********+           .<3333&   -3333333",
"3333,                o*************@            $-=.    ,3333333",
"3333,               o***************@                   ,3333333",
"3333-              o*****************@                  -3333333",
"333:              .%******************o                  :333333",
"33:               %********************X          @***#   :33333",
"3=               #*********************%         @*****$   ;3333",
"&               O***********************@       #*******%.  &333",
"     @:,,-o     %************************      $*********%.  .@.",
"    $233331.   X*************************+    @***********%     "
};
