/* XPM */
static char *c89e9e35b93b4bbeee5dd200777f29eeOnVzKFaiET9vUDIq[] = {
/* columns rows colors chars-per-pixel */
"64 64 227 2 ",
"   c None",
".  c #0E100D",
"X  c #111511",
"o  c #151A14",
"O  c #191D1A",
"+  c #10130F",
"@  c #1D241C",
"#  c #1F2A1B",
"$  c #232C1F",
"%  c #1D2322",
"&  c #252D22",
"*  c #252924",
"=  c #263323",
"-  c #2B3424",
";  c #2D3B27",
":  c #2D352B",
">  c #323D2B",
",  c #353A36",
"<  c #353938",
"1  c #2E3230",
"2  c #35422C",
"3  c #38462F",
"4  c #35482C",
"5  c #344132",
"6  c #3C4C32",
"7  c #3C453B",
"8  c #3D533A",
"9  c #2E462A",
"0  c #425336",
"q  c #46563A",
"w  c #46593A",
"e  c #4A5D3C",
"r  c #40493B",
"t  c #4D623E",
"y  c #57773D",
"u  c #3F4440",
"i  c #414642",
"p  c #444946",
"a  c #464C48",
"s  c #484E4A",
"d  c #4D5E41",
"f  c #4B514C",
"g  c #485C45",
"h  c #4E5453",
"j  c #4F5F51",
"k  c #535955",
"l  c #595E5B",
"z  c #555B58",
"x  c #505C4C",
"c  c #4E6341",
"v  c #4A6847",
"b  c #516443",
"n  c #546A45",
"m  c #596D4B",
"M  c #56694A",
"N  c #5C724C",
"B  c #58754A",
"V  c #5C615C",
"C  c #586A55",
"Z  c #5A7355",
"A  c #5D7B5B",
"S  c #567651",
"D  c #637E4F",
"F  c #616E59",
"G  c #6B7C5D",
"H  c #637557",
"J  c #5E6560",
"K  c #5E6D62",
"L  c #626664",
"P  c #646A66",
"I  c #676C6A",
"U  c #696E6C",
"Y  c #6E7B64",
"T  c #6B736D",
"R  c #677866",
"E  c #717C6B",
"W  c #707F63",
"Q  c #6D7472",
"!  c #6F7972",
"~  c #717675",
"^  c #737B75",
"/  c #757B7A",
"(  c #797E7C",
")  c #5E8254",
"_  c #6D835C",
"`  c #678754",
"'  c #6D9159",
"]  c #73965A",
"[  c #608049",
"{  c #7CA65C",
"}  c #698868",
"|  c #75836B",
" . c #7A8B6D",
".. c #738568",
"X. c #6F936B",
"o. c #779B67",
"O. c #7D8B74",
"+. c #7C837C",
"@. c #768477",
"#. c #739571",
"$. c #7B977A",
"%. c #7CA265",
"&. c #84A256",
"*. c #818D7A",
"=. c #84937C",
"-. c #859578",
";. c #85AC6B",
":. c #82A866",
">. c #8BB56C",
",. c #8DB673",
"<. c #95BC77",
"1. c #8AA96C",
"2. c #99C273",
"3. c #384CA1",
"4. c #5B709B",
"5. c #4459A5",
"6. c #637BA4",
"7. c #576BAD",
"8. c #7D8583",
"9. c #7F8985",
"0. c #789297",
"q. c #7188AC",
"w. c #798DCA",
"e. c #818683",
"r. c #828A85",
"t. c #848B8A",
"y. c #898F8B",
"u. c #8B928D",
"i. c #879686",
"p. c #8C9493",
"a. c #8E9995",
"s. c #8D9796",
"d. c #909694",
"f. c #939A96",
"g. c #939C9B",
"h. c #999F9D",
"j. c #929F8C",
"k. c #88A585",
"l. c #9ABA8A",
"z. c #9AA29F",
"x. c #97A999",
"c. c #849DB7",
"v. c #97A1A0",
"b. c #9BA4A3",
"n. c #9EA9A6",
"m. c #9EA9A8",
"M. c #9EB6A2",
"N. c #A2ACAB",
"B. c #A1A7A6",
"V. c #A5B1AE",
"C. c #A7BAAA",
"Z. c #A7B2B1",
"A. c #ABB5B4",
"S. c #ACBAB5",
"D. c #AEB9B8",
"F. c #B1BBBB",
"G. c #B0B9B5",
"H. c #A6AFB0",
"J. c #9CC581",
"K. c #A8CD89",
"L. c #B0D292",
"P. c #BCE19F",
"I. c #ACC4A9",
"U. c #AEC4B3",
"Y. c #AFC0BC",
"T. c #B5C8BC",
"R. c #B7D0AE",
"E. c #BFE0A8",
"W. c #C5E8AB",
"Q. c #CCF2AD",
"!. c #D8ECBC",
"~. c #D1F3BB",
"^. c #D6FEB6",
"/. c #CAE8B6",
"(. c #E2F3B6",
"). c #92A9C4",
"_. c #A6BCC6",
"`. c #ADC2C8",
"'. c #B6C2C1",
"]. c #BAC4C3",
"[. c #BCCDC3",
"{. c #BEC9C9",
"}. c #B4CBC6",
"|. c #BBCFCF",
" X c #C3CCCC",
".X c #C3D3CA",
"XX c #C5D9C7",
"oX c #CBD5D4",
"OX c #CCDCD4",
"+X c #C7D5D3",
"@X c #D2DCDB",
"#X c #D0DED5",
"$X c #DAF7C8",
"%X c #CBE5D8",
"&X c #D1E1D6",
"*X c #D4E3DC",
"=X c #D9E6DF",
"-X c #D9EDDD",
";X c #DCF3DC",
":X c #DDF6D8",
">X c #D3E7C8",
",X c #E3FCDC",
"<X c #E6FBD2",
"1X c #E2F7CC",
"2X c #C7D6E4",
"3X c #C0CCE8",
"4X c #D4E5EB",
"5X c #D9E7E4",
"6X c #DBF4E4",
"7X c #DDF4EA",
"8X c #DDF7E7",
"9X c #D6E7EB",
"0X c #E1ECEA",
"qX c #E0EBE7",
"wX c #E4FBE3",
"eX c #E4F2EC",
"rX c #EBFDEB",
"tX c #E7FCE5",
"yX c #F1FFEF",
"uX c #E0EDF4",
"iX c #ECF5F4",
"pX c #ECFBF5",
"aX c #EDFBFA",
"sX c #E5F5F4",
"dX c #F5FFFE",
"fX c #F8FFFF",
"gX c #F1FDF5",
/* pixels */
"                                                                                                                                ",
"                                                                                                                                ",
"                                                                                                                                ",
"                                                                                                                                ",
"                                                                                                                                ",
"                                                                                                                                ",
"                                                                                                                                ",
"                                                                                                                                ",
"                                                                              ,XyX                                              ",
"                                                                        >.%.J.L.W.$X<XtXrX                                      ",
"                                                                  :.,.2.{ { ,.,.] K.^.^.:XtXuX2X2X                              ",
"                                                          fX>X<.>.] { 2.<.%.o.` B } J.W.wX4Xw.q.q._.dXyXyX                      ",
"                                        pXpX        T.iXfXdXdXqXL.K.l.>.] N y y ) } X.#.k.M.U.}.[.XXQ.W.>XXXI.                  ",
"                                  dXdXaXrX:XeX*Xx._ C X.C.[.#XXXS.4XsXXXM.-.X.' ' { :.#.#.#.#.#.o.;.,.;.1.-.j.                  ",
"                              dXaXaXaXpX7X%X%X+X*XOXU.$.A #.i.C.*XiX@XT.XX=X#XI.l.K.>XR.k.k.o.%.>.%.' H G -.=.                  ",
"                        dXdXaXdXaX9X%X|.%X6X7X8X8X5X*X*X+XI.$.A X.x.}.&X#X=X.X#XwX*X[.I.J.J.J.%.D N N D N ..=.                  ",
"                    5XeXdXsX2X).7.5.).OX%X6XwXtXwX8X8X6X%X&X&X|.M.i.} A k.T.=X=XaXfXfXaX-Xl.B t t N N n m  .i.                  ",
"                iX5X XqXuXw.3.5.6.3XuXaXeX6X6X:X1X1X;XwX8X8X;X*X*X#XU.=.S v R x..XiXiX5XT...e t n t n t N ..i.                  ",
"              oXqXtXgXtXwX4X3XuXdXfXfXdXfXaXsX:X!.$X6X;X<X<X,XeX;X!.>X=XOXC.X.v v i.}.Y.n.G e t t y n n m G +.                  ",
"            oXdXfXtXgXgXdXfXfXfXdXfXdXdXdXdXfXaXpX7X6X:X1X<X8X7XtX,X:X+X.XOX2X$.4 A S.m.a.F t t q t m N Z O.                    ",
"            v.].0XdXfXfXfXdXfXdXdXfXdXdXdXdXdXdXfXdXpXsXwX&XR.B.[.OX%X*XT.@.m.@.9 R m.a.0.M 6 0 m _                             ",
"            p.d.B. XiXdXfXfXdXdXdXdXdXfXfXdXdXdXfXfXaXeX.Xx.x.C.[.OXT.a.T K v.R ; K v.9.! 8 9 t ` [ ` ' ' <.                    ",
"            v.g.p.s.H.oXiXfXdXfXfXfXfXfXfXfXfXdX0X5XT.U.C.T.@X#XS.y.! R @.P a.K = K 8.u 7 w B ` y ] ;.:.y ,.Q.$X1XrX5X          ",
"          b.N.N.b.g.d.h.F.=XdXfXfXdXfXfXfXiXqX|.I.XXM.OX=X=XG.y.@.T ^ ^ ! K 0.j = 5 : ; 6 c S ) B %.;.%.%.P.~.$XtX0XF.          ",
"            n.N.Z.N.b.g.s.b._.0XdXfXfX0X=XC. XC.I.#X#X#XG.h.*.+.^ ^ @.! T J ( 7 @ ; 8 g 8 u v } <.2.K.L.W.~.$X,XeXT.F.          ",
"            n.B.n.H.Z.N.b.g.g.B. XsXfX#XF.z.[.OX=X@XG.f.y.y.e.+.^ ^ ^ R V 7 7 5 8 C S v S X.J.E.W.Q.Q.Q.Q.$X,XpX{.F.A.          ",
"            g.b.m.m.Z.A.A.N.b.s.s.H.oXaXfXqX5XoXA.f.u.u.y.y.O.*.@.! T h < 5 g v C v v A X.U.7X%X|.%X%X8X,X,XpXoXA.D.N.          ",
"            g.g.v.b.m.V.A.D.Z.N.h.p.g.G.@X].B.f.d.d.d.f.d.*.e.6.+.^ C 7 8 C C C A A } } I.7X`.0.q.q.q.c.4XdX@XG.D.N.g.          ",
"            N.p.g.z.v.m.m.A.D.A.H.b.s.p.g.g.d.d.d.u.d.d.r.*.e.*.^ x b D ) B ) S v S ` l.;XwX_.0.4.4.0.0.4X5X_.G.N.g.u.          ",
"          A.+XN.p.g.v.v.m.m.Z.D.D.A.N.v.d.d.d.d.d.y.y.8.e.r.*.P , ; 6 t S ] :.' ) ` ) ;.P.>X;X%X`.`._.4X0X'.G.A.v.p.p.          ",
"          A. X Xv.t.s.v.v.m.n.m.A.D.A.A.g.d.d.y.t.r.( y.u.+.l : & 2 6 6 w e n ` ] %.:.o.;.K.W./.:X,XpXsX XA.N.v.p.p.            ",
"            D.{.v.Q Q s.g.g.b.n.b.H.D.A.d.y.y.t.*.( y.d.( k $ $ - 2 3 0 0 e t b m m N _ 1.K.P./.$XtXpX.XA.N.n.p.p.p.            ",
"            A.T.h.4.h l 9.g.g.g.B.b.B.H.h.y.t.y.e.u.u.~ s 1 $ $ ; 3 6 0 0 e t N H D m m W -.-.l.R.#XoXG.n.b.s.p.p.              ",
"            H._.V.p.I h h / g.g.g.b.B.h.d.d.y.y.d.u.~ p < , , 1 > 3 6 6 w 0 w t b M n N G *.j.-.y.f.N.B.b.s.p.p.Q               ",
"            Z.D.T.B.t.Q z h Q p.g.s.h.b.f.d.d.h.u.~ s i r p u u h 1 > 3 0 e t e e d b b D  .*.-.-.u.f.h.g.p.s.J z s.            ",
"              A. X_.b.0.Q z a h 6.s.p.d.d.h.B.y.U a u p p s a a l - @ # 3 0 t b d e d b H W ..W *.j.f.h.y.g./ z p.N.            ",
"              A. X XN.^ V T f s f ^ u.d.f.h.e.U a r s f f s a a l 1 o X $ & 0 t b d M n G  . .O.*.*.u.y.d.y.J p.N.F.A.          ",
"              A.F.oXF.@.! ^ @.8.U V U e.d.r.U f a s f f s s p p h * o + . . + = q b b M _  .*.$.*.( ( y.s.~ p.N.F.Z.b.          ",
"                A.OX@XS.B.g.r.~ L l z L ( ~ h f f f f f i < - $ * O X o o X + . X : e b H W O.=.=.*.*.d.t.s.B.D.N.h.g.          ",
"                A.{.'.v.8.~ Q U L I L V l k k k k k h i - $ $ $ * $ $ $ O O o X X + @ > M G Y Y *.y.y.y.p.b.H.m.h.d.t.          ",
"                A.B.( ~ ~ / ~ U Q L V l l l l k h a < 1 & & - > > ; = & # @ @ @ @ * * O % s R | | r.y.t.v.H.v.g.p.9.r.          ",
"                  d.( / ( / ~ I L L L U L l k f < < < < - - > > 4 6 0 3 ; $ = = ; 7 7 1 % O 1 F +.e.t.g.n.v.g.p.9.8.            ",
"                  y./ / ~ ~ I L I U U F V           < < - - > > 3 6 0 0 e 0 4 2 0 t M V k a u i T u.s.v.g.g.y.9.6.(             ",
"                  e.( / ~ ~ U Q U U L                 < - - > 2 2 6 0 0 e t c e q t F H Y | 8.e.( p.g.s.s.t.9.8.|               ",
"                  +.( ( ( +./ T P                         > 2 3 6 6 0 w t b d b n _ .. .i.x.b.z.s.s.s.p.t.e.8./                 ",
"                    ( r.e.Q U                                 2 3 6 6 0 c b M M m W | -.z.V.N.b.h.p.p.e.t.e./                   ",
"                    ( (                                         2 3 0 0 0 q e b m W *.*.j.V.B.g.s.p.e.t.r.(                     ",
"                                                                  0 0 0 q 0 q q b Y | *.y.z.h.d.p.9.t.9.(                       ",
"                                                                      e q q q q b F G E *.s.s.y.8.t.6.(                         ",
"                                                                        q q d d F G Y E ^ y.p.t.t.8.(                           ",
"                                                                            e d H Y E E E ( e.t.e.(                             ",
"                                                                              M F F Y | E ( t.8./                               ",
"                                                                                G F F E ( +.e.~                                 ",
"                                                                                  Y Y R ( *.~                                   ",
"                                                                                      ^ ^ ^ (                                   ",
"                                                                                        e.                                      ",
"                                                                                                                                ",
"                                                                                                                                ",
"                                                                                                                                ",
"                                                                                                                                ",
"                                                                                                                                ",
"                                                                                                                                ",
"                                                                                                                                ",
"                                                                                                                                "
};
