/* XPM */
static char *result[] = {
/* columns rows colors chars-per-pixel */
"64 64 116 2 ",
"   c #323232",
".  c gray20",
"X  c #3E3433",
"o  c #473433",
"O  c #603935",
"+  c #763C36",
"@  c #694C39",
"#  c #725540",
"$  c #7B5E48",
"%  c #696154",
"&  c #803B34",
"*  c #813D36",
"=  c #8F3C33",
"-  c #BA4539",
";  c #CD4234",
":  c #CC4334",
">  c #CD4335",
",  c #CE4335",
"<  c #C24639",
"1  c #D14436",
"2  c #D34536",
"3  c #D64637",
"4  c #DA4738",
"5  c #D0483A",
"6  c #DD4839",
"7  c #DE4939",
"8  c #DB543F",
"9  c #E34A3B",
"0  c #E74C3C",
"q  c #85674F",
"w  c #8E7157",
"e  c #A17C4F",
"r  c #CF5C42",
"t  c #E85543",
"y  c #EA5E4A",
"u  c #C46445",
"i  c #CB6C57",
"p  c #EB6751",
"a  c #ED7159",
"s  c #EE7A60",
"d  c #27B061",
"f  c #27B062",
"g  c #28B061",
"h  c #28B162",
"j  c #29B664",
"k  c #29B765",
"l  c #2ABB67",
"z  c #2BBE69",
"x  c #35B56B",
"c  c #739C5D",
"v  c #45BC6A",
"b  c #50B467",
"n  c #42BA75",
"m  c #50BF7F",
"M  c #67A460",
"N  c #39C46D",
"B  c #2DCC70",
"V  c #2ECC70",
"C  c #2ECC71",
"Z  c #48CE79",
"A  c #55C072",
"S  c #8A8C56",
"D  c #A38557",
"F  c #A18366",
"G  c #A68B6B",
"H  c #AA8C6D",
"J  c #B49675",
"K  c #B49976",
"L  c #BD9F7C",
"P  c #89B373",
"I  c #90B173",
"U  c #E48B6B",
"Y  c #F18C6F",
"T  c #F39676",
"R  c #F49F7D",
"E  c #62D181",
"W  c #6FD285",
"Q  c #78CE9C",
"!  c #C6A884",
"~  c #D0B18B",
"^  c #D7B692",
"/  c #D6BD92",
"(  c #D6BC93",
")  c #D7BC93",
"_  c #D7BD93",
"`  c #D9BB93",
"'  c #D5BD98",
"]  c #F6A885",
"[  c #8CD58D",
"{  c #E1C59A",
"}  c #E2C49A",
"|  c #E6CA9E",
" . c #EECC9E",
".. c #FAC49B",
"X. c #E8CCA0",
"o. c #ECCDA2",
"O. c #FCCDA2",
"+. c #E4DDA9",
"@. c #F0D2A5",
"#. c #F2D5A7",
"$. c #F5D6A9",
"%. c #F5D7A9",
"&. c #FDD6A9",
"*. c #F1DEAD",
"=. c #FADBAD",
"-. c #FCDDAF",
";. c #FFE0B0",
":. c #FFE0B1",
">. c #AEE1C4",
",. c #BBE6CD",
"<. c #C9EBD7",
"1. c #D6F0E1",
"2. c #E4F5EB",
"3. c #F1FAF5",
"4. c white",
"5. c None",
/* pixels */
"5.5.5.5.5.5.5.5.5.5.5.5.5.5.5.5.5.5.5.5.5.5.5.5.5.5.5.5.5.5.5.5.5.5.5.5.5.5.5.5.5.5.5.5.5.5.5.5.5.5.5.5.5.5.5.5.5.5.5.5.5.5.5.5.",
"5.5.5.5.5.5.5.5.5.5.5.5.5.5.5.5.5.5.5.5.5.5.5.5.5.5.5.5.5.5.5.5.5.5.5.5.5.5.5.5.5.5.5.5.5.5.5.5.5.5.5.5.5.5.5.5.5.5.5.5.5.5.5.5.",
"5.5.5.5.5.5.5.5.5.5.5.5.5.5.5.5.5.5.5.5.5.5.5.5.5.5.5.5.5.5.5.5.5.5.5.5.5.5.5.5.5.5.5.5.5.5.5.5.5.5.5.5.5.5.5.5.5.5.5.5.5.5.5.5.",
"5.5.5.5.5.5.5.5.5.5.5.5.5.5.5.5.5.5.5.5.5.5.5.5.5.5.5.5.5.5.5.5.5.5.5.5.5.5.5.5.5.5.5.5.5.5.5.5.5.5.5.5.5.5.5.5.5.5.5.5.5.5.5.5.",
"5.5.5.5.5.5.5.5.5.5.5.5.5.5.5.5.5.5.5.5.5.5.5.5.5.5.5.5.5.5.5.5.5.5.5.5.5.5.5.5.5.5.5.5.5.5.5.5.5.5.5.5.5.5.5.5.5.5.5.5.5.5.5.5.",
"5.5.5.5.5.5.5.5.5.5.5.5.5.5.5.5.5.5.5.5.5.5.5.5.5.5.5.5.5.5.5.5.5.5.5.5.5.5.5.5.5.5.5.5.5.5.5.5.5.5.5.5.5.5.5.5.5.5.5.5.5.5.5.5.",
"5.5.5.5.5.5.5.5.5.5.5.5.5.5.5.5.5.5.5.5.5.5.5.5.5.5.5.5.5.5.5.5.5.5.5.5.5.5.5.5.5.5.5.5.5.5.5.5.5.5.5.5.5.5.5.5.5.5.5.5.5.5.5.5.",
"5.5.5.5.5.5.5.5.5.5.5.5.5.5.5.5.5.5.5.5.5.5.5.5.f g g g g g g g g g g g g g g g 5.5.5.5.5.5.5.5.5.5.5.5.5.5.5.5.5.5.5.5.5.5.5.5.",
"5.5.5.5.5.5.5.5.5.5.5.5.5.5.5.5.5.5.f g h h h h h h h h h h h h h h h h h h h h h h h h d g 5.5.5.5.5.5.5.5.5.5.5.5.5.5.5.5.5.5.",
"5.5.5.5.5.5.5.5.5.5.5.5.5.5.5.5.d h h h h h h h h h h h h h h h h h h h h h h h h h h h h h h d 5.5.5.5.5.5.5.5.5.5.5.5.5.5.5.5.",
"5.5.5.5.5.5.5.5.5.5.5.5.5.5.5.h h h h h h h h h h h h h h h h h h h h h h h h h h h h h h h h h h 5.5.5.5.5.5.5.5.5.5.5.5.5.5.5.",
"5.5.5.5.5.5.5.5.5.5.5.5.5.5.g h h h h h h h h h h h h h h h h h h h h h h h h h h h h h h h h h h g 5.5.5.5.5.5.5.5.5.5.5.5.5.5.",
"5.5.5.5.5.5.5.5.5.5.5.5.5.5.h h h h h h h h h h h h h h h h h h h h h h h h h h h h h h h h h h h h 5.5.5.5.5.5.5.5.5.5.5.5.5.5.",
"5.5.5.5.5.5.5.5.5.5.5.5.5.5.h h h h h h h h h h h h h x Q ,.<.<.<.<.,.Q h h h h h h h h h h h h h h 5.5.5.5.5.5.5.5.5.5.5.5.5.5.",
"5.5.5.5.5.5.5.5.5.5.5.5.5.5.h h h h h h h h h h h h Q 2.4.4.4.4.4.4.4.4.1.m h h h h h h h h h h h h 5.5.5.5.5.5.5.5.5.5.5.5.5.5.",
"5.5.5.5.5.5.5.5.5.5.5.5.5.5.h h h h h h h h h h h m 3.4.4.4.4.4.4.4.4.4.4.2.m h h h h h h h h h h h 5.5.5.5.5.5.5.5.5.5.5.5.5.5.",
"5.5.5.5.5.5.5.5.5.5.5.5.5.5.h h h h h h h h h h n 3.4.4.4.4.4.4.4.4.4.4.4.4.1.x h h h h h h h h h h 5.5.5.5.5.5.5.5.5.5.5.5.5.5.",
"5.5.5.5.5.5.5.5.5.5.5.5.5.5.h h h h h h h h h h >.4.4.4.4.4.4.4.4.4.4.4.4.4.4.>.h h h h h h h h h h 5.5.5.5.5.5.5.5.5.5.5.5.5.5.",
"5.5.5.5.5.5.5.5.5.5.5.5.5.5.h h h h h h h h h h 3.4.4.4.4.4.4.4.4.4.4.4.4.4.4.3.h h h h h h h h h h 5.5.5.5.5.5.5.5.5.5.5.5.5.5.",
"5.5.5.5.5.5.5.5.5.5.5.5.5.5.h h j k k k k z z z z z z z z z z z z z z z z z z z z z z l k k k j h h 5.5.5.5.5.5.5.5.5.5.5.5.5.5.",
"5.5.5.5.5.5.5.5.5.5.5.5.5.5.C C C C C C C C C C C C C C C C C C C C C C C C C C C C C C C C C C C C 5.5.5.5.5.5.5.5.5.5.5.5.5.5.",
"5.5.5.5.5.5.5.5.5.5.5.5.5.5.C C C C C C C C C C C C C C C C C C C C C C C C C C C C C C C C C C C C 5.5.5.5.5.5.5.5.5.5.5.5.5.5.",
"5.5.5.5.5.5.5.5.5.5.5.5.5.5.C C C C C C C C C C C C C C C C C C C C C C C C C C C C C C C C C C C C 5.5.5.5.5.5.5.5.5.5.5.5.5.5.",
"5.5.5.5.5.5.5.5.5.5.5.5.5.5.V C C C C C C C C C C C C C C C C C C C C C C C C C C C C C C C C C C V 5.5.5.5.5.5.5.5.5.5.5.5.5.5.",
"5.5.5.5.5.5.5.5.5.5.5.5.5.5.5.C C C C C C C C C C C C C C C C C C C C C C C C C C C C C C C C C C 5.5.5.5.5.5.5.5.5.5.5.5.5.5.5.",
"5.5.5.5.5.5.5.5.5.5.5.5.5.5.5.@ @ @ o.:.:.:.:.:.:.:.:.:.:.:.:.:.:.:.:.:.:.:.:.:.:.:.:.:.:.:.F @ @ 5.5.5.5.5.5.5.5.5.5.5.5.5.5.5.",
"5.5.5.5.5.5.5.5.5.5.5.5.5.5.5.@ @ H :.:.:.:.:.:.:.:.:.:.:.:.:.:.:.:.:.:.:.:.:.:.:.:.:.:.:.:.o.@ @ 5.5.5.5.5.5.5.5.5.5.5.5.5.5.5.",
"5.5.5.5.5.5.5.5.5.5.5.5.5.( ) @ q $.:.:.:.} w w } :.:.:.:.:.:.:.:.:.:.:.:.:.:.} w w ` :.:.:.:.J @ ) ( 5.5.5.5.5.5.5.5.5.5.5.5.5.",
"5.5.5.5.5.5.5.5.5.5.5.5./ _ _ $ } :.:.:.:.w @ @ w :.:.:.:.:.:.:.:.:.:.:.:.:.:.w @ @ w :.:.:.:.:.q _ _ / 5.5.5.5.5.5.5.5.5.5.5.5.",
"5.5.5.5.5.5.5.5.5.5.5.) _ _ _ $.:.:.:.:.:.@ @ @ @ :.:.:.:.:.:.:.:.:.:.:.:.:.:.@ @ @ @ :.:.:.:.:.$._ _ _ ) 5.5.5.5.5.5.5.5.5.5.5.",
"5.5.5.5.5.5.5.5.5.5.5._ _ _ _ :.:.:.:.:.:.@ @ @ @ :.:.:.:.:.:.:.:.:.:.:.:.:.:.@ @ @ @ :.:.:.:.:.:._ _ _ _ 5.5.5.5.5.5.5.5.5.5.5.",
"5.5.5.5.5.5.5.5.5.5.5._ _ _ _ :.:.:.:.:.:.q @ @ q :.:.:.:.:.X.{ { | -.:.:.:.:.q @ @ q :.:.:.:.:.-._ _ _ _ 5.5.5.5.5.5.5.5.5.5.5.",
"5.5.5.5.5.5.5.5.5.5.5.) _ _ _ =.:.:.:.:.:.} # # } :.:.:.:.@._ _ _ _ X.:.:.:.:.} # @ ` :.:.:.:.:.%._ _ _ ) 5.5.5.5.5.5.5.5.5.5.5.",
"5.5.5.5.5.5.5.5.5.5.5.5./ _ _ %.:.:.:.:.:.:.:.:.:.:.:.o.L _ _ _ _ _ _ L } :.:.:.:.:.:.:.:.:.:.:.%._ _ / 5.5.5.5.5.5.5.5.5.5.5.5.",
"5.5.5.5.5.5.5.5.5.5.5.5.5.) _ @.:.:.:.:.:.:.:.:.:.:.~ @ @ G _ _ _ _ K @ @ ~ :.:.:.:.:.:.:.:.:.:.#._ ) 5.5.5.5.5.5.5.5.5.5.5.5.5.",
"5.5.5.5.5.5.5.5.5.5.5.5.5.5.5.5.:.:.:.:.:.:.:.:.:.` @ @ @ @ @ @ @ @ @ @ @ @ ! :.:.:.:.:.:.:.:.:.5.5.5.5.5.5.5.5.5.5.5.5.5.5.5.5.",
"5.5.5.5.5.5.5.5.5.5.5.5.5.5.5.5.:.:.:.:.:.:.:.:.:.$ @ @ @ @ @ @ @ @ @ @ @ @ # :.:.:.:.:.:.:.:.:.5.5.5.5.5.5.5.5.5.5.5.5.5.5.5.5.",
"5.5.5.5.5.5.5.5.5.5.5.5.5.5.5.5.:.:.:.:.:.:.:.:.:.# @ @ @ @ @ @ @ @ @ @ @ @ # :.:.:.:.:.:.:.:.:.5.5.5.5.5.5.5.5.5.5.5.5.5.5.5.5.",
"5.5.5.5.5.5.5.5.5.5.5.5.5.5.5.5.;.:.:.:.:.:.:.:.:.o.J w @ @ @ @ @ @ @ @ w J o.:.:.:.:.:.:.:.:.;.5.5.5.5.5.5.5.5.5.5.5.5.5.5.5.5.",
"5.5.5.5.5.5.5.5.5.5.5.5.5.5.5.B A O.:.:.:.:.:.:.:.:.:.:.:.:.:.:.:.:.:.:.:.:.:.:.:.:.:.:.:.:.O.P B 5.5.5.5.5.5.5.5.5.5.5.5.5.5.5.",
"5.5.5.5.5.5.5.5.5.5.5.5.5.5.C C C D a a a a a a I E E E E E E E E E E E E E E I a a a a a a t e C C 5.5.5.5.5.5.5.5.5.5.5.5.5.5.",
"5.5.5.5.5.5.5.5.5.5.5.5.5.V C C C C S 0 0 0 0 0 r N C C C C C C C C C C C C N r 0 0 0 0 0 0 0 0 v C V 5.5.5.5.5.5.5.5.5.5.5.5.5.",
"5.5.5.5.5.5.5.5.5.5.5.5.B C C C E E Z c 8 0 0 0 0 r b C C C C C C C C C C b r 0 0 0 0 0 0 0 0 0 c C C B 5.5.5.5.5.5.5.5.5.5.5.5.",
"5.5.5.5.5.5.5.5.5.5.5.5.V C W *.:.:.:.:. .p 0 0 0 0 0 u M N C C C C N M u 0 0 0 0 0 0 0 0 0 0 0 U W C V 5.5.5.5.5.5.5.5.5.5.5.5.",
"5.5.5.5.5.5.5.5.5.5.5.5.C W :.:.:.:.:.:.:.O.0 0 0 0 0 0 0 0 0 0 0 0 0 0 0 0 0 0 0 0 0 0 0 0 0 0 a :.W C 5.5.5.5.5.5.5.5.5.5.5.5.",
"5.5.5.5.5.5.5.5.5.5.5.5.V +.:.:.:.:.:.:.:.:.0 0 0 0 0 0 0 0 0 0 0 0 0 0 0 0 0 0 0 0 0 0 0 0 0 0 a :.+.V 5.5.5.5.5.5.5.5.5.5.5.5.",
"5.5.5.5.5.5.5.5.5.5.5.5.[ :.:.:.:.:.:.:.:.:.0 0 0 0 0 0 9 4 2 2 2 2 4 9 0 0 0 0 0 0 0 0 0 0 0 0 a :.:.[ 5.5.5.5.5.5.5.5.5.5.5.5.",
"5.5.5.5.5.5.5.5.5.5.5.5.5.:.:.:.:.:.:.:.:...0 0 0 0 0 4 > > > > > > > > 4 0 0 0 0 0 0 0 0 0 0 0 a :.:.5.5.5.5.5.5.5.5.5.5.5.5.5.",
"5.5.5.5.5.5.5.5.5.5.5.5.5.:.:.:.:.:.:.:.:.R 0 0 0 0 6 > > > > > > > > > > 6 0 0 0 0 0 0 0 0 0 0 s :.:.5.5.5.5.5.5.5.5.5.5.5.5.5.",
"5.5.5.5.5.5.5.5.5.5.5.5.5.:.:.:.:.:.:.:.&.y 0 0 0 9 , > > > > > > > > > > , < + O O O O * 5 0 0 T :.:.5.5.5.5.5.5.5.5.5.5.5.5.5.",
"5.5.5.5.5.5.5.5.5.5.5.5.5.;.:.:.:.:.:.:.s 0 0 0 0 1 > > > > > > > > > > > & . . . . . . . . - 0 O.:.;.5.5.5.5.5.5.5.5.5.5.5.5.5.",
"5.5.5.5.5.5.5.5.5.5.5.5.5.5.;.:.:.:.:.] 0 0 0 0 7 > > ; : 5.5.5.5.5.5.: = . . . . . . . . . X i :.;.5.5.5.5.5.5.5.5.5.5.5.5.5.5.",
"5.5.5.5.5.5.5.5.5.5.5.5.5.5.5.;.' ^ Y 0 0 0 0 0 3 > & o 5.5.5.5.5.5.5.5.  . . . . . . . . . . % ;.5.5.5.5.5.5.5.5.5.5.5.5.5.5.5.",
"5.5.5.5.5.5.5.5.5.5.5.5.5.5.5.5.. . . . . . . . . . . . 5.5.5.5.5.5.5.5.. . . . . . . . . . . . 5.5.5.5.5.5.5.5.5.5.5.5.5.5.5.5.",
"5.5.5.5.5.5.5.5.5.5.5.5.5.5.5.5.. . . . . . . . . . . . 5.5.5.5.5.5.5.5.. . . . . . . . . . . . 5.5.5.5.5.5.5.5.5.5.5.5.5.5.5.5.",
"5.5.5.5.5.5.5.5.5.5.5.5.5.5.5.5.5.. . . . . . . . . . . 5.5.5.5.5.5.5.5.. . . . . . . . . . . 5.5.5.5.5.5.5.5.5.5.5.5.5.5.5.5.5.",
"5.5.5.5.5.5.5.5.5.5.5.5.5.5.5.5.5.5.5..   . . .     5.5.5.5.5.5.5.5.5.5.5.5.  . . . . .   5.5.5.5.5.5.5.5.5.5.5.5.5.5.5.5.5.5.5.",
"5.5.5.5.5.5.5.5.5.5.5.5.5.5.5.5.5.5.5.5.5.5.5.5.5.5.5.5.5.5.5.5.5.5.5.5.5.5.5.5.5.5.5.5.5.5.5.5.5.5.5.5.5.5.5.5.5.5.5.5.5.5.5.5.",
"5.5.5.5.5.5.5.5.5.5.5.5.5.5.5.5.5.5.5.5.5.5.5.5.5.5.5.5.5.5.5.5.5.5.5.5.5.5.5.5.5.5.5.5.5.5.5.5.5.5.5.5.5.5.5.5.5.5.5.5.5.5.5.5.",
"5.5.5.5.5.5.5.5.5.5.5.5.5.5.5.5.5.5.5.5.5.5.5.5.5.5.5.5.5.5.5.5.5.5.5.5.5.5.5.5.5.5.5.5.5.5.5.5.5.5.5.5.5.5.5.5.5.5.5.5.5.5.5.5.",
"5.5.5.5.5.5.5.5.5.5.5.5.5.5.5.5.5.5.5.5.5.5.5.5.5.5.5.5.5.5.5.5.5.5.5.5.5.5.5.5.5.5.5.5.5.5.5.5.5.5.5.5.5.5.5.5.5.5.5.5.5.5.5.5.",
"5.5.5.5.5.5.5.5.5.5.5.5.5.5.5.5.5.5.5.5.5.5.5.5.5.5.5.5.5.5.5.5.5.5.5.5.5.5.5.5.5.5.5.5.5.5.5.5.5.5.5.5.5.5.5.5.5.5.5.5.5.5.5.5.",
"5.5.5.5.5.5.5.5.5.5.5.5.5.5.5.5.5.5.5.5.5.5.5.5.5.5.5.5.5.5.5.5.5.5.5.5.5.5.5.5.5.5.5.5.5.5.5.5.5.5.5.5.5.5.5.5.5.5.5.5.5.5.5.5.",
"5.5.5.5.5.5.5.5.5.5.5.5.5.5.5.5.5.5.5.5.5.5.5.5.5.5.5.5.5.5.5.5.5.5.5.5.5.5.5.5.5.5.5.5.5.5.5.5.5.5.5.5.5.5.5.5.5.5.5.5.5.5.5.5."
};
