/* XPM */
static char *result[] = {
/* columns rows colors chars-per-pixel */
"64 64 248 2 ",
"   c #27110F",
".  c #381A16",
"X  c #2B1412",
"o  c #3C221E",
"O  c #3D2926",
"+  c #48241D",
"@  c #55251E",
"#  c #4D2B25",
"$  c #472722",
"%  c #552C23",
"&  c #582D28",
"*  c #4C3328",
"=  c #5C332A",
"-  c #573528",
";  c #4D3935",
":  c #583D37",
">  c #642D24",
",  c #672F28",
"<  c #64342B",
"1  c #6B352C",
"2  c #64392D",
"3  c #673528",
"4  c #773A2D",
"5  c #643B34",
"6  c #6B3B33",
"7  c #673834",
"8  c #733D33",
"9  c #7B3E32",
"0  c #723A37",
"q  c #701E15",
"w  c #57423A",
"e  c #4F403A",
"r  c #6B423B",
"t  c #674339",
"y  c #754235",
"u  c #7C4235",
"i  c #7C443B",
"p  c #76483B",
"a  c #7F503E",
"s  c #513E40",
"d  c #594744",
"f  c #585454",
"g  c #574C4C",
"h  c #6D4C43",
"j  c #664A47",
"k  c #734D45",
"l  c #794B45",
"z  c #68524B",
"x  c #75544B",
"c  c #7A5349",
"v  c #685757",
"b  c #765A55",
"n  c #77625C",
"m  c #6E615F",
"M  c #6E5961",
"N  c #6B6364",
"B  c #786767",
"V  c #7B777C",
"C  c #85372C",
"Z  c #873831",
"A  c #973C3A",
"S  c #933D2F",
"D  c #812213",
"F  c #844335",
"G  c #83433A",
"H  c #84493C",
"J  c #8D4C3D",
"K  c #8B4537",
"L  c #924C3E",
"P  c #9B4D3E",
"I  c #954538",
"U  c #97513E",
"Y  c #8D523D",
"T  c #A84C3B",
"R  c #844D43",
"E  c #884C43",
"W  c #934D42",
"Q  c #9A4E44",
"!  c #944A46",
"~  c #8D5242",
"^  c #8D5C4E",
"/  c #865548",
"(  c #935245",
")  c #9B5343",
"_  c #9C564B",
"`  c #965B4E",
"'  c #9C5B4C",
"]  c #975848",
"[  c #8B5C53",
"{  c #835751",
"}  c #985D52",
"|  c #A25445",
" . c #A55946",
".. c #AB5C46",
"X. c #A2564B",
"o. c #A9564A",
"O. c #A45B4C",
"+. c #AB5D4B",
"@. c #B25E4B",
"#. c #B45A46",
"$. c #A35C52",
"%. c #AB5B51",
"&. c #B45F54",
"*. c #A44A45",
"=. c #9C614D",
"-. c #84645D",
";. c #896358",
":. c #9C6253",
">. c #9C6A5B",
",. c #96675B",
"<. c #8F705E",
"1. c #A5614D",
"2. c #AC614C",
"3. c #B4634D",
"4. c #BB634D",
"5. c #BA684D",
"6. c #A46353",
"7. c #AB6453",
"8. c #AC6A56",
"9. c #AC6559",
"0. c #A36B5C",
"q. c #AD6C5C",
"w. c #A36856",
"e. c #B36453",
"r. c #BB6553",
"t. c #B56A55",
"y. c #BB6A54",
"u. c #BB655A",
"i. c #B46C5B",
"p. c #BC6C5B",
"a. c #B5665A",
"s. c #BD715C",
"d. c #B87157",
"f. c #AE715E",
"g. c #8B6C65",
"h. c #866A66",
"j. c #966C63",
"k. c #8A736A",
"l. c #997468",
"z. c #887876",
"x. c #957B75",
"c. c #846970",
"v. c #A86E62",
"b. c #B76E61",
"n. c #AC7263",
"m. c #A77568",
"M. c #B37262",
"N. c #BD7363",
"B. c #BB7969",
"V. c #A77A74",
"C. c #B27C74",
"Z. c #C26A4E",
"A. c #C2664E",
"S. c #C26652",
"D. c #C36B53",
"F. c #CA6C52",
"G. c #C36D5A",
"H. c #CA6E5B",
"J. c #C3665A",
"K. c #C57254",
"L. c #CB7255",
"P. c #C3725D",
"I. c #CC725C",
"U. c #C87B5E",
"Y. c #D1755C",
"T. c #D2795E",
"R. c #C46C62",
"E. c #C37463",
"W. c #CD7462",
"Q. c #C57A63",
"!. c #CB7A64",
"~. c #C47B6C",
"^. c #CB7B6B",
"/. c #CB7669",
"(. c #D17564",
"). c #D37B65",
"_. c #D37C6B",
"`. c #DA7E6E",
"'. c #C57F70",
"]. c #D37F72",
"[. c #D97E71",
"{. c #AC847A",
"}. c #B2887D",
"|. c #BF806C",
" X c #93807C",
".X c #C6816E",
"XX c #CC856C",
"oX c #CC896E",
"OX c #CF8061",
"+X c #D58165",
"@X c #D4836B",
"#X c #D9836C",
"$X c #D7866A",
"%X c #CB8573",
"&X c #C88773",
"*X c #D48372",
"=X c #D98373",
"-X c #D48B74",
";X c #DD8B7A",
":X c #D78A78",
">X c #DB9279",
",X c #E1907D",
"<X c #99898A",
"1X c #97939A",
"2X c #948A8D",
"3X c #A68B8A",
"4X c #A6938D",
"5X c #A99997",
"6X c #B2908E",
"7X c #A89CA4",
"8X c #ADA5AC",
"9X c #B5A9A9",
"0X c #B6ABB4",
"qX c #BAB3B6",
"wX c #BFB3AE",
"eX c #BAA195",
"rX c #D99484",
"tX c #C29991",
"yX c #D8A296",
"uX c #C4B4AD",
"iX c #C7BAB9",
"pX c #E4B2A6",
"aX c #DFC4BE",
"sX c #C7BFC5",
"dX c #CAC5C9",
"fX c #D4CACA",
"gX c #DCDADC",
"hX c #D8D4D8",
"jX c #D1CCD1",
"kX c #E6DDDC",
"lX c #F1DFD9",
"zX c #DCDDE1",
"xX c #E1DFE1",
"cX c #F0DFE0",
"vX c #E3E2E4",
"bX c #EAE5E5",
"nX c #E5E4E9",
"mX c #EDEAEA",
"MX c #E8E6E8",
"NX c #F1EDED",
"BX c #F0E6E5",
"VX c #F0EFF2",
"CX c #F5F4F5",
"ZX c #FEFEFE",
"AX c #F7F6F8",
"SX c #F3F1EF",
"DX c #E8E2DF",
"FX c None",
/* pixels */
"FXFXFXFXFXFXFXFXFXFXFXFXFXFXFXFXFXFXFXFXFXFXZXZXZXZXZXZXZXZXZXZXZXZXZXFXFXFXFXFXFXFXFXFXFXFXFXFXFXFXFXFXFXFXFXFXFXFXFXFXFXFXFXFX",
"FXFXFXFXFXFXFXFXFXFXFXFXFXFXFXFXFXFXFXZXZXZXZXAXCXBXBXDXkXDXBXSXAXAXAXZXZXZXZXFXFXFXFXFXFXFXFXFXFXFXFXFXFXFXFXFXFXFXFXFXFXFXFXFX",
"FXFXFXFXFXFXFXFXFXFXFXFXFXFXFXFXFXFXZXAXMXhXfXiXwX9XwXuXuXuXuXuXiXiXfXjXxXVXZXZXZXFXFXFXFXFXFXFXFXFXFXFXFXFXFXFXFXFXFXFXFXFXFXFX",
"FXFXFXFXFXFXFXFXFXFXFXFXFXFXFXFXZXZXAXjX0X9X5X5X5X4X4X4X6X5X5X4X4X5X5XeX9X0XhXAXZXZXZXZXFXFXFXFXFXFXFXFXFXFXFXFXFXFXFXFXFXFXFXFX",
"FXFXFXFXFXFXFXFXFXFXFXFXFXFXFXZXAXnXdX8X8X<Xz.k.k.g.g.g.g.k.l.x. Xk.x. X<X<X5XdXCXZXZXZXZXZXFXFXFXFXFXFXFXFXFXFXFXFXFXFXFXFXFXFX",
"FXFXFXFXFXFXFXFXFXFXFXFXFXFXZXAXjX0X7X2Xk.n x c / { { [ ^ ;.,.<.<.<.h.-.;.-.V 1XsXzXnXVXZXZXZXFXFXFXFXFXFXFXFXFXFXFXFXFXFXFXFXFX",
"FXFXFXFXFXFXFXFXFXFXFXFXFXZXVXqX5X<Xk.n x c / =.` ` ` ] =.:.v.>.{.eXeXk.;.-.b B  X2X5XqXhXAXZXZXFXFXFXFXFXFXFXFXFXFXFXFXFXFXFXFX",
"FXFXFXFXFXFXFXFXFXFXFXFXZXgX8X2Xz.g.c / ^ =.=.1.w.6.6.' ' 6.9.:.f.}.tX{.<.>.,.;.n B k.<X5XsXAXZXFXFXFXFXFXFXFXFXFXFXFXFXFXFXFXFX",
"FXFXFXFXFXFXFXFXFXFXFXZXgX1Xz.m v c Y =.1.1.=.1.7.8.7.6.1.1.2...1.w.8.w.w.8.w.>.;.x z m k. XfXZXZXFXFXFXFXFXFXFXFXFXFXFXFXFXFXFX",
"FXFXFXFXFXFXFXFXFXFXZXxX2XB z d t Y =.2.5.5.5.d.5.3.2.5.t.3.3.3.5.2.1.1.8.d.8.f.w.=.t w z n  XvXZXFXFXFXFXFXFXFXFXFXFXFXFXFXFXFX",
"FXFXFXFXFXFXFXFXFXZXAX7Xm g d ; p 1.d.5.d.5.5.5.K.D.Z.Z.Z.Z.A.A.A.5.3.5.r.d.d.d.f.0.^ t w b z 0XZXZXFXFXFXFXFXFXFXFXFXFXFXFXFXFX",
"FXFXFXFXFXFXFXFXFXZXgXN j e * 2 =.5.K.K.K.K.K.L.L.L.L.L.F.F.F.F.F.A.4.4.4.t.t.i.f.d.=.a w w z k.hXZXFXFXFXFXFXFXFXFXFXFXFXFXFXFX",
"FXFXFXFXFXFXFXFXFXZX1Xw d e - Y d.K.K.K.L.L.T.Y.T.T.T.L.F.L.F.F.F.Z.S.A.4.4.4.r.y.i.q.:.p : d j 5XAXZXFXFXFXFXFXFXFXFXFXFXFXFXFX",
"FXFXFXFXFXFXFXFXZXmXf e w w p 5.K.K.K.K.L.OXT.T.T.T.T.T.Y.Y.Y.L.F.F.F.S.A.A.&.3.e.t.8.n.,.r e d B jXZXZXFXFXFXFXFXFXFXFXFXFXFXFX",
"FXFXFXFXFXFXFXFXZXjXe e e t :.|.OX.XOXOXOXOX+X+X#X#X#X).T.Y.T.Y.Y.F.D.Z.S.4.4.3.2.7.7.q.m.{ w ; d 8XZXZXFXFXFXFXFXFXFXFXFXFXFXFX",
"FXFXFXFXFXFXFXFXZX1Xe w w a d.OXOXoXoXOX+X+X$X+X+X+X+X+XT.!.T.I.L.L.D.S.S.S.4.@...+.O.6.m.l.x : * V CXZXFXFXFXFXFXFXFXFXFXFXFXFX",
"FXFXFXFXFXFXFXZXAXV e d r 0..XOXoXoXoXoXoX$X$X$X@X#X).).T.T.T.I.I.L.D.D.D.4.4.3.+. . .6.n.}.j.j * f MXZXFXFXFXFXFXFXFXFXFXFXFXFX",
"FXFXFXFXFXFXFXZXnXf d z <.|.&XoX&XXXoXoXoX$X$XoX#X#X).).).W.(.I.I.I.L.J.F.r.4.3...+. .O.w.V.}.b j N vXZXFXFXFXFXFXFXFXFXFXFXFXFX",
"FXFXFXFXFXFXFXZXgXg g n >.|.XXoXoXoXoXoX-X-X-X-X@X@X@X_.).W.(.W.(.I.I.H.H.J.S.4.@... . .' v.}.l.z V gXZXFXFXFXFXFXFXFXFXFXFXFXFX",
"FXFXFXFXFXFXFXZXgXf m -.m.|..XXX&X.XoX-X-X-X-X-X-X-X@X@X@X(./.I.I.H.H.H.G.S.S.4.@.@. . .' 0.m.l.x B hXZXFXFXFXFXFXFXFXFXFXFXFXFX",
"FXFXFXFXFXFXFXZXzXf N b >.B.~.'..X%X%X%X-X-X:X:X*X*X@X_._.W.W.H.H.W.R.(.H.G.S.r.4.3... .' :.>.j.x B gXZXFXFXFXFXFXFXFXFXFXFXFXFX",
"FXFXFXFXFXFXFXZXzXN N h.v.N.N.~.'..X~.%X%X-X*X*X*X@X*X*X_.).(.W.W.H.H.H.H.G.J.4.3.......' :.,.;.x v vXZXFXFXFXFXFXFXFXFXFXFXFXFX",
"FXFXFXFXFXFXFXZXxXN v h.m.M.N.E.~.~.'.^.^.^.%X%X].*X@X=X_._.(.W.(.(.(.W.H.I.H.S.3.#.#. .O.` ` ^ h m MXZXFXFXFXFXFXFXFXFXFXFXFXFX",
"FXFXFXFXFXFXFXZXnXf v c.j.q.N.p.~.^.~.^.^.^.^.].%X_.]._._.`.(.).).(.(.(.I.I.G.S.4.t.%.' ` :.^ l r v vXZXFXFXFXFXFXFXFXFXFXFXFXFX",
"FXFXFXFXFXFXFXZXvXf v B j.v.N.N.P.Q.E.^._.^.*X^.*X*X*X=X_._.(._.`.(.).`.(.H.H.G.p.7./ 7 r [ { R h v xXZXFXFXFXFXFXFXFXFXFXFXFXFX",
"FXFXFXFXFXFXFXFXCXV g M h.v.p.p.p.s.E.E./.^._._.*X*X=X:X=X`.)._.Y.(.(.(.Y.H.J.u.] r & O $ r [ / k M nXZXZXFXFXFXFXFXFXFXFXFXFXFX",
"FXFXFXFXFXFXFXFXZXqXg z -.0.d.y.y.s.P.W.W.!.^.XX].].;X;X;X=X).!.H.Y.Y.H.K.2.W 6 # o o o % 5 b ^ b N sXxXZXZXFXFXFXFXFXFXFXFXFXFX",
"FXFXFXFXFXFXFXFXZXcXB z ;.,.8.y.y.y.s.W._.^.i.=.6.M.b.9.v.9.i.P.r.I.H.S.2.p + . . . o $ 7 0 l { b b l.C.fXZXFXFXFXFXFXFXFXFXFXFX",
"FXFXFXFXFXZXZXZXZXAX3Xz -.,.w.p.y.y.P.Q.!.b.~ 2 5 2 % % % 1 H 2.3.G.Z.3.( > @ + > 8 0 = @ 2 0 { h z { S 6XAXZXFXFXFXFXFXFXFXFXFX",
"FXFXFXFXZXAXbXlXcXSXiX-.j.,.9.P.p.s.s.N.9.~ p - $ + . . . + > F  .G.Z...1 3 1 8 i l t = 2 6 8 R j 5 l D 3XAXZXFXFXFXFXFXFXFXFXFX",
"FXFXFXFXZXcXyXrXyXpXyXn.j.[ $.G.P.P.P.q.( ~ y 3 2 t l p > 3 4 L 2.Z.D.P > 4 u % * j.{.5 % y i / k 7 6 q 3XZXFXFXFXFXFXFXFXFXFXFX",
"FXFXFXFXZXaX#.o.M.%XrXtX,.{ w.p.G.P.U.1.Y J u p 5 $ x tX} 9 P | 3.K.L.| 9 Q O.p l C.}.;.1 8 G ` j.r , > iXZXFXFXFXFXFXFXFXFXFXFX",
"FXFXFXFXZXaXT T y.!.^.%X>./ w.s.P.P.P.1.) L F u h 5 j.tXn. .3...5.+X).5.J | 2...O.} ( u u E Y ' m.R & x mXZXFXFXFXFXFXFXFXFXFXFX",
"FXFXFXFXZXcX&.S #.+X-XE.9.^ i.E.!.P.P.8.1.Y P O.' [ 0.6._  ...3.).#X#XK.U U ) P I K Z F W ' 1.' >.i % 6XZXFXFXFXFXFXFXFXFXFXFXFX",
"FXFXFXFXZXCXV.C o.Z.p.t.M.v.f.^.^.!.P.y.2.2.t.+.| Q P P P | 3.P.$X;X;X!. .L U P ) U )  .+.%.1.' ( 4 > fXZXFXFXFXFXFXFXFXFXFXFXFX",
"FXFXFXFXFXZX9X9 J T S | '.B.f.N.Q.!.P.P.P.d.d.t.&.@.o. . .3.P.XX$X;X>X).2.Y )  .+.2.3.@.e.e.6.' E , 1 kXZXFXFXFXFXFXFXFXFXFXFXFX",
"FXFXFXFXFXZXMX;.4 F P D.%X.XM.e.r.P.P.P.E.!.P.E.G.3.3.@.r.W.!.+X+X>X>X(.i.]  .e.r.r.4.e.3.e.O.( R > l bXZXFXFXFXFXFXFXFXFXFXFXFX",
"FXFXFXFXFXFXZXhX<.i  .y.oXXXM.7.8.i.p.p.W.!.!.!.P.G.G.E./.=X@X).$X>XrX=Xs.O.| u.J.J.4.@.+.O.] E 0 , ;.NXZXFXFXFXFXFXFXFXFXFXFXFX",
"FXFXFXFXFXFXFXZXkXl.) e.Q.B.v.9.9.7.r.y.G.P.E.P.P.^.].].[.=X@X^.@X:X,X,X/.7.) r.R.H.J.a.%.) ~ l 6 1 x.CXZXFXFXFXFXFXFXFXFXFXFXFX",
"FXFXFXFXFXFXFXFXZXuX:.i.N.t.i.9.9.9.e.r.p.r.J.J.E.].=X].[.=X(.].@X-X,X;X].p.' +.J.J.u.&.X.W G 0 7 < <XAXZXFXFXFXFXFXFXFXFXFXFXFX",
"FXFXFXFXFXFXFXFXZXkXm.M.|.B.i.w.6.9.%.O.2.+.+.e.p./.].[.[._./.].-X:XrXrX].b.E P J.J.&.o.Q J i 7 > = <XZXFXFXFXFXFXFXFXFXFXFXFXFX",
"FXFXFXFXFXFXFXFXZXBX}.n.n.B.M.[ ` O.9.9.+.%.o.o.&.R./.].[.(.R.a.L ` ~.:XR.! , Z &.u.&.o._ ! 0 & * z.jXZXFXFXFXFXFXFXFXFXFXFXFXFX",
"FXFXFXFXFXFXFXFXZXbXV.j.>.,.;.d k Q %.9.7.&.&.e.u.N./._.(.(.[.b.} ! ! $.! 0 < ! %.&.u.O._ E < *  XMXZXZXFXFXFXFXFXFXFXFXFXFXFXFX",
"FXFXFXFXFXFXFXFXFXAX6Xc l k h 2XM l ' 9.%.&.a.E.E.N././.R.[.=X%X'.M.$.G 1 0 9 _ X.%.&.O.E 0 & b vXZXFXFXFXFXFXFXFXFXFXFXFXFXFXFX",
"FXFXFXFXFXFXFXFXFXZXkXB h t h.xX1Xj ] 7.e.e.a.p.N.~.^.R.'.%X%X'.'.~.a.$.` ( ( _ | ) _ ' F 2 & 5XZXFXFXFXFXFXFXFXFXFXFXFXFXFXFXFX",
"FXFXFXFXFXFXFXFXFXFXZXzXiXqXhXZXsXj R $.7.e.p.p.N././.N.'.~.B.~.~.N.%.$.9.$.X.$._ ( ( ' u 2 h fXZXFXFXFXFXFXFXFXFXFXFXFXFXFXFXFX",
"FXFXFXFXFXFXFXFXFXFXFXZXZXZXZXZXxXM l ` 7.e.i.E.~.^.N.N.E.b.b.i.b.a.$._ %.$._ ! G u J O.u < <XCXZXFXFXFXFXFXFXFXFXFXFXFXFXFXFXFX",
"FXFXFXFXFXFXFXFXFXFXFXFXFXFXFXFXAX2X7 R $.7.a.N.~.Q.p.b.$.6.9.%.&.a.9.e.%.! E 1 & , Q  .y t dXZXFXFXFXFXFXFXFXFXFXFXFXFXFXFXFXFX",
"FXFXFXFXFXFXFXFXFXFXFXFXFXFXFXFXZXdXk 0 E 7.t.s.Q.E.5.] G G ( ! A A A A Z C 4 9 9 R +._ 2 k kXZXFXFXFXFXFXFXFXFXFXFXFXFXFXFXFXFX",
"FXFXFXFXFXFXFXFXFXFXFXFXFXFXFXFXZXmXc.0 i ) 8.t.E.W.5.| ] 8.a.u.u.u.%.*.*.%.X.! ! ( O.H & n NXZXFXFXFXFXFXFXFXFXFXFXFXFXFXFXFXFX",
"FXFXFXFXFXFXFXFXFXFXFXFXFXFXFXFXFXZX7Xp H J ' 7.t.d.5.3.s.y.t.p.R.a.| Q *.! K J W ) P 1 * eXZXFXFXFXFXFXFXFXFXFXFXFXFXFXFXFXFXFX",
"FXFXFXFXFXFXFXFXFXFXFXFXFXFXFXFXFXZXhXc F L W ' 2.2.#.r.p.r.O.| ! G K ! ! Z K Q ) L u % z vXZXFXFXFXFXFXFXFXFXFXFXFXFXFXFXFXFXFX",
"FXFXFXFXFXFXFXFXFXFXFXFXFXFXFXFXFXFXAX<X9 L Y Y ' 1.@.y.G.y.3.+.Q ) X.X. . .%.o.L u = + 5XZXFXFXFXFXFXFXFXFXFXFXFXFXFXFXFXFXFXFX",
"FXFXFXFXFXFXFXFXFXFXFXFXFXFXFXFXFXFXZXjXk 9 L L ~ ` 7.4.5.S.G.S.J.R.b.a.e.3.3.) G & . v bXZXFXFXFXFXFXFXFXFXFXFXFXFXFXFXFXFXFXFX",
"FXFXFXFXFXFXFXFXFXFXFXFXFXFXFXFXFXFXZXAX4X7 u L J a R 1.r.5.G.G.G.r.&.O.....Q G = o d fXZXFXFXFXFXFXFXFXFXFXFXFXFXFXFXFXFXFXFXFX",
"FXFXFXFXFXFXFXFXFXFXFXFXFXFXFXFXFXFXFXZXMXx.1 F J i y p ' t.e.&.+.| ) Q ) L 9 = + z fXZXFXFXFXFXFXFXFXFXFXFXFXFXFXFXFXFXFXFXFXFX",
"FXFXFXFXFXFXFXFXFXFXFXFXFXFXFXFXFXFXFXFXZXvX-.< 8 u y 6 0 E ! Q ! G 0 p 0 7 & $ B kXZXFXFXFXFXFXFXFXFXFXFXFXFXFXFXFXFXFXFXFXFXFX",
"FXFXFXFXFXFXFXFXFXFXFXFXFXFXFXFXFXFXFXFXFXZXfXc = < 2 5 = % * * # + $ $ $ o . b vXZXFXFXFXFXFXFXFXFXFXFXFXFXFXFXFXFXFXFXFXFXFXFX",
"FXFXFXFXFXFXFXFXFXFXFXFXFXFXFXFXFXFXFXFXFXFXZXfXg.< & & # + .         X X   O qXZXFXFXFXFXFXFXFXFXFXFXFXFXFXFXFXFXFXFXFXFXFXFXFX",
"FXFXFXFXFXFXFXFXFXFXFXFXFXFXFXFXFXFXFXFXFXFXFXZXNXiX4Xx.x.k.h w ; ; ; z m z.0XVXZXFXFXFXFXFXFXFXFXFXFXFXFXFXFXFXFXFXFXFXFXFXFXFX",
"FXFXFXFXFXFXFXFXFXFXFXFXFXFXFXFXFXFXFXFXFXFXFXFXZXZXZXAXAXAXNXNXmXMXmXCXCXZXZXZXFXFXFXFXFXFXFXFXFXFXFXFXFXFXFXFXFXFXFXFXFXFXFXFX",
"FXFXFXFXFXFXFXFXFXFXFXFXFXFXFXFXFXFXFXFXFXFXFXFXFXFXFXFXFXFXFXFXFXFXFXFXFXFXFXFXFXFXFXFXFXFXFXFXFXFXFXFXFXFXFXFXFXFXFXFXFXFXFXFX",
"FXFXFXFXFXFXFXFXFXFXFXFXFXFXFXFXFXFXFXFXFXFXFXFXFXFXFXFXFXFXFXFXFXFXFXFXFXFXFXFXFXFXFXFXFXFXFXFXFXFXFXFXFXFXFXFXFXFXFXFXFXFXFXFX",
"FXFXFXFXFXFXFXFXFXFXFXFXFXFXFXFXFXFXFXFXFXFXFXFXFXFXFXFXFXFXFXFXFXFXFXFXFXFXFXFXFXFXFXFXFXFXFXFXFXFXFXFXFXFXFXFXFXFXFXFXFXFXFXFX"
};
