/* XPM */
static char *result[] = {
/* columns rows colors chars-per-pixel */
"64 64 248 2 ",
"   c #27110F",
".  c #381B16",
"X  c #2E1411",
"o  c #3C221E",
"O  c #3D2926",
"+  c #49251D",
"@  c #55251E",
"#  c #4C2A25",
"$  c #472723",
"%  c #552C23",
"&  c #5C2C24",
"*  c #542D2B",
"=  c #4C3328",
"-  c #5C332A",
";  c #573429",
":  c #4D3935",
">  c #573D37",
",  c #642D24",
"<  c #672F28",
"1  c #65342B",
"2  c #6B352C",
"3  c #64392D",
"4  c #673528",
"5  c #773A2D",
"6  c #653B34",
"7  c #6C3A32",
"8  c #673633",
"9  c #733D34",
"0  c #7A3D32",
"q  c #733B37",
"w  c #591F18",
"e  c #57423A",
"r  c #4F403A",
"t  c #6B423B",
"y  c #68453B",
"u  c #754235",
"i  c #7C4235",
"p  c #7D443B",
"a  c #77483A",
"s  c #7F503E",
"d  c #513E40",
"f  c #594744",
"g  c #585454",
"h  c #574C4C",
"j  c #6D4C43",
"k  c #664A47",
"l  c #734D45",
"z  c #784A45",
"x  c #68524B",
"c  c #75544C",
"v  c #7B534A",
"b  c #685757",
"n  c #775A55",
"m  c #77625C",
"M  c #6E615F",
"N  c #6E5961",
"B  c #6B6364",
"V  c #786767",
"C  c #7B777C",
"Z  c #85372C",
"A  c #873831",
"S  c #973C3A",
"D  c #933D2F",
"F  c #812213",
"G  c #844335",
"H  c #83433A",
"J  c #84493C",
"K  c #8D4C3D",
"L  c #8C4538",
"P  c #924C3E",
"I  c #9B4D3E",
"U  c #954538",
"Y  c #97513E",
"T  c #8D523D",
"R  c #A84C3B",
"E  c #844D43",
"W  c #884C43",
"Q  c #934D42",
"!  c #9A4E44",
"~  c #944A46",
"^  c #8D5242",
"/  c #8D5C4E",
"(  c #865548",
")  c #935245",
"_  c #9B5343",
"`  c #9C564B",
"'  c #965B4E",
"]  c #9C5B4C",
"[  c #975848",
"{  c #8C5C53",
"}  c #835751",
"|  c #995B52",
" . c #A25445",
".. c #A55946",
"X. c #AB5C46",
"o. c #A2564B",
"O. c #A9564A",
"+. c #A45C4C",
"@. c #AB5D4B",
"#. c #B25E4B",
"$. c #B45A46",
"%. c #A35C52",
"&. c #AB5C51",
"*. c #B45F53",
"=. c #A44A45",
"-. c #9C614D",
";. c #84645D",
":. c #89635D",
">. c #896254",
",. c #9C6253",
"<. c #98685A",
"1. c #8F705E",
"2. c #A5614D",
"3. c #AC614C",
"4. c #B4634D",
"5. c #BB634D",
"6. c #BA684D",
"7. c #A46353",
"8. c #AB6453",
"9. c #AC6A56",
"0. c #AC6559",
"q. c #A36B5C",
"w. c #AD6C5C",
"e. c #A46857",
"r. c #B36453",
"t. c #BB6553",
"y. c #B56A55",
"u. c #BB6A54",
"i. c #BB655A",
"p. c #B46C5B",
"a. c #BC6C5B",
"s. c #B5665A",
"d. c #BD715C",
"f. c #B87157",
"g. c #AE715E",
"h. c #8B6C65",
"j. c #866A66",
"k. c #936B62",
"l. c #9D6C63",
"z. c #8A736A",
"x. c #997468",
"c. c #887876",
"v. c #957B75",
"b. c #846970",
"n. c #A86E62",
"m. c #B76E61",
"M. c #AC7263",
"N. c #A77568",
"B. c #B37262",
"V. c #BD7363",
"C. c #BB7969",
"Z. c #A77A74",
"A. c #B37970",
"S. c #C26A4E",
"D. c #C2664E",
"F. c #C26652",
"G. c #C36B53",
"H. c #CA6C52",
"J. c #C36D5A",
"K. c #CA6E5B",
"L. c #C3665A",
"P. c #C57254",
"I. c #CB7255",
"U. c #C3725D",
"Y. c #CC725C",
"T. c #C87B5E",
"R. c #D1755C",
"E. c #D2795E",
"W. c #C46C62",
"Q. c #C37463",
"!. c #CD7462",
"~. c #C57A63",
"^. c #CB7A64",
"/. c #C47B6C",
"(. c #CB7B6B",
"). c #CB7669",
"_. c #D17564",
"`. c #D37B65",
"'. c #D37C6B",
"]. c #DA7E6E",
"[. c #C57F70",
"{. c #D37F72",
"}. c #D97E71",
"|. c #B3877D",
" X c #B28375",
".X c #93807C",
"XX c #C6816E",
"oX c #CC856C",
"OX c #CC896E",
"+X c #CF8061",
"@X c #D58165",
"#X c #D4836B",
"$X c #D8856B",
"%X c #CC8473",
"&X c #C88773",
"*X c #D48372",
"=X c #D98373",
"-X c #D48B74",
";X c #DD8B7A",
":X c #D78A78",
">X c #DB9279",
",X c #E1907D",
"<X c #99898A",
"1X c #97939A",
"2X c #948A8D",
"3X c #A68B8A",
"4X c #A6938D",
"5X c #A99997",
"6X c #B28F8B",
"7X c #A89CA4",
"8X c #ADA5AC",
"9X c #B5A9A9",
"0X c #B6ABB4",
"qX c #BAB3B6",
"wX c #BFB3AE",
"eX c #BAA195",
"rX c #D99484",
"tX c #C5988F",
"yX c #D8A296",
"uX c #C4B4AD",
"iX c #C7BAB9",
"pX c #E4B2A6",
"aX c #DFC4BE",
"sX c #C7BFC5",
"dX c #CAC5C9",
"fX c #D4CACA",
"gX c #DCDADC",
"hX c #D8D4D8",
"jX c #D1CCD1",
"kX c #E6DDDC",
"lX c #F1DFD9",
"zX c #DCDDE1",
"xX c #E1DFE1",
"cX c #F0DFE0",
"vX c #E3E2E4",
"bX c #EAE5E5",
"nX c #E5E4E9",
"mX c #EDEAEA",
"MX c #E8E6E8",
"NX c #F1EDED",
"BX c #F0E6E5",
"VX c #F0EFF2",
"CX c #F5F4F5",
"ZX c #FEFEFE",
"AX c #F7F6F8",
"SX c #F3F1EF",
"DX c #E8E2DF",
"FX c None",
/* pixels */
"FXFXFXFXFXFXFXFXFXFXFXFXFXFXFXFXFXFXFXFXFXFXZXZXZXZXZXZXZXZXZXZXZXZXZXFXFXFXFXFXFXFXFXFXFXFXFXFXFXFXFXFXFXFXFXFXFXFXFXFXFXFXFXFX",
"FXFXFXFXFXFXFXFXFXFXFXFXFXFXFXFXFXFXFXZXZXZXZXAXCXBXBXDXDXDXBXSXAXAXZXZXZXZXZXFXFXFXFXFXFXFXFXFXFXFXFXFXFXFXFXFXFXFXFXFXFXFXFXFX",
"FXFXFXFXFXFXFXFXFXFXFXFXFXFXFXFXFXFXZXAXMXhXfXiXwX9XwXuXuXuXuXuXiXiXfXfXxXVXZXZXZXFXFXFXFXFXFXFXFXFXFXFXFXFXFXFXFXFXFXFXFXFXFXFX",
"FXFXFXFXFXFXFXFXFXFXFXFXFXFXFXFXZXZXAXjX0X9X5X5X5X4X4X4X4X4XeX5X4X5X5XeX9X0XhXAXZXZXZXZXFXFXFXFXFXFXFXFXFXFXFXFXFXFXFXFXFXFXFXFX",
"FXFXFXFXFXFXFXFXFXFXFXFXFXFXFXZXAXnXdX8X7X<X.Xz.z.h.h.h.z.h.z.v.v.z.v..X<X<X5XdXCXZXZXZXZXZXFXFXFXFXFXFXFXFXFXFXFXFXFXFXFXFXFXFX",
"FXFXFXFXFXFXFXFXFXFXFXFXFXFXZXAXjX0X7X2Xc.m c l ( } } { >./ <.k.x.1.1.m >.j.C 1XsXzXnXVXZXZXZXFXFXFXFXFXFXFXFXFXFXFXFXFXFXFXFXFX",
"FXFXFXFXFXFXFXFXFXFXFXFXFXZXVXqX5X<Xz.m c v ( -.' ' ' ) ,.,.q.<.x.eXeXx.;.;.n V .X2X5XqXhXAXZXZXFXFXFXFXFXFXFXFXFXFXFXFXFXFXFXFX",
"FXFXFXFXFXFXFXFXFXFXFXFXZXgX8X2Xc.h.v ( / -.-.2.e.7.e.] ] 7.0.7.n.tXeX X1.<.<.>.m V z.<X5XsXAXZXFXFXFXFXFXFXFXFXFXFXFXFXFXFXFXFX",
"FXFXFXFXFXFXFXFXFXFXFXZXgX1Xc.M b s s -.2.2.2.2.9.9.3.7.2.3.3.+.2.9.e.e.q.9.e.<.>.v x m z..XfXZXZXFXFXFXFXFXFXFXFXFXFXFXFXFXFXFX",
"FXFXFXFXFXFXFXFXFXFXZXxX2XV x f y T -.6.f.6.4.f.4.4.3.4.y.4.4.5.3.3.2.2.9.f.9.g.e.>.y e b m .XvXZXFXFXFXFXFXFXFXFXFXFXFXFXFXFXFX",
"FXFXFXFXFXFXFXFXFXZXAX7XM h f : a 2.6.6.6.6.6.6.P.P.S.G.S.S.D.D.D.6.4.4.u.u.a.B.g.e./ y y x b 9XZXZXFXFXFXFXFXFXFXFXFXFXFXFXFXFX",
"FXFXFXFXFXFXFXFXFXZXgXB k r = 3 -.f.P.P.6.P.T.I.I.I.I.I.H.H.H.H.S.D.D.5.6.4.y.p.g.f.-.s e f k z.hXZXFXFXFXFXFXFXFXFXFXFXFXFXFXFX",
"FXFXFXFXFXFXFXFXFXZX1Xe f r ; T f.P.P.P.I.I.E.E.E.E.E.R.H.I.H.H.H.H.F.F.5.5.4.t.f.p.w.-.a e f k 5XAXZXFXFXFXFXFXFXFXFXFXFXFXFXFX",
"FXFXFXFXFXFXFXFXZXmXg r e e a 6.d.P.P.P.I.E.E.E.E.E.E.E.I.R.R.I.H.H.H.F.D.5.5.4.r.y.0.M.>.k > f V jXZXZXFXFXFXFXFXFXFXFXFXFXFXFX",
"FXFXFXFXFXFXFXFXZXjXr r r y ,.+X+X+X+X+X+X+X@X@X$X$X@X`.R.E.R.E.I.H.H.F.F.D.5.4.@.3.8.w.M.n e : f 8XZXZXFXFXFXFXFXFXFXFXFXFXFXFX",
"FXFXFXFXFXFXFXFXZX1Xr r e s f.XXoXOX+XOX+X$X$X$XE.@X@X@XE.`.E.Y.I.I.G.F.F.D.5.#.X.@.+.9.A.x.l > = C CXZXFXFXFXFXFXFXFXFXFXFXFXFX",
"FXFXFXFXFXFXFXZXCXC r f y q.~.oXOXOXOXOXOX$XOX$X$X].`.`.E.E.R.Y.Y.I.J.F.F.6.5.5.X...+.2.n.|.h.k = g MXZXFXFXFXFXFXFXFXFXFXFXFXFX",
"FXFXFXFXFXFXFXZXnXg f x -. XOXOXOXoXOXOX-X$XOX$X$X$X`.`.`.!.!.Y.K.Y.Y.G.G.F.5.$.$.X.+.o.,.A.|.} k B vXZXFXFXFXFXFXFXFXFXFXFXFXFX",
"FXFXFXFXFXFXFXZXzXh h n x.+XOXOX&XoXOXOX-X-X-X-X#X#X#X'.`.!._._._.Y.Y.K.K.L.u.*.4.X...o.e.q.|.x.x C gXZXFXFXFXFXFXFXFXFXFXFXFXFX",
"FXFXFXFXFXFXFXZXgXg B ;.g. X XoX%XoX&X-X>X-X-X$X-X-X#X#X#X(.!.Y.Y.K.K.K.K.G.F.5.4.@.....-.q.Z.x.c V hXZXFXFXFXFXFXFXFXFXFXFXFXFX",
"FXFXFXFXFXFXFXZXzXg B ;.q.C././.XX%XXX%XOX-X:X:X-X-X].'.`._.!.K.K.!.K.!.!.L.F.t.5.4.3.X.] ,.<.k.c V gXZXFXFXFXFXFXFXFXFXFXFXFXFX",
"FXFXFXFXFXFXFXZXzXB B m n.B.V./.[.XXXX{.OX-X*X%X%X'.'.*X].'.!.!.!.K.W.K.K.J.G.5.4.R X.X.] ,.<.>.c b vXZXFXFXFXFXFXFXFXFXFXFXFXFX",
"FXFXFXFXFXFXFXZXnXB N j.N.B.V.Q././.[.[.(.(.*X%X%X*X*X*X'.`._.!._._._.R.K.Y.L.F.4.$.X.3.+.' / / j M MXZXFXFXFXFXFXFXFXFXFXFXFXFX",
"FXFXFXFXFXFXFXZXzXg b j.l.w.V.V./.(./.(.(.(.(.{.{.'.{.'.'.]._.'.'._._._.Y.Y.K.G.6.r.@.] ] ,./ E y b vXZXFXFXFXFXFXFXFXFXFXFXFXFX",
"FXFXFXFXFXFXFXZXvXg b V k.m.m.m.U.~.~.).'.'.{.{.%X*X=X*X'.'._.'.'._.].].R.K.K.J.u.0.( 6 t { { z j b xXZXFXFXFXFXFXFXFXFXFXFXFXFX",
"FXFXFXFXFXFXFXFXCXC h N j.n.a.d.a.d.d.).(.(.(.{.'.*X:X=X*X].`.`.R._._._.R.K.L.i.[ t * $ $ t { ( l B nXZXZXFXFXFXFXFXFXFXFXFXFXFX",
"FXFXFXFXFXFXFXFXZXqXh x ;.q.f.u.u.a.Q.!.~.!.^.oX{.=X;X;X;X=X`.^.K.R.K.K.U.3.^ 9 * o . o # 6 } } c B sXxXZXZXFXFXFXFXFXFXFXFXFXFX",
"FXFXFXFXFXFXFXFXZXcXV x :.<.9.y.u.u.d.!.'.(.p.-.7.m.p.0.n.w.a.U.F.Y.K.F.3.a + . . . o $ 8 7 l { n n x.A.fXZXFXFXFXFXFXFXFXFXFXFX",
"FXFXFXFXFXZXZXZXZXAX4Xk :.<.9.u.u.u.U.~.(.p.^ 3 6 - & % & 7 J 2.r.P.S.4.T 1 + + * 8 7 - % 3 q } j x } D 6XAXZXFXFXFXFXFXFXFXFXFX",
"FXFXFXFXZXAXbXlXcXSXiXj.k.<.0.U.d.d.d.d.9.) a - # + X X . + , L +.F.S.X.5 , 2 0 6 + * 1 3 7 9 W k y z F 3XAXZXFXFXFXFXFXFXFXFXFX",
"FXFXFXFXZXcXyXrXyXpXyXZ.k.>.7.a.P.U.Q.w.) T a 4 - - . % @ 4 5 T X.G.G.I , 0 U 0.k.y >.6 @ a p ( z 8 2 w 3XZXFXFXFXFXFXFXFXFXFXFX",
"FXFXFXFXZXaX$.O.A.[.rX&X| } e.U.J.U.Q.2.^ J i a c n y x.-.0 I R 4.P.I. .0 ! &.{.rX6X|.{ 7 5 H ' k.q 2 < iXZXFXFXFXFXFXFXFXFXFXFX",
"FXFXFXFXZXaXR R J.~.(.%X<.( e.a.P.U.U.X._ T G i } |.6XtXg...3.4.6.@X`.4.P  .#.4.3.| ) i i W ^ ] N.( & c mXZXFXFXFXFXFXFXFXFXFXFX",
"FXFXFXFXZXcX*.D $.@X-X~.e.' g.~.^.U.d.9.2.P Y o.%.<.n.8.....X.4.`.$X$XP.Y Y _ I U L A G ) ] -.2.,.p @ 6XZXFXFXFXFXFXFXFXFXFXFXFX",
"FXFXFXFXZXAXZ.Z  .H.G.4.V.n.g.).#X).~.y.@.3.r.3. .I P I I _ r.U.$X;X;X^...K P I I _ _ O.+.&.2.] ) 5 < fXZXFXFXFXFXFXFXFXFXFXFXFX",
"FXFXFXFXFXZX9X5 L I U  ./.A.w.V.~.~.U.P.U.d.d.y.r.#.O.O...4.U.^.$X;X>X@X3.Y _ ..3.3.3.@.r.r.2.] W < 2 xXZXFXFXFXFXFXFXFXFXFXFXFX",
"FXFXFXFXFXZXMX:.5 G _ u.%XXXB.y.p.V.U.U.~.~.~.U.J.r.4.#.t.~.!.#X@X>X,X'.p.[ o.r.*.t.$.5.r.4.+.' E , z bXZXFXFXFXFXFXFXFXFXFXFXFX",
"FXFXFXFXFXFXZXhX1.G  .a.OXOXM.8.y.s.i.G.!.^.!.~.U.J.J.Q._.=X'.#X@X>X>X=Xd.2. .t.K.L.F.r.@.o.[ W q < { NXZXFXFXFXFXFXFXFXFXFXFXFX",
"FXFXFXFXFXFXFXZXkXx._ r.~.V.m.e.8.8.i.a.J.Y.U.W.U.).'.{.}.}.=X^.#X>XrX,X).8._ t.W.K.i.r.8._ ^ p 7 3 v.AXZXFXFXFXFXFXFXFXFXFXFXFX",
"FXFXFXFXFXFXFXFXZXuX,.a.V.p.p.0.0.0.4.y.a.y.L.a.Q.=X=X{.}.$X(.{.#X-X;X;X'.a.] @.L.L.i.*.o.Q H q 8 3 <XAXZXFXFXFXFXFXFXFXFXFXFXFX",
"FXFXFXFXFXFXFXFXZXkXN.B. X~.w.7.7.8.8.+.&.@.&.r.i.).*X=X}.'.).{.%X:XrXrX{.m.W I L.L.*.O.! Q p 8 1 & <XZXFXFXFXFXFXFXFXFXFXFXFXFX",
"FXFXFXFXFXFXFXFXZXBX|.M.M.C.M.{ ' %.8.&.@.@...O.*.W.).}.}._.W.s.Q ] /.:XW.~ < A *.i.*.&.` ) q * * c.jXZXFXFXFXFXFXFXFXFXFXFXFXFX",
"FXFXFXFXFXFXFXFXZXbXZ.<.<.<.{ f z ` %.s.8.&.*.y.i.m.).'._._.{.m.` ~ ~ %.~ 5 < ~ &.r.*.&.` J 1 * .XMXZXZXFXFXFXFXFXFXFXFXFXFXFXFX",
"FXFXFXFXFXFXFXFXFXAX4Xv v z j 2XN z | 0.r.r.i.W.Q.Q.(.).W.}.=X%XC.A.%.H 2 7 p ` o.&.*.o.W 9 * n vXZXFXFXFXFXFXFXFXFXFXFXFXFXFXFX",
"FXFXFXFXFXFXFXFXFXZXkXV j t j.xX1Xk / 0.r.&.i.a.V.)./.W.[.%X%X/.%XC.0.%.` ) ) `  ._ ` ] G 3 * 5XZXFXFXFXFXFXFXFXFXFXFXFXFXFXFXFX",
"FXFXFXFXFXFXFXFXFXFXZXzXiXqXhXZXsXk W %.8.y.i.V.Q./.).V./././././.Q.&.%.0.%.%.| ` ) ) ] p 1 j fXZXFXFXFXFXFXFXFXFXFXFXFXFXFXFXFX",
"FXFXFXFXFXFXFXFXFXFXFXZXZXZXZXZXxXN z ` 0.y.s.Q./.(.V.V.C.m.m.p.m.s.o.| &.%.| ) H 0 K +.i 1 <XCXZXFXFXFXFXFXFXFXFXFXFXFXFXFXFXFX",
"FXFXFXFXFXFXFXFXFXFXFXFXFXFXFXFXAX2X8 W ] 8.y.V./.~.i.p.0.%.8.8.s.s.s.*.&.~ A q & 1 ! O.u y sXZXFXFXFXFXFXFXFXFXFXFXFXFXFXFXFXFX",
"FXFXFXFXFXFXFXFXFXFXFXFXFXFXFXFXZXdXl 7 ^ 8.a.d.~.Q.4. .p H ~ ~ S S S S A Z 5 0 p J +.] 7 l kXZXFXFXFXFXFXFXFXFXFXFXFXFXFXFXFXFX",
"FXFXFXFXFXFXFXFXFXFXFXFXFXFXFXFXZXmXb.q 0 ` 8.y.Q.~.6._ ] e.s.i.W.i.O.=.=.&.o.) Q Q +.J % m NXZXFXFXFXFXFXFXFXFXFXFXFXFXFXFXFXFX",
"FXFXFXFXFXFXFXFXFXFXFXFXFXFXFXFXFXZX7Xa H K ] 8.y.d.6.4.a.u.y.a.m.*.o.! =.~ L L P _ Y 2 = 5XZXFXFXFXFXFXFXFXFXFXFXFXFXFXFXFXFXFX",
"FXFXFXFXFXFXFXFXFXFXFXFXFXFXFXFXFXZXhXv J P Q ] 2.4.$.y.J.y.@. .~ S L ~ ~ A L _ _ P i % c bXZXFXFXFXFXFXFXFXFXFXFXFXFXFXFXFXFXFX",
"FXFXFXFXFXFXFXFXFXFXFXFXFXFXFXFXFXFXAX<X0 P T T ] 2.#.u.J.u.4...! _ o.o.O.X.@.O.Q i & $ 5XZXFXFXFXFXFXFXFXFXFXFXFXFXFXFXFXFXFXFX",
"FXFXFXFXFXFXFXFXFXFXFXFXFXFXFXFXFXFXZXjXl 0 K Y ^ [ 8.6.6.S.J.G.L.V.m.s.r.4.3._ H & . b bXZXFXFXFXFXFXFXFXFXFXFXFXFXFXFXFXFXFXFX",
"FXFXFXFXFXFXFXFXFXFXFXFXFXFXFXFXFXFXZXAX4X8 i P K J ( +.t.t.u.K.L.y.*.&.@...! H - . f fXZXFXFXFXFXFXFXFXFXFXFXFXFXFXFXFXFXFXFXFX",
"FXFXFXFXFXFXFXFXFXFXFXFXFXFXFXFXFXFXFXZXmXv.7 G K p u a ` y.y.*.@. .! Q _ Q 0 1 $ x fXZXFXFXFXFXFXFXFXFXFXFXFXFXFXFXFXFXFXFXFXFX",
"FXFXFXFXFXFXFXFXFXFXFXFXFXFXFXFXFXFXFXFXZXvX:.4 9 i a 6 u W ) ! Q H 9 a q 8 * # V kXZXFXFXFXFXFXFXFXFXFXFXFXFXFXFXFXFXFXFXFXFXFX",
"FXFXFXFXFXFXFXFXFXFXFXFXFXFXFXFXFXFXFXFXFXZXfXl & 1 4 6 ; # # * * + $ # $ o . n vXZXFXFXFXFXFXFXFXFXFXFXFXFXFXFXFXFXFXFXFXFXFXFX",
"FXFXFXFXFXFXFXFXFXFXFXFXFXFXFXFXFXFXFXFXFXFXZXfXh.3 & - * o .         X X   O qXZXFXFXFXFXFXFXFXFXFXFXFXFXFXFXFXFXFXFXFXFXFXFXFX",
"FXFXFXFXFXFXFXFXFXFXFXFXFXFXFXFXFXFXFXFXFXFXFXZXNXiX3Xv.v.z.j e = : d h M c.9XVXZXFXFXFXFXFXFXFXFXFXFXFXFXFXFXFXFXFXFXFXFXFXFXFX",
"FXFXFXFXFXFXFXFXFXFXFXFXFXFXFXFXFXFXFXFXFXFXFXFXZXZXZXAXAXAXNXNXmXMXmXCXCXZXZXZXFXFXFXFXFXFXFXFXFXFXFXFXFXFXFXFXFXFXFXFXFXFXFXFX",
"FXFXFXFXFXFXFXFXFXFXFXFXFXFXFXFXFXFXFXFXFXFXFXFXFXFXFXFXFXFXFXFXFXFXFXFXFXFXFXFXFXFXFXFXFXFXFXFXFXFXFXFXFXFXFXFXFXFXFXFXFXFXFXFX",
"FXFXFXFXFXFXFXFXFXFXFXFXFXFXFXFXFXFXFXFXFXFXFXFXFXFXFXFXFXFXFXFXFXFXFXFXFXFXFXFXFXFXFXFXFXFXFXFXFXFXFXFXFXFXFXFXFXFXFXFXFXFXFXFX",
"FXFXFXFXFXFXFXFXFXFXFXFXFXFXFXFXFXFXFXFXFXFXFXFXFXFXFXFXFXFXFXFXFXFXFXFXFXFXFXFXFXFXFXFXFXFXFXFXFXFXFXFXFXFXFXFXFXFXFXFXFXFXFXFX"
};
