/* XPM */
static char *result[] = {
/* columns rows colors chars-per-pixel */
"64 64 248 2 ",
"   c #27110F",
".  c #381A16",
"X  c #2B1412",
"o  c #3C221E",
"O  c #3D2926",
"+  c #48251C",
"@  c #54251E",
"#  c #4C2A25",
"$  c #462723",
"%  c #552D24",
"&  c #522E2B",
"*  c #5C2D26",
"=  c #4C3227",
"-  c #5C332A",
";  c #573528",
":  c #4D3935",
">  c #583C35",
",  c #642D24",
"<  c #672F28",
"1  c #64342B",
"2  c #6C352C",
"3  c #64392E",
"4  c #653326",
"5  c #763A2D",
"6  c #6C3A32",
"7  c #663833",
"8  c #733C34",
"9  c #7A3D32",
"0  c #733B37",
"q  c #701E15",
"w  c #57423A",
"e  c #4F403A",
"r  c #6B423B",
"t  c #674339",
"y  c #754235",
"u  c #7C4235",
"i  c #7D443B",
"p  c #77483A",
"a  c #7F503E",
"s  c #513E40",
"d  c #594744",
"f  c #585454",
"g  c #574C4C",
"h  c #6D4C43",
"j  c #664A47",
"k  c #744C45",
"l  c #784A44",
"z  c #68524B",
"x  c #75534C",
"c  c #7B534A",
"v  c #685757",
"b  c #765A55",
"n  c #77625C",
"m  c #6E615F",
"M  c #6E5961",
"N  c #6B6364",
"B  c #786767",
"V  c #7B777C",
"C  c #85372C",
"Z  c #873831",
"A  c #973C3A",
"S  c #933D2F",
"D  c #812213",
"F  c #844335",
"G  c #83433A",
"H  c #84493C",
"J  c #8D4C3D",
"K  c #8C4538",
"L  c #924C3E",
"P  c #9B4D3E",
"I  c #954538",
"U  c #97513E",
"Y  c #8D523D",
"T  c #A84C3B",
"R  c #844D43",
"E  c #884C43",
"W  c #934D42",
"Q  c #9A4E44",
"!  c #944A46",
"~  c #8D5242",
"^  c #8A5349",
"/  c #8D5C4E",
"(  c #855648",
")  c #935245",
"_  c #9B5343",
"`  c #9C564B",
"'  c #965B4E",
"]  c #9C5B4C",
"[  c #975848",
"{  c #8B5C53",
"}  c #835751",
"|  c #995B51",
" . c #A25445",
".. c #A55946",
"X. c #AB5C46",
"o. c #A2564B",
"O. c #A9564A",
"+. c #A45B4B",
"@. c #AB5D4B",
"#. c #B25E4B",
"$. c #B45A46",
"%. c #A35C52",
"&. c #AB5B51",
"*. c #B45F53",
"=. c #A44A45",
"-. c #9C614D",
";. c #84645D",
":. c #896358",
">. c #9C6253",
",. c #98685A",
"<. c #8F705E",
"1. c #A5614D",
"2. c #AC614C",
"3. c #B4634D",
"4. c #BB634D",
"5. c #BA684D",
"6. c #A46353",
"7. c #AB6453",
"8. c #AC6A56",
"9. c #AC6559",
"0. c #A36B5C",
"q. c #AD6C5C",
"w. c #A46857",
"e. c #B36453",
"r. c #BB6553",
"t. c #B56A55",
"y. c #BB6A54",
"u. c #BB655A",
"i. c #B46C5B",
"p. c #BC6C5B",
"a. c #B5665A",
"s. c #BD715C",
"d. c #B87157",
"f. c #AE715E",
"g. c #8B6C65",
"h. c #866A66",
"j. c #966B62",
"k. c #8A736A",
"l. c #997469",
"z. c #887876",
"x. c #957B75",
"c. c #846970",
"v. c #A76E62",
"b. c #B76E61",
"n. c #AC7263",
"m. c #A77568",
"M. c #B37262",
"N. c #BD7363",
"B. c #BB7969",
"V. c #A87B75",
"C. c #B37970",
"Z. c #C26A4E",
"A. c #C2664E",
"S. c #C26652",
"D. c #C36B53",
"F. c #CA6C52",
"G. c #C36D5A",
"H. c #CA6E5B",
"J. c #C3665A",
"K. c #C57254",
"L. c #CB7255",
"P. c #C3725D",
"I. c #CC725C",
"U. c #C87B5E",
"Y. c #D1755C",
"T. c #D2795E",
"R. c #C46C62",
"E. c #C37463",
"W. c #CD7462",
"Q. c #C57A63",
"!. c #CB7A64",
"~. c #C47B6C",
"^. c #CB7B6B",
"/. c #CB7669",
"(. c #D17564",
"). c #D37B65",
"_. c #D37C6B",
"`. c #DA7E6E",
"'. c #C57F70",
"]. c #D37F72",
"[. c #D97E71",
"{. c #AC857B",
"}. c #B2887D",
"|. c #BF806C",
" X c #93807C",
".X c #C6816E",
"XX c #CC856C",
"oX c #CC896E",
"OX c #CF8061",
"+X c #D58165",
"@X c #D4836B",
"#X c #D8856B",
"$X c #CB8473",
"%X c #C88773",
"&X c #D48372",
"*X c #D98373",
"=X c #D48B74",
"-X c #DD8B7A",
";X c #D78A78",
":X c #DB9279",
">X c #E1907D",
",X c #99898A",
"<X c #97939A",
"1X c #948A8D",
"2X c #A68B8A",
"3X c #A6938D",
"4X c #A99997",
"5X c #B08F8C",
"6X c #A89CA4",
"7X c #ADA5AC",
"8X c #B5A9A9",
"9X c #B6ABB4",
"0X c #BAB3B6",
"qX c #BFB3AE",
"wX c #BAA195",
"eX c #C6958D",
"rX c #D99484",
"tX c #C09B92",
"yX c #D8A296",
"uX c #C4B4AD",
"iX c #C7BAB9",
"pX c #E4B2A6",
"aX c #DFC4BE",
"sX c #C7BFC5",
"dX c #CAC5C9",
"fX c #D4CACA",
"gX c #DCDADC",
"hX c #D8D4D8",
"jX c #D1CCD1",
"kX c #E6DDDC",
"lX c #F1DFD9",
"zX c #DCDDE1",
"xX c #E1DFE1",
"cX c #F0DFE0",
"vX c #E3E2E4",
"bX c #EAE5E5",
"nX c #E5E4E9",
"mX c #EDEAEA",
"MX c #E8E6E8",
"NX c #F1EDED",
"BX c #F0E6E5",
"VX c #F0EFF2",
"CX c #F5F4F5",
"ZX c #FEFEFE",
"AX c #F7F6F8",
"SX c #F3F1EF",
"DX c #E8E2DF",
"FX c None",
/* pixels */
"FXFXFXFXFXFXFXFXFXFXFXFXFXFXFXFXFXFXFXFXFXFXZXZXZXZXZXZXZXZXZXZXZXZXZXFXFXFXFXFXFXFXFXFXFXFXFXFXFXFXFXFXFXFXFXFXFXFXFXFXFXFXFXFX",
"FXFXFXFXFXFXFXFXFXFXFXFXFXFXFXFXFXFXFXZXZXZXZXAXCXBXBXDXkXDXBXSXAXAXZXZXZXZXZXFXFXFXFXFXFXFXFXFXFXFXFXFXFXFXFXFXFXFXFXFXFXFXFXFX",
"FXFXFXFXFXFXFXFXFXFXFXFXFXFXFXFXFXFXZXAXMXhXfXiXqX8XqXuXuXuXuXuXiXiXfXfXxXVXZXZXZXFXFXFXFXFXFXFXFXFXFXFXFXFXFXFXFXFXFXFXFXFXFXFX",
"FXFXFXFXFXFXFXFXFXFXFXFXFXFXFXFXZXZXAXjX9X8X4X4X4X3X3X3X3X3XwX4X3X4X4XwX8X9XhXAXZXZXZXZXFXFXFXFXFXFXFXFXFXFXFXFXFXFXFXFXFXFXFXFX",
"FXFXFXFXFXFXFXFXFXFXFXFXFXFXFXZXAXnXdX7X6X,X Xk.k.g.g.g.g.k.k.x. Xk.x. X,X,X4XdXCXZXZXZXZXZXFXFXFXFXFXFXFXFXFXFXFXFXFXFXFXFXFXFX",
"FXFXFXFXFXFXFXFXFXFXFXFXFXFXZXAXjX9X6X1Xz.n x k ( } } { -.:.,.j.<.<.<.n :.;.V <XsXzXnXVXZXZXZXFXFXFXFXFXFXFXFXFXFXFXFXFXFXFXFXFX",
"FXFXFXFXFXFXFXFXFXFXFXFXFXZXVX0X4X,Xk.n x c ( -.' ' ' [ ' >.0.,.{.wXwXl.;.;.b B  X1X4X0XhXAXZXZXFXFXFXFXFXFXFXFXFXFXFXFXFXFXFXFX",
"FXFXFXFXFXFXFXFXFXFXFXFXZXgX7X1Xz.g.c ( / -.-.1.6.6.w.] ' w.9.>.f.5XtX{.<.,.,.:.n B k.,X4XsXAXZXFXFXFXFXFXFXFXFXFXFXFXFXFXFXFXFX",
"FXFXFXFXFXFXFXFXFXFXFXZXgX<Xz.m v a a -.-.1.-.2.8.8.7.1.1.1.2.X.1.1.8.w.w.8.w.,./ x z n k. XfXZXZXFXFXFXFXFXFXFXFXFXFXFXFXFXFXFX",
"FXFXFXFXFXFXFXFXFXFXZXxX1XB z d t Y -.5.5.d.5.d.3.3.2.5.t.3.3.3.3.2.1.1.8.i.f.f.0./ t w z n  XvXZXFXFXFXFXFXFXFXFXFXFXFXFXFXFXFX",
"FXFXFXFXFXFXFXFXFXZXAX6Xm f d : a 1.5.5.d.5.5.5.K.D.Z.D.Z.Z.A.A.A.5.3.5.y.d.i.s.f.0./ t w b z 9XZXZXFXFXFXFXFXFXFXFXFXFXFXFXFXFX",
"FXFXFXFXFXFXFXFXFXZXgXN t e = 3 [ d.K.K.Z.K.K.L.L.L.L.L.F.F.F.F.F.A.4.4.4.5.t.i.d.d.-.a w w z k.hXZXFXFXFXFXFXFXFXFXFXFXFXFXFXFX",
"FXFXFXFXFXFXFXFXFXZX1Xw d : ; Y d.K.K.K.L.L.T.T.T.T.T.L.F.L.F.F.F.Z.S.4.4.4.4.a.i.i.q.-.p w d j 4XAXZXFXFXFXFXFXFXFXFXFXFXFXFXFX",
"FXFXFXFXFXFXFXFXZXMXv e d > p 8.s.s.L.K.L.T.T.T.T.T.T.T.Y.Y.Y.L.F.F.F.F.S.A.4.3.5.8.9.n.,.r > d B jXZXZXFXFXFXFXFXFXFXFXFXFXFXFX",
"FXFXFXFXFXFXFXFXZXjXe e e t w.OXOXOXOXOXOXOXT.#X+X#X#X).T.Y.T.T.L.H.F.A.S.4.4.4.2.1.7.q.m.b w : d 7XZXZXFXFXFXFXFXFXFXFXFXFXFXFX",
"FXFXFXFXFXFXFXFXZX<Xe e w ( d.|.OXoXXX@XOX#X#X#X+X+X+X+XT.).Y.I.L.L.Z.S.A.S.#.#.@.@.1.7.m.l.x > = V CXZXFXFXFXFXFXFXFXFXFXFXFXFX",
"FXFXFXFXFXFXFXZXCXV e z t 0.OX.XoXoXoXoXoX#X#X#X+X#X).).).Y.I.I.I.I.D.D.S.4.4.4.@.....6.f.}.j.j = f nXZXFXFXFXFXFXFXFXFXFXFXFXFX",
"FXFXFXFXFXFXFXZXnXf g d :.|.%X%XoXoXoXoX#XoX#XoX#X@X).).).W.W.I.I.I.H.D.F.S.4.#.X.@...o.w.C.2Xb j N vXZXFXFXFXFXFXFXFXFXFXFXFXFX",
"FXFXFXFXFXFXFXZXzXg f b 0.|.oXoX%XXXoX=XoX=X=X=X#X#X@X).).W.(.W.Y.H.I.H.H.G.y.#.#.X.....] v.{.l.z V gXZXFXFXFXFXFXFXFXFXFXFXFXFX",
"FXFXFXFXFXFXFXZXgXg m h.m.|..XoXoX.X%XoX:X=X=X=X=X=X&X@X@X).W.W.I.H.H.H.G.J.S.4.#.#.....-.0.m.m.x B hXZXFXFXFXFXFXFXFXFXFXFXFXFX",
"FXFXFXFXFXFXFXZXzXf B } ,.B.~..X.X$X%X%X=X=X;X;X&X&X&X_.).W.W.H.H.W.W.W.H.H.S.r.4.3.X...[ >.,.j.x B gXZXFXFXFXFXFXFXFXFXFXFXFXFX",
"FXFXFXFXFXFXFXZXzXN N B v.N.N.~.'..X'.^.XX=X&X$X@X&X&X&X_._.(.I.W.H.H.H.H.H.J.4.3.X.X.X.-.>.,.:.x v xXZXFXFXFXFXFXFXFXFXFXFXFXFX",
"FXFXFXFXFXFXFXZXxXN v h.m.M.N.N.~.~.$X'.^.^.$X&X&X&X&X*X_._.(.W.(.(.(.W.H.H.F.r.5.$.$.@.+.' / / h m vXZXFXFXFXFXFXFXFXFXFXFXFXFX",
"FXFXFXFXFXFXFXZXxXf v h.l.q.N.N.~.^.^.^.^.^.^.^.^.].@X_._.`.(._.(.(.(.(.W.P.G.D.4.e.@.' ' >./ R r m vXZXFXFXFXFXFXFXFXFXFXFXFXFX",
"FXFXFXFXFXFXFXZXvXf v B j.v.N.R.P.E.Q.^._.].^.].$X&X*X&X_._.)._.`.(.`.`.Y.H.H.G.i.8.^ 7 0 { { l k v xXZXFXFXFXFXFXFXFXFXFXFXFXFX",
"FXFXFXFXFXFXFXFXCXV g M h.v.p.p.p.s.E.E.!.^._.].].&X*X*X&X[.(._.Y.(.(.(.Y.H.J.u.[ p & $ $ r { ^ h N nXZXZXFXFXFXFXFXFXFXFXFXFXFX",
"FXFXFXFXFXFXFXFXZX0Xg z ;.w.i.t.t.p.P.W.W.!.!.@X].*X-X-X-X*X!.T.H.Y.I.H.K.2.W 6 # o o o # 7 } } x N sXxXZXZXFXFXFXFXFXFXFXFXFXFX",
"FXFXFXFXFXFXFXFXZXcXB z g.>.8.y.y.y.s.W._.^.f.-.6.M.i.9.v.9.p.U.r.I.H.S.2.y + o . . o + > 0 k { b b l.C.fXZXFXFXFXFXFXFXFXFXFXFX",
"FXFXFXFXFXZXZXZXZXAX2Xz ;.,.8.y.K.t.s.Q.^.i.^ 3 3 3 * @ % 6 H 1.3.G.Z.3.~ 1 @ + * 0 6 & @ - 7 } h z } S 5XAXZXFXFXFXFXFXFXFXFXFX",
"FXFXFXFXZXAXbXlXcXSXiXh.j.,.8.P.G.p.s.s.9.) p ; $ $ . . . + , F @.D.Z...2 4 2 9 ~ p & + 3 8 0 ^ j t l D 2XAXZXFXFXFXFXFXFXFXFXFX",
"FXFXFXFXZXcXyXrXyXpXyXV.j.:.7.p.P.P.U.q.) ~ y 4 3 l k & + 4 5 Y @.y.K.U , 5 I 9.5X}.x > * y i ^ l > 6 q 2XZXFXFXFXFXFXFXFXFXFXFX",
"FXFXFXFXZXaX$.O.C.'.rX%X{ } 6.P.G.P.E.1.Y J u p k V.V.& % u U T 3.K.L. .Z Q *.'.eXeXC./ 2 y G ' j.0 < , iXZXFXFXFXFXFXFXFXFXFXFX",
"FXFXFXFXZXaXT T y.Q.^.$X>.( w.s.G.P.P.+._ J F 9 } 5XeXl.^ ..2.2.5.+X).4.J  .$.3.&.| ) u u E ~ ] m.( * c mXZXFXFXFXFXFXFXFXFXFXFX",
"FXFXFXFXZXcX*.S $.+X=X/.0.' f.E.W.U.s.8.1.U ) ..%.,.v.6.....2.3.).#X#XK.U U _ P I K C F ) ] -.1.>.i * 2XZXFXFXFXFXFXFXFXFXFXFXFX",
"FXFXFXFXZXCXV.C O.K.y.3.b.v.q.^.XX!.U.t.2.2.t.@.=.P P P P  .e.K.#X-X:X!.] J U P _ _ _ ..+.&.1.+.) 5 , fXZXFXFXFXFXFXFXFXFXFXFXFX",
"FXFXFXFXFXZX8X9 K T I  .'.B.q.E.E.!.E.P.K.y.s.t.3.@.X.o. .3.P.+X#X-X:X).2.U _ ..@.2.2.#.e.e.1.' E < 2 xXZXFXFXFXFXFXFXFXFXFXFXFX",
"FXFXFXFXFXZXMX:.5 F P y.$X.XM.i.i.P.P.P.W.Q.Q.P.G.r.#.@.r.W.W.^.+X:X>X_.t.[ ..e.u.r.#.4.3.e.%.) R , l MXZXFXFXFXFXFXFXFXFXFXFXFX",
"FXFXFXFXFXFXZXhX<.u X.p.oXXXM.6.e.i.p.p.W.W.!.Q.P.P.H.E.^.`.@X+X@X:X:X*Xs.+. .u.H.S.r.#.@.o.[ E 0 < { NXZXFXFXFXFXFXFXFXFXFXFXFX",
"FXFXFXFXFXFXFXZXkXl._ e.Q.B.M.9.9.e.r.p.G.E.E.R.G.^._.].`.*X*X!.+X:XrX>X/.9._ r.R.H.u.a.&._ W l 6 7 x.AXZXFXFXFXFXFXFXFXFXFXFXFX",
"FXFXFXFXFXFXFXFXZXuX>.i.s.i.q.9.9.9.2.r.y.p.r.G.E.&X*X].`.*X^.].XX;X-X-X_.p.] @.J.J.u.*.O.W K r 2 1 ,XAXZXFXFXFXFXFXFXFXFXFXFXFX",
"FXFXFXFXFXFXFXFXZXkXm.M.|.B.q.6.6.7.7.@.@.@.#.e.u./.&X*X[._./.].=X;XrXrX].b.W I J.J.u.O.` L 9 7 4 - ,XZXFXFXFXFXFXFXFXFXFXFXFXFX",
"FXFXFXFXFXFXFXFXZXBX}.n.n.B.M.{ ' %.9.7.+.&.O.O.*.R./.[.[.(.R.a.L ` B.*XR.! < Z *.u.*.O.` W 0 & & z.jXZXFXFXFXFXFXFXFXFXFXFXFXFX",
"FXFXFXFXFXFXFXFXZXMXV.,.,.,.{ d k Q &.9.&.7.*.a.u.b./._.(.(.].b.| ! ) %.! 0 < E &.e.a.&.' H - & z.mXZXZXFXFXFXFXFXFXFXFXFXFXFXFX",
"FXFXFXFXFXFXFXFXFXAX5Xc c k h 1XM l | 9.e.e.a.R.E.E././.R.[.*X$X'.C.%.G 2 0 9 ` o.@.&.o.W 0 & b vXZXFXFXFXFXFXFXFXFXFXFXFXFXFXFX",
"FXFXFXFXFXFXFXFXFXZXkXB h 7 h.xX<Xj [ 9.e.7.r.p.N.E.^.E.'.$X$X'.'.~.9.%.' ) ` ` o._ ] ] G 3 * 4XZXFXFXFXFXFXFXFXFXFXFXFXFXFXFXFX",
"FXFXFXFXFXFXFXFXFXFXZXzXsX0XhXZXsXj ^ %.7.e.u.N.E.~./.N.~.'.B.~./.N.&.%.9.%.o.| ` ) U ] i 1 h fXZXFXFXFXFXFXFXFXFXFXFXFXFXFXFXFX",
"FXFXFXFXFXFXFXFXFXFXFXZXZXZXZXZXxXM l ' 8.e.i.E.~.^.R.N.N.b.p.b.b.a.| ` &.%.` ! G 9 J ] u 1 ,XCXZXFXFXFXFXFXFXFXFXFXFXFXFXFXFXFX",
"FXFXFXFXFXFXFXFXFXFXFXFXFXFXFXFXAX1X7 R o.7.a.N.~.^.i.i.6.6.9.&.*.a.e.a.&.Q G 0 * < Q @.y t sXZXFXFXFXFXFXFXFXFXFXFXFXFXFXFXFXFX",
"FXFXFXFXFXFXFXFXFXFXFXFXFXFXFXFXZXdXk 6 ^ 7.t.s.~.W.e._ G H ! ! A A A A Z C 9 0 u E +.` 3 k kXZXFXFXFXFXFXFXFXFXFXFXFXFXFXFXFXFX",
"FXFXFXFXFXFXFXFXFXFXFXFXFXFXFXFXZXmXc.0 9 _ 7.y.P.U.5. .[ 8.a.a.u.u.&.=.=.&.o.) W ) +.H * n NXZXFXFXFXFXFXFXFXFXFXFXFXFXFXFXFXFX",
"FXFXFXFXFXFXFXFXFXFXFXFXFXFXFXFXFXZX6Xp H E o.8.t.d.5.3.s.y.a.p.b.u.=.Q =.Q K K L _ U 2 = 4XZXFXFXFXFXFXFXFXFXFXFXFXFXFXFXFXFXFX",
"FXFXFXFXFXFXFXFXFXFXFXFXFXFXFXFXFXZXhXc G L ) [ 1.2.$.y.p.t.O. .! K ! K ! Z K Q _ L u % x bXZXFXFXFXFXFXFXFXFXFXFXFXFXFXFXFXFXFX",
"FXFXFXFXFXFXFXFXFXFXFXFXFXFXFXFXFXFXAX,X9 L L Y ] 1.3.y.D.y.3.X.Q _ o.o...X.@.O.W u * + 4XZXFXFXFXFXFXFXFXFXFXFXFXFXFXFXFXFXFXFX",
"FXFXFXFXFXFXFXFXFXFXFXFXFXFXFXFXFXFXZXjXk y J U ~ ' 7.4.5.D.G.y.J.R.b.a.e.3.#._ G * . v bXZXFXFXFXFXFXFXFXFXFXFXFXFXFXFXFXFXFXFX",
"FXFXFXFXFXFXFXFXFXFXFXFXFXFXFXFXFXFXZXAX3X7 u L J p ~ 1.r.5.D.H.G.i.*.O.@..._ G - . d fXZXFXFXFXFXFXFXFXFXFXFXFXFXFXFXFXFXFXFXFX",
"FXFXFXFXFXFXFXFXFXFXFXFXFXFXFXFXFXFXFXZXMXx.2 F J H r i ` t.a.*.O. ._ ) _ W 9 - + v fXZXFXFXFXFXFXFXFXFXFXFXFXFXFXFXFXFXFXFXFXFX",
"FXFXFXFXFXFXFXFXFXFXFXFXFXFXFXFXFXFXFXFXZXvX:.1 8 u p 6 y R ) Q W F 8 p 0 7 * $ B xXZXFXFXFXFXFXFXFXFXFXFXFXFXFXFXFXFXFXFXFXFXFX",
"FXFXFXFXFXFXFXFXFXFXFXFXFXFXFXFXFXFXFXFXFXZXfXx * 1 3 3 ; & # & # $ $ $ $ o . v vXZXFXFXFXFXFXFXFXFXFXFXFXFXFXFXFXFXFXFXFXFXFXFX",
"FXFXFXFXFXFXFXFXFXFXFXFXFXFXFXFXFXFXFXFXFXFXZXfXg.7 - * # + .         X X   O 0XZXFXFXFXFXFXFXFXFXFXFXFXFXFXFXFXFXFXFXFXFXFXFXFX",
"FXFXFXFXFXFXFXFXFXFXFXFXFXFXFXFXFXFXFXFXFXFXFXZXNXiX2Xx. Xh.h w & : s z B z.8XCXZXFXFXFXFXFXFXFXFXFXFXFXFXFXFXFXFXFXFXFXFXFXFXFX",
"FXFXFXFXFXFXFXFXFXFXFXFXFXFXFXFXFXFXFXFXFXFXFXFXZXZXZXAXAXAXNXNXmXMXmXCXCXZXZXZXFXFXFXFXFXFXFXFXFXFXFXFXFXFXFXFXFXFXFXFXFXFXFXFX",
"FXFXFXFXFXFXFXFXFXFXFXFXFXFXFXFXFXFXFXFXFXFXFXFXFXFXFXFXFXFXFXFXFXFXFXFXFXFXFXFXFXFXFXFXFXFXFXFXFXFXFXFXFXFXFXFXFXFXFXFXFXFXFXFX",
"FXFXFXFXFXFXFXFXFXFXFXFXFXFXFXFXFXFXFXFXFXFXFXFXFXFXFXFXFXFXFXFXFXFXFXFXFXFXFXFXFXFXFXFXFXFXFXFXFXFXFXFXFXFXFXFXFXFXFXFXFXFXFXFX",
"FXFXFXFXFXFXFXFXFXFXFXFXFXFXFXFXFXFXFXFXFXFXFXFXFXFXFXFXFXFXFXFXFXFXFXFXFXFXFXFXFXFXFXFXFXFXFXFXFXFXFXFXFXFXFXFXFXFXFXFXFXFXFXFX"
};
