/* XPM */
static char *result[] = {
/* columns rows colors chars-per-pixel */
"64 64 249 2 ",
"   c #27110F",
".  c #381A16",
"X  c #2B1412",
"o  c #3C221E",
"O  c #3D2926",
"+  c #48241D",
"@  c #55251E",
"#  c #4C2A25",
"$  c #472823",
"%  c #552C23",
"&  c #572D28",
"*  c #4C3328",
"=  c #5C332A",
"-  c #573529",
";  c #4D3935",
":  c #583C36",
">  c #642D24",
",  c #672F28",
"<  c #65342B",
"1  c #6B352C",
"2  c #64392D",
"3  c #663528",
"4  c #7B3C2C",
"5  c #75392E",
"6  c #643A33",
"7  c #6B3C32",
"8  c #663733",
"9  c #733D34",
"0  c #7A3D32",
"q  c #723A37",
"w  c #701E15",
"e  c #57423A",
"r  c #4F403A",
"t  c #6B423B",
"y  c #674339",
"u  c #754235",
"i  c #7C4235",
"p  c #7D443B",
"a  c #77483A",
"s  c #7F503E",
"d  c #513E40",
"f  c #594744",
"g  c #585454",
"h  c #574C4C",
"j  c #6D4C43",
"k  c #664A47",
"l  c #734C45",
"z  c #7A4C43",
"x  c #764744",
"c  c #68524B",
"v  c #75544C",
"b  c #7B534A",
"n  c #685757",
"m  c #775A54",
"M  c #77625C",
"N  c #6E615F",
"B  c #6E5961",
"V  c #6B6364",
"C  c #786767",
"Z  c #7B777C",
"A  c #873831",
"S  c #973C3A",
"D  c #8B372C",
"F  c #812213",
"G  c #83433A",
"H  c #844A3C",
"J  c #8D4C3D",
"K  c #894537",
"L  c #924C3E",
"P  c #994B3C",
"I  c #97513E",
"U  c #8D523D",
"Y  c #A84C3B",
"T  c #844D43",
"R  c #884C43",
"E  c #934D42",
"W  c #9B4E43",
"Q  c #944A46",
"!  c #8D5242",
"~  c #8D5C4E",
"^  c #865549",
"/  c #945244",
"(  c #9B5343",
")  c #9C564B",
"_  c #965B4E",
"`  c #9C5B4C",
"'  c #975848",
"]  c #8B5C53",
"[  c #835A54",
"{  c #975B51",
"}  c #A25545",
"|  c #A55946",
" . c #AB5C46",
".. c #A2564B",
"X. c #A9564A",
"o. c #A45C4C",
"O. c #AB5D4B",
"+. c #B25E4B",
"@. c #B45A46",
"#. c #A35C52",
"$. c #AB5B51",
"%. c #B35F53",
"&. c #B85E52",
"*. c #A44A45",
"=. c #9C614D",
"-. c #84645D",
";. c #896358",
":. c #9C6253",
">. c #9C6A5B",
",. c #97665A",
"<. c #8F705E",
"1. c #A5614D",
"2. c #AC614C",
"3. c #B4634D",
"4. c #BB634D",
"5. c #BA684D",
"6. c #A46353",
"7. c #AB6453",
"8. c #AC6A56",
"9. c #AB6559",
"0. c #A36B5C",
"q. c #AD6C5C",
"w. c #A36955",
"e. c #B36453",
"r. c #BB6553",
"t. c #B56A55",
"y. c #BB6A54",
"u. c #BB655A",
"i. c #B46C5B",
"p. c #BC6C5B",
"a. c #B5665A",
"s. c #BD715C",
"d. c #B87157",
"f. c #AE715E",
"g. c #8B6C65",
"h. c #866A66",
"j. c #966B62",
"k. c #8A736A",
"l. c #997469",
"z. c #887876",
"x. c #957B75",
"c. c #846970",
"v. c #A76E62",
"b. c #B76E61",
"n. c #AC7263",
"m. c #A77568",
"M. c #B37262",
"N. c #BD7363",
"B. c #BB7969",
"V. c #A57973",
"C. c #B37970",
"Z. c #C26A4E",
"A. c #C2664E",
"S. c #C26652",
"D. c #C36B53",
"F. c #CA6C52",
"G. c #C36D5A",
"H. c #CA6E5B",
"J. c #C3665A",
"K. c #C57254",
"L. c #CB7255",
"P. c #C3725D",
"I. c #CC725C",
"U. c #C87B5E",
"Y. c #D1755C",
"T. c #D2795E",
"R. c #C46C62",
"E. c #C37463",
"W. c #CD7462",
"Q. c #C57A63",
"!. c #CB7A64",
"~. c #C47B6C",
"^. c #CB7B6B",
"/. c #CB7669",
"(. c #D17564",
"). c #D37B65",
"_. c #D37C6B",
"`. c #DA7E6E",
"'. c #C57F70",
"]. c #D37F72",
"[. c #D97E71",
"{. c #B2887D",
"}. c #B28375",
"|. c #93807C",
" X c #C6816E",
".X c #CC856C",
"XX c #CC896E",
"oX c #CF8061",
"OX c #D58165",
"+X c #D4836B",
"@X c #D9836C",
"#X c #D7866A",
"$X c #CC8473",
"%X c #C88773",
"&X c #D48372",
"*X c #D98373",
"=X c #D48B74",
"-X c #DD8B7A",
";X c #D78A78",
":X c #DB9279",
">X c #E1907D",
",X c #99898A",
"<X c #97939A",
"1X c #948A8D",
"2X c #A68B8A",
"3X c #B48781",
"4X c #A6938D",
"5X c #A99997",
"6X c #AB9293",
"7X c #A89CA4",
"8X c #ADA5AC",
"9X c #B5A9A9",
"0X c #B6ABB4",
"qX c #BAB3B6",
"wX c #BFB3AE",
"eX c #BAA195",
"rX c #D99484",
"tX c #C4968D",
"yX c #D8A296",
"uX c #C4B4AD",
"iX c #C7BAB9",
"pX c #E4B2A6",
"aX c #E1C4BE",
"sX c #DDC4BE",
"dX c #C7BFC5",
"fX c #CAC5C9",
"gX c #D4CACA",
"hX c #DCDADC",
"jX c #D8D4D8",
"kX c #D1CCD1",
"lX c #E6DDDC",
"zX c #F1DFD9",
"xX c #DCDDE1",
"cX c #E1DFE1",
"vX c #F0DFE0",
"bX c #E3E2E4",
"nX c #EAE5E5",
"mX c #E5E4E9",
"MX c #EDEAEA",
"NX c #E8E6E8",
"BX c #F1EDED",
"VX c #F0E6E5",
"CX c #F0EFF2",
"ZX c #F5F4F5",
"AX c #FEFEFE",
"SX c #F7F6F8",
"DX c #F3F1EF",
"FX c #E8E2DF",
"GX c None",
/* pixels */
"GXGXGXGXGXGXGXGXGXGXGXGXGXGXGXGXGXGXGXGXGXGXAXAXAXAXAXAXAXAXAXAXAXAXAXGXGXGXGXGXGXGXGXGXGXGXGXGXGXGXGXGXGXGXGXGXGXGXGXGXGXGXGXGX",
"GXGXGXGXGXGXGXGXGXGXGXGXGXGXGXGXGXGXGXAXAXAXAXSXZXVXVXFXlXFXVXDXSXSXSXAXAXAXAXGXGXGXGXGXGXGXGXGXGXGXGXGXGXGXGXGXGXGXGXGXGXGXGXGX",
"GXGXGXGXGXGXGXGXGXGXGXGXGXGXGXGXGXGXAXSXNXjXgXiXwX9XwXuXuXuXuXuXiXiXgXkXcXCXAXAXAXGXGXGXGXGXGXGXGXGXGXGXGXGXGXGXGXGXGXGXGXGXGXGX",
"GXGXGXGXGXGXGXGXGXGXGXGXGXGXGXGXAXAXSXkX0X9X5X5X5X4X4X4X4X4XeX5X4X5X5XeX9X0XjXSXAXAXAXAXGXGXGXGXGXGXGXGXGXGXGXGXGXGXGXGXGXGXGXGX",
"GXGXGXGXGXGXGXGXGXGXGXGXGXGXGXAXSXmXfX8X7X1X|.k.k.g.g.h.k.g.k.x.|.k.|.|.,X,X5XfXZXAXAXAXAXAXGXGXGXGXGXGXGXGXGXGXGXGXGXGXGXGXGXGX",
"GXGXGXGXGXGXGXGXGXGXGXGXGXGXAXSXkX0X7X1Xz.M v l ^ [ ~ [ =.;.,.j.<.<.<.M ;.-.Z <XdXxXmXCXAXAXAXGXGXGXGXGXGXGXGXGXGXGXGXGXGXGXGXGX",
"GXGXGXGXGXGXGXGXGXGXGXGXGXAXCXqX5X1Xk.M v b ! =._ _ _ ' _ :.0.>.m.eX5Xl.-.-.m C |.1X5XqXjXSXAXAXGXGXGXGXGXGXGXGXGXGXGXGXGXGXGXGX",
"GXGXGXGXGXGXGXGXGXGXGXGXAXhX8X1Xz.g.b ^ ~ =.=.w.6.6.6.` _ w.9.:.f.tXeX{.>.>.,.;.M C k.,X5XdXSXAXGXGXGXGXGXGXGXGXGXGXGXGXGXGXGXGX",
"GXGXGXGXGXGXGXGXGXGXGXAXhX<Xz.N N s s =.1.1.1.2.8.8.1.7.1.1.2.2.1.w.8.w.w.8.w.>.;.v c N k.|.gXAXAXGXGXGXGXGXGXGXGXGXGXGXGXGXGXGX",
"GXGXGXGXGXGXGXGXGXGXAXcX1XC c f y U =.2.d.5.2.d.3.3.3.3.e.3.3.3.2.2.1.1.8.d.8.f.w.=.y e n M |.bXAXGXGXGXGXGXGXGXGXGXGXGXGXGXGXGX",
"GXGXGXGXGXGXGXGXGXAXSX7XN h f ; s 1.5.d.5.5.5.5.K.K.Z.Z.Z.Z.A.A.A.5.3.5.y.d.p.M.f.w.~ y e v c 0XAXAXGXGXGXGXGXGXGXGXGXGXGXGXGXGX",
"GXGXGXGXGXGXGXGXGXAXhXV k r * 2 I d.K.K.K.K.K.L.L.L.L.L.L.F.F.F.F.A.4.4.4.3.t.i.f.d.=.s e f c k.jXAXGXGXGXGXGXGXGXGXGXGXGXGXGXGX",
"GXGXGXGXGXGXGXGXGXAX<Xr f r - U d.K.K.K.K.L.T.T.T.T.T.L.F.L.F.F.F.F.S.4.4.4.3.t.p.i.q.:.a e f k 5XSXAXGXGXGXGXGXGXGXGXGXGXGXGXGX",
"GXGXGXGXGXGXGXGXAXMXg r e e a 5.K.s.K.K.L.oXT.T.T.T.T.T.Y.Y.Y.F.F.F.F.F.A.A.4.3.e.t.9.n.,.t r f C kXAXAXGXGXGXGXGXGXGXGXGXGXGXGX",
"GXGXGXGXGXGXGXGXAXkXr r r y w.oXoXoXoXoXoXoXOXOX@X@X@X).T.T.Y.T.L.L.S.S.S.A.4.3.O.2.6.q.m.m y ; f 8XAXAXGXGXGXGXGXGXGXGXGXGXGXGX",
"GXGXGXGXGXGXGXGXAX<Xr e e s 8. XoXXXXXoXOXOX@X@XT.OXOXOXT.T.T.I.L.F.S.S.S.A.4.+.O.O.2.6.m.l.j : * Z ZXAXGXGXGXGXGXGXGXGXGXGXGXGX",
"GXGXGXGXGXGXGXAXSXZ r f y f. X.X.XXXXXXX#X#X#X#X+X`.).).T.T.I.I.I.I.K.S.S.4.4.+.O.| | 1.v.{.g.k * g NXAXGXGXGXGXGXGXGXGXGXGXGXGX",
"GXGXGXGXGXGXGXAXmXg f c ~ }.XXXXXX.XXXXXXX=X=X#X@X+X).).).W.(.W.I.H.I.D.F.S.4.+. . .o...w.C.{.[ k V bXAXGXGXGXGXGXGXGXGXGXGXGXGX",
"GXGXGXGXGXGXGXAXxXh h m m. X.XXXXXXXXXXXXX=X=X#X#X+X+X_.).W.W.W.I.I.I.H.H.H.y.4.3. .| ..:.v.}.l.v Z hXAXGXGXGXGXGXGXGXGXGXGXGXGX",
"GXGXGXGXGXGXGXAXhXg N -.f.}. X X%X XXXXX:X=X=XXX=X=X#X+X+X_.W.I.W.H.H.K.J.J.S.4.4. .| | ` 0.V.l.c C jXAXGXGXGXGXGXGXGXGXGXGXGXGX",
"GXGXGXGXGXGXGXAXxXg V m >.B.~.'. X%X X$X=X=X=X;X&X=X&X_.).W.W.H.H.W.H.(.H.H.r.r.3.3. .| ` =.>.j.v C hXAXGXGXGXGXGXGXGXGXGXGXGXGX",
"GXGXGXGXGXGXGXAXxXV C C v.N.N.~.'. X^.$X$X=X&X$X&X+X_.&X_._.(.I.W.H.H.H.H.H.J.4.3.@. .| ` ,.,.;.v n bXAXGXGXGXGXGXGXGXGXGXGXGXGX",
"GXGXGXGXGXGXGXAXcXV B h.v.M.N.E.~.~.'.^.~.].$X].&X&X&X*X_._.(.W.(.(.(.W.H.H.H.S.4. . .O.` ` _ ~ j N NXAXGXGXGXGXGXGXGXGXGXGXGXGX",
"GXGXGXGXGXGXGXAXcXg n h.j.n.N.N.~.^.~.^.^.^.'.].^.&X_._._.`.(._._.(.(.(.I.I.G.D.4.r.O.` { ` ~ z t n bXAXGXGXGXGXGXGXGXGXGXGXGXGX",
"GXGXGXGXGXGXGXAXbXg n C j.n.N.N.P.E.Q.~._._.].].$X&X*X&X_._.)._._.(.`.`.Y.H.H.G.p.9.^ 8 t ~ [ T l n cXAXGXGXGXGXGXGXGXGXGXGXGXGX",
"GXGXGXGXGXGXGXGXZXZ h B ;.v.b.p.p.P.P./.^.^.^.]._.&X;X*X[.[.(._.Y.(.(.(.Y.H.J.u._ t & O $ t ] ^ j V mXAXAXGXGXGXGXGXGXGXGXGXGXGX",
"GXGXGXGXGXGXGXGXAXqXh c -.0.d.y.y.p.P.W.!.W.!..X].*X-X-X;X*X).!.H.I.Y.H.K.2.J 9 & o . o # 6 [ ~ v V dXcXAXAXGXGXGXGXGXGXGXGXGXGX",
"GXGXGXGXGXGXGXGXAXvXC c -.,.8.y.y.y.P.E._.^.i.:.6.b.i.9.v.q.p.K.r.I.H.S.2.a # . . . o $ 8 q l [ m m l.C.gXAXGXGXGXGXGXGXGXGXGXGX",
"GXGXGXGXGXAXAXAXAXSX4Xk ;.j.9.p.p.y.s.U./.b.! 2 6 = % % % 7 H 1.3.D.A.3.! 3 @ + & q q = @ = q [ j c [ D 2XSXAXGXGXGXGXGXGXGXGXGX",
"GXGXGXGXAXSXnXzXvXDXiXh.j.,.8.p.G.d.s.E.9./ a - # + . . . + > K O.p.Z. .1 > 1 0 T T 7 = 2 7 9 ^ k y x F 2XAXAXGXGXGXGXGXGXGXGXGX",
"GXGXGXGXAXvXyXrXyXpXyXV.j.[ 6.P.K.P.Q.f./ U u 3 6 t [ z > , 4 U O.Z.K.I > 5 K 9.{.3Xl.- @ a p ! x : q w 6XSXGXGXGXGXGXGXGXGXGXGX",
"GXGXGXGXAXaX@.X.C.'.rX%X,.^ 6.P.p.P.P.1.U H i a l V.V.b 9 i I Y 3.K.L.} A W %.].tX-.- y 1 5 H _ j.q , > iXAXGXGXGXGXGXGXGXGXGXGX",
"GXGXGXGXAXaXY Y p.!.!.$X>.^ w.s.p.P.U.o./ J K i m {.m # 7 | 2.2.5.OXT.4.J } 3.3.o.p = 1 i J I ` m.T & b MXAXGXGXGXGXGXGXGXGXGXGX",
"GXGXGXGXAXvX+.S @.+X=XQ.9._ f.Q.!.I.s.8.1.L I o.#.,.:.H / |  .3.oX@X@XP.I I ( P P K i K / ` =.6.,.p @ 6XAXGXGXGXGXGXGXGXGXGXGXGX",
"GXGXGXGXAXZXV.D } Z.p.3.M.v.f./.).!.P.t.2.2.t.o.} P P P I Y e.P.#X-X:X!.| J L I ( ( ( | o.$.1.` ' 5 > gXAXGXGXGXGXGXGXGXGXGXGXGX",
"GXGXGXGXGXAX9X4 J Y S } ~.B.q.N.Q.^.U.K.P.s.y.y.3.+.O...| 3.P.OX@X-X:X).1.E (  . .2.2.+.e.7.1.` R , 1 lXAXGXGXGXGXGXGXGXGXGXGXGX",
"GXGXGXGXGXAXNX-.4 K I p.$X XM.t.i.N.P.P.!.E.U.E.G.e.3.O.u.E.!.OX).:X>X_.p.' ..e.r.r.+.4.3.e.o./ H , z nXAXGXGXGXGXGXGXGXGXGXGXGX",
"GXGXGXGXGXGXAXjX,.a } y.XXXXn.7.7.y.p.J.I./.!.Q.P.G.H.E.(.@X_.OX#X:XrX@Xs.o.} J.J.J.r.&.O...' R q , ;.BXAXGXGXGXGXGXGXGXGXGXGXGX",
"GXGXGXGXGXGXGXAXlXl.I t.E.N.M.w.7.9.y.y.G.E.E.P.E./._.].[.*X*XW.OX:XrX>X/.8.I r.R.H.J.t.$.) R z 7 8 x.SXAXGXGXGXGXGXGXGXGXGXGXGX",
"GXGXGXGXGXGXGXGXAXuX:.i.N.i.i.9.9.7.e.t.y.y.J.u.E.*X*X].[.[.^._.+X=X-X-X_.p.` O.J.J.u.%...L H q < < ,XSXAXGXGXGXGXGXGXGXGXGXGXGX",
"GXGXGXGXGXGXGXGXAXlXm.M.}.Q.q.9.#.8.6.O.$.O.O.e.p./.].[.[.[./.].=X;XrXrX].b.Q P J.J.%.X.W J p 8 < = ,XAXGXGXGXGXGXGXGXGXGXGXGXGX",
"GXGXGXGXGXGXGXGXAXVX{.n.n.B.M.] { #.7.$.O.O.X.X.&.b./.[.[.W./.9.L ) B.;XR.Q , A %.u.%.$.) E q & % z.kXAXGXGXGXGXGXGXGXGXGXGXGXGX",
"GXGXGXGXGXGXGXGXAXnXV.>.>.,.] f x Q 9.a.$.e.e.u.u.p./._.(.(.].b.` Q Q #.Q 5 , Q $.%.%.$.) R < ; z.MXAXAXGXGXGXGXGXGXGXGXGXGXGXGX",
"GXGXGXGXGXGXGXGXGXSX6Xb z l j 1XB z ` 9.7.$.u.N.~.R././.R.[.*X$X'.C.#.G 1 7 p ) ..O.7...J q & m bXAXGXGXGXGXGXGXGXGXGXGXGXGXGXGX",
"GXGXGXGXGXGXGXGXGXAXlXC k 7 h.cX<Xk ' 9.e.%.t.p.E.Q.^.R.'.$X$X'.'.B.9.#.) / / ) ..( ` ` H < & 5XAXGXGXGXGXGXGXGXGXGXGXGXGXGXGXGX",
"GXGXGXGXGXGXGXGXGXGXAXxXiXqXjXAXdXk ^ #.8.e.u.N.N./.~.N.'.~.B.~.~.R.$.#.9.#...#.) / I ` G = j gXAXGXGXGXGXGXGXGXGXGXGXGXGXGXGXGX",
"GXGXGXGXGXGXGXGXGXGXGXAXAXAXAXAXcXB x _ 7.8.u.N.~.^.N.N.E.b.b.b.b.a.#.) $.#.) Q G 0 J ..i < ,XDXAXGXGXGXGXGXGXGXGXGXGXGXGXGXGXGX",
"GXGXGXGXGXGXGXGXGXGXGXGXGXGXGXGXSX1X8 R ..e.i.N.~.~.p.i.6.#.6.9.a.a.7.a.$.) G 8 & , W O.u y fXAXGXGXGXGXGXGXGXGXGXGXGXGXGXGXGXGX",
"GXGXGXGXGXGXGXGXGXGXGXGXGXGXGXGXAXfXl q ! 7.i.s.Q.W.e.' i T Q S S S S S A A 4 0 0 H o.` 1 l lXAXGXGXGXGXGXGXGXGXGXGXGXGXGXGXGXGX",
"GXGXGXGXGXGXGXGXGXGXGXGXGXGXGXGXAXMXc.q i / t.t.E.P.5.I ` 8.a.u.u.u.$.*.*.$...E Q / o.K - M BXAXGXGXGXGXGXGXGXGXGXGXGXGXGXGXGXGX",
"GXGXGXGXGXGXGXGXGXGXGXGXGXGXGXGXGXAX7Xu H H #.7.t.y.5.4.p.y.t.p.R.9.*.W *.Q K L E ( I 1 * 5XAXGXGXGXGXGXGXGXGXGXGXGXGXGXGXGXGXGX",
"GXGXGXGXGXGXGXGXGXGXGXGXGXGXGXGXGXAXjXm K L J ` 1.3.+.y.p.t.O.} Q S Q Q K A K W ( L G % c nXAXGXGXGXGXGXGXGXGXGXGXGXGXGXGXGXGXGX",
"GXGXGXGXGXGXGXGXGXGXGXGXGXGXGXGXGXGXSX,X0 J U L =.O.+.y.K.y.3.| W ( ...... .O...E i % + 5XAXGXGXGXGXGXGXGXGXGXGXGXGXGXGXGXGXGXGX",
"GXGXGXGXGXGXGXGXGXGXGXGXGXGXGXGXGXGXAXgXl i L U ! _ 7.r.5.S.G.y.p.E.b.e.e.3.3.( G = . m nXAXGXGXGXGXGXGXGXGXGXGXGXGXGXGXGXGXGXGX",
"GXGXGXGXGXGXGXGXGXGXGXGXGXGXGXGXGXGXAXSX2X8 i L J H T 1.y.5.J.H.G.t.%.$.O.| ( G = . f gXAXGXGXGXGXGXGXGXGXGXGXGXGXGXGXGXGXGXGXGX",
"GXGXGXGXGXGXGXGXGXGXGXGXGXGXGXGXGXGXGXAXMXx.1 G J a u a ` e.t.&.O.} ( E ( Q 0 = $ c gXAXGXGXGXGXGXGXGXGXGXGXGXGXGXGXGXGXGXGXGXGX",
"GXGXGXGXGXGXGXGXGXGXGXGXGXGXGXGXGXGXGXGXAXbXh.3 9 p u 7 u T / ( Q G 9 u q 8 & # C lXAXGXGXGXGXGXGXGXGXGXGXGXGXGXGXGXGXGXGXGXGXGX",
"GXGXGXGXGXGXGXGXGXGXGXGXGXGXGXGXGXGXGXGXGXAXgXz > 3 2 2 - # & # # + $ $ # o . n bXAXGXGXGXGXGXGXGXGXGXGXGXGXGXGXGXGXGXGXGXGXGXGX",
"GXGXGXGXGXGXGXGXGXGXGXGXGXGXGXGXGXGXGXGXGXGXAXgXh.2 = & # $ .         X X   O qXAXGXGXGXGXGXGXGXGXGXGXGXGXGXGXGXGXGXGXGXGXGXGXGX",
"GXGXGXGXGXGXGXGXGXGXGXGXGXGXGXGXGXGXGXGXGXGXGXAXBXiX2Xx.x.c.j e ; * d c C z.9XCXAXGXGXGXGXGXGXGXGXGXGXGXGXGXGXGXGXGXGXGXGXGXGXGX",
"GXGXGXGXGXGXGXGXGXGXGXGXGXGXGXGXGXGXGXGXGXGXGXGXAXAXAXSXSXSXBXBXMXNXMXZXZXAXAXAXGXGXGXGXGXGXGXGXGXGXGXGXGXGXGXGXGXGXGXGXGXGXGXGX",
"GXGXGXGXGXGXGXGXGXGXGXGXGXGXGXGXGXGXGXGXGXGXGXGXGXGXGXGXGXGXGXGXGXGXGXGXGXGXGXGXGXGXGXGXGXGXGXGXGXGXGXGXGXGXGXGXGXGXGXGXGXGXGXGX",
"GXGXGXGXGXGXGXGXGXGXGXGXGXGXGXGXGXGXGXGXGXGXGXGXGXGXGXGXGXGXGXGXGXGXGXGXGXGXGXGXGXGXGXGXGXGXGXGXGXGXGXGXGXGXGXGXGXGXGXGXGXGXGXGX",
"GXGXGXGXGXGXGXGXGXGXGXGXGXGXGXGXGXGXGXGXGXGXGXGXGXGXGXGXGXGXGXGXGXGXGXGXGXGXGXGXGXGXGXGXGXGXGXGXGXGXGXGXGXGXGXGXGXGXGXGXGXGXGXGX"
};
