/* XPM */
static char *result[] = {
/* columns rows colors chars-per-pixel */
"64 64 243 2 ",
"   c #3B1C15",
".  c #351B18",
"X  c #291310",
"o  c #3B221C",
"O  c #3E2017",
"+  c #3D2521",
"@  c #471E1C",
"#  c #48231B",
"$  c #5A251B",
"%  c #4B2A25",
"&  c #542A23",
"*  c #592D26",
"=  c #5C322B",
"-  c #573429",
";  c #4C3936",
":  c #5D3C34",
">  c #583934",
",  c #4A362E",
"<  c #632D24",
"1  c #63332B",
"2  c #6C352C",
"3  c #68362B",
"4  c #78392C",
"5  c #643B33",
"6  c #6C3B33",
"7  c #693A36",
"8  c #743E34",
"9  c #783C32",
"0  c #772D20",
"q  c #6B2A1F",
"w  c #55423C",
"e  c #5B453D",
"r  c #5D4237",
"t  c #4E413C",
"y  c #6B443C",
"u  c #664439",
"i  c #7B4234",
"p  c #73433C",
"a  c #7C443B",
"s  c #784738",
"d  c #633F44",
"f  c #584745",
"g  c #594E4E",
"h  c #664A44",
"j  c #784A48",
"k  c #66514B",
"l  c #7C5144",
"z  c #7A544A",
"x  c #695755",
"c  c #7B5A53",
"v  c #765955",
"b  c #78625C",
"n  c #715C62",
"m  c #796866",
"M  c #746C72",
"N  c #863C34",
"B  c #95393A",
"V  c #82392F",
"C  c #A83E33",
"Z  c #83443A",
"A  c #834A3C",
"S  c #8C4B3B",
"D  c #884537",
"F  c #934C3D",
"G  c #964A3B",
"H  c #94523E",
"J  c #9B503D",
"K  c #824937",
"L  c #A74B3A",
"P  c #9C3F41",
"I  c #844B42",
"U  c #8B4D42",
"Y  c #934D42",
"T  c #994B40",
"R  c #845245",
"E  c #8B544A",
"W  c #895749",
"Q  c #935243",
"!  c #9B5343",
"~  c #94554B",
"^  c #9C554A",
"/  c #935A4C",
"(  c #9D5C4C",
")  c #9A5A47",
"_  c #875B54",
"`  c #955D52",
"'  c #A24C45",
"]  c #A35445",
"[  c #A55A46",
"{  c #AB5C46",
"}  c #A3544A",
"|  c #A45B4B",
" . c #AC5D4C",
".. c #AA5448",
"X. c #B25E4B",
"o. c #B05D47",
"O. c #A55E53",
"+. c #AC5D52",
"@. c #A75750",
"#. c #B45E52",
"$. c #9A614B",
"%. c #8B645B",
"&. c #886459",
"*. c #946153",
"=. c #9D6253",
"-. c #96685B",
";. c #A5614D",
":. c #AD624D",
">. c #B4624C",
",. c #BA634D",
"<. c #B7674C",
"1. c #A36353",
"2. c #AC6354",
"3. c #AA6558",
"4. c #A46A5B",
"5. c #AC6B5A",
"6. c #A76B56",
"7. c #B36453",
"8. c #BB6553",
"9. c #B56B54",
"0. c #BB6B54",
"q. c #B46C5B",
"w. c #BC6C5B",
"e. c #B7655A",
"r. c #B4715B",
"t. c #BD7159",
"y. c #A2725C",
"u. c #876A66",
"i. c #956B62",
"p. c #95756B",
"a. c #897676",
"s. c #947D79",
"d. c #89716C",
"f. c #A66D61",
"g. c #B96E63",
"h. c #AB7262",
"j. c #A67367",
"k. c #B47263",
"l. c #BC7363",
"z. c #BC7965",
"x. c #BC7B6C",
"c. c #B87869",
"v. c #B07F71",
"b. c #C1654F",
"n. c #C76A4E",
"m. c #C26753",
"M. c #C36B54",
"N. c #CA6C53",
"B. c #C36D5A",
"V. c #CA6E5C",
"C. c #C2675A",
"Z. c #C57254",
"A. c #CB7255",
"S. c #C3725D",
"D. c #CC735C",
"F. c #C87A5D",
"G. c #D1755C",
"H. c #D27A5E",
"J. c #C37463",
"K. c #CC7563",
"L. c #CB7A65",
"P. c #C47A6A",
"I. c #CC7C6C",
"U. c #C97967",
"Y. c #D27464",
"T. c #D37B64",
"R. c #D37C6B",
"E. c #D77A69",
"W. c #C77F70",
"Q. c #D37E71",
"!. c #D97F72",
"~. c #C66F61",
"^. c #96827C",
"/. c #9F816E",
"(. c #A78379",
"). c #B5847A",
"_. c #C6826E",
"`. c #CB856C",
"'. c #CD896E",
"]. c #CE8266",
"[. c #D48167",
"{. c #D4836B",
"}. c #D3896E",
"|. c #D9836A",
" X c #CC8373",
".X c #CD8A72",
"XX c #C78273",
"oX c #D48272",
"OX c #DA8373",
"+X c #D58A74",
"@X c #D78A79",
"#X c #DC947B",
"$X c #E18F79",
"%X c #947E81",
"&X c #8D7F80",
"*X c #9E8985",
"=X c #978787",
"-X c #8E8D94",
";X c #958B93",
":X c #999699",
">X c #9E918E",
",X c #A58D8A",
"<X c #A59999",
"1X c #B49188",
"2X c #B3A49D",
"3X c #BAA79F",
"4X c #AEA19D",
"5X c #A69EA5",
"6X c #BC9FA1",
"7X c #ABA3A6",
"8X c #B6A8A8",
"9X c #BBB4B6",
"0X c #B3AEB2",
"qX c #9E9AA0",
"wX c #D99788",
"eX c #CB9189",
"rX c #CEB2AB",
"tX c #C8B9BA",
"yX c #E5BDB3",
"uX c #E09080",
"iX c #D1C6BF",
"pX c #BDB7C3",
"aX c #C3BEC5",
"sX c #CBC5C5",
"dX c #CBC5CA",
"fX c #D4CCCA",
"gX c #D7CAC7",
"hX c #CCC8D1",
"jX c #DBD4D5",
"kX c #D9D5D9",
"lX c #DBD1CF",
"zX c #E3D9D9",
"xX c #EACCC6",
"cX c #E9E6E5",
"vX c #E8E6E9",
"bX c #ECEDF1",
"nX c #F4F3F4",
"mX c #F8F6F6",
"MX c #FEFEFE",
"NX c #F7F6F9",
"BX c #F0EEEF",
"VX c #DFDAE2",
"CX c None",
/* pixels */
"CXCXCXCXCXCXCXCXCXCXCXCXCXCXCXCXCXCXCXCXCXCXCXCXCXCXCXCXCXCXCXCXCXCXCXCXCXCXCXCXCXCXCXCXCXCXCXCXCXCXCXCXCXCXCXCXCXCXCXCXCXCXCXCX",
"CXCXCXCXCXCXCXCXCXCXCXCXCXCXCXCXCXCXCXCXCXCXCXCXCXCXCXMXMXMXMXMXMXCXCXCXCXCXCXCXCXCXCXCXCXCXCXCXCXCXCXCXCXCXCXCXCXCXCXCXCXCXCXCX",
"CXCXCXCXCXCXCXCXCXCXCXCXCXCXCXCXCXCXCXCXCXCXMXMXMXMXMXmXmXmXmXmXMXMXMXMXMXMXMXCXCXCXCXCXCXCXCXCXCXCXCXCXCXCXCXCXCXCXCXCXCXCXCXCX",
"CXCXCXCXCXCXCXCXCXCXCXCXCXCXCXCXCXCXCXCXMXMXmXBXcXzXfXfXgXiXiXgXfXjXzXcXvXnXMXMXMXMXCXCXCXCXCXCXCXCXCXCXCXCXCXCXCXCXCXCXCXCXCXCX",
"CXCXCXCXCXCXCXCXCXCXCXCXCXCXCXCXCXCXCXMXNXkXiX9X8X4X<X2X2X2XrX2X3X3X2X3X8XtXsXzXNXMXMXCXCXCXCXCXCXCXCXCXCXCXCXCXCXCXCXCXCXCXCXCX",
"CXCXCXCXCXCXCXCXCXCXCXCXCXCXCXCXCXMXMXbXhX8X7X<X*X*X=Xs.s.s.^.^.(.^.*X>X>X<X<X7XhXNXMXMXMXMXCXCXCXCXCXCXCXCXCXCXCXCXCXCXCXCXCXCX",
"CXCXCXCXCXCXCXCXCXCXCXCXCXCXCXCXMXNXkXpX7X:X=Xm b c _ &.&.&.&.%.p.p.u.&.u.d.s.s.;XhXbXMXMXMXMXMXCXCXCXCXCXCXCXCXCXCXCXCXCXCXCXCX",
"CXCXCXCXCXCXCXCXCXCXCXCXCXCXCXMXnXaX5X<Xs.m x s l E W / E / ` *.y.&././.p.&.b v M -X0X9XdXcXNXMXMXCXCXCXCXCXCXCXCXCXCXCXCXCXCXCX",
"CXCXCXCXCXCXCXCXCXCXCXCXCXCXMXvX0X>X^./.z l W $.( 1.( 1.( ) =.6.4.-.1XrX1Xp.%.%.b b m ^.>X2XfXNXMXCXCXCXCXCXCXCXCXCXCXCXCXCXCXCX",
"CXCXCXCXCXCXCXCXCXCXCXCXCXMXVX<Xa.d.b k l $.$.;.;.6.1.6.1.| =.:.1.=.5.).(.y.y.6.-.&.c x m ^.*XsXMXMXCXCXCXCXCXCXCXCXCXCXCXCXCXCX",
"CXCXCXCXCXCXCXCXCXCXCXCXMXkX;XM x k s H $.6.<.6.:.:.2.:.;.7.>.:.:.:.:.;.| ;.r.6.6.y.*.y e x b a.jXMXMXCXCXCXCXCXCXCXCXCXCXCXCXCX",
"CXCXCXCXCXCXCXCXCXCXCXMXbX;Xm g t e l ;.<.<.<.<.<.0.<.<.<.0.,.b.,.<.<.>.:.<.9.r.6.r.y.*.u e v v ;XnXMXCXCXCXCXCXCXCXCXCXCXCXCXCX",
"CXCXCXCXCXCXCXCXCXCXCXMXpXm f t , u [ <.Z.<.<.Z.0.A.A.Z.N.A.n.n.n.n.n.b.,.,.m.0.r.r.h.1.A u e k b hXMXMXCXCXCXCXCXCXCXCXCXCXCXCX",
"CXCXCXCXCXCXCXCXCXCXMXbXM h w , r ) <.Z.Z.Z.Z.A.H.A.A.H.G.A.N.N.N.n.n.n.,.,.X.,.0.r.q.q.=.s : f u ^.vXMXCXCXCXCXCXCXCXCXCXCXCXCX",
"CXCXCXCXCXCXCXCXCXCXMXaXt e w - s <.Z.Z.Z.Z.A.H.H.H.H.H.H.A.A.A.N.N.N.N.n.b.b.b.<.7.9.5.5.*.p w f k 9XMXMXCXCXCXCXCXCXCXCXCXCXCX",
"CXCXCXCXCXCXCXCXCXCXMX-X; t r y 6.F.F.F.A.F.[.H.[.H.|.H.T.H.H.G.G.A.A.N.n.b.b.X.>.>.>.3.5.h.&.u ; f s.bXMXCXCXCXCXCXCXCXCXCXCXCX",
"CXCXCXCXCXCXCXCXCXMXbXn ; ; u *._.].].].].].].[.[.[.|.|.[.H.T.H.G.D.D.N.b.b.M.,.,.o. .+.;.h.p.z > , x kXMXCXCXCXCXCXCXCXCXCXCXCX",
"CXCXCXCXCXCXCXCXCXMXkXf w f s 6.]._.'.'.'.].}.}.|.[.[.[.[.H.D.H.G.D.D.M.M.m.m.,.>. .{ |  .6.).p.k ; , 0XMXCXCXCXCXCXCXCXCXCXCXCX",
"CXCXCXCXCXCXCXCXCXMX0Xt k y y.]._.`.`.'.}.}.}.}.|.|.|.T.T.T.T.H.H.D.D.V.M.M.m.,.,.o.{ [ | 1.v.).%.u ; qXMXCXCXCXCXCXCXCXCXCXCXCX",
"CXCXCXCXCXCXCXCXCXMX-Xt g c /.`.`.`.`.).}.}.}.}.+X}.{.R.T.[.K.Y.K.D.D.D.A.V.M.m.,.X.{ [ | ( 4.(.(.k x 5XMXCXCXCXCXCXCXCXCXCXCXCX",
"CXCXCXCXCXCXCXCXCXMX-Xf n -.c.XXXX.X.X`.'.#X.X}.+X{.+X{.{.{.T.Y.K.D.D.V.V.V.C.B.8.X.X.{ [ } =.j.(.&.x <XMXMXCXCXCXCXCXCXCXCXCXCX",
"CXCXCXCXCXCXCXCXCXMX-Xg m %.k.P.XX_._._.'.}..X#X+X+X+X+X{.R.R.K.D.V.V.V.V.V.V.m.8.,.>.{ [ | =.4.j._ x <XNXMXCXCXCXCXCXCXCXCXCXCX",
"CXCXCXCXCXCXCXCXCXMX-Xx b &.k.l.z.W.XX_._..X.X#X@XoXoX{.I.R.T.L.K.V.Y.V.V.K.V.C.,.,.X.o.{ | ( -.i._ h <XMXCXCXCXCXCXCXCXCXCXCXCX",
"CXCXCXCXCXCXCXCXCXMXqXx m i.k.g.z.P.I.W.W.P. X.X XoXoXoXoXOXT.R.Y.K.V.K.D.V.V.N.n.,.>.o.{ O.( *.%.W f 5XMXCXCXCXCXCXCXCXCXCXCXCX",
"CXCXCXCXCXCXCXCXCXMX:Xg m i.h.g.l.l.P.P.I.I.P.Q. XQ.I.oXR.Q.E.R.Y.T.Y.Y.T.D.V.V.m.8.,.X. .| ( / W l h 5XMXCXCXCXCXCXCXCXCXCXCXCX",
"CXCXCXCXCXCXCXCXCXMX:Xg n u.f.g.l.J.I.P.U.I.Q.P.Q.I.oXoXOXQ.E.E.R.R.T.Y.|.E.D.S.V.0.8.1./ I ` ` W s f :XMXCXCXCXCXCXCXCXCXCXCXCX",
"CXCXCXCXCXCXCXCXCXMX7Xg n u.i.k.l.w.S.J.J.U.I.Q.Q.Q.oXoXOX!.R.R.T.E.T.T.E.T.D.V.C.w.O.R > % 5 _ W l f 5XMXCXCXCXCXCXCXCXCXCXCXCX",
"CXCXCXCXCXCXCXCXCXMXVXg g &.i.5.0.t.w.B.K.U.L.Y.I.oXQ.+X$X@XOXR.Y.K.V.Y.D.D.V.8.+.I : %   % % z _ z k 5XNXMXMXCXCXCXCXCXCXCXCXCX",
"CXCXCXCXCXCXCXCXCXMXNX;Xf v i.1.9.0.0.S.S.L.U.U.z.J.I.oXI.oXW.U.L.S.M.G.V.B.;.i * o . . + & 1 j _ W k &X6XgXMXMXCXCXCXCXCXCXCXCX",
"CXCXCXCXCXCXCXCXMXMXMXtXk v i.1.q.0.0.w.B.I.R.h.A s R R A l I ^ 2.0.B.D.b.o.A & O   @ * & % 1 7 l _ k v } f.VXMXCXCXCXCXCXCXCXCX",
"CXCXCXCXCXCXMXmXmXmXMXvXd.c i.=.r.B.0.t.S.J.9./ u - , #     # * D ] 7.M.,.H 3 < < 2 s p 6 : = 3 j z h j N N kXMXCXCXCXCXCXCXCXCX",
"CXCXCXCXCXMXMXzXyXyXxXxX1Xi.i.` 0.S.B.t.z.5.Y A 6 $ & * # # $ < 4 Q <.n.,.D * 4 D ` h o O $ 2 a Z R > d 0 V VXMXCXCXCXCXCXCXCXCX",
"CXCXCXCXCXMXNXwXg.x.eXwXwXf.&./ 0.S.S.J.t.) S A 2 p p : # # q D F ] ,.A.,.4 4 G e.eXi., = 5 1 i U %.y 6 q j vXMXCXCXCXCXCXCXCXCX",
"CXCXCXCXCXMXnXl.C 7.z.P.@Xv.R *.9.S.M.J.r.Q H K K p c u % - V [ { { Z.H.B.F H o.C.P.j.E I I 9 a Q 4.-.6 < %XNXCXCXCXCXCXCXCXCXCX",
"CXCXCXCXCXCXmXeXC L G.{._.c.W -.q.J.S.S.9.$.) S D ( ).-.A W [  .{ <.[.|.H.[ F ] ] T G D 4 N U ) ( 4.-.< 1 dXMXCXCXCXCXCXCXCXCXCX",
"CXCXCXCXCXCXMXtXD L M.}.U.w.=.f.r.{.L.F.t.:.! [  .{ | [ J J G [ <.S.|.$X[.7.S Q J J G S F ! | O.| ( E < _ BXMXCXCXCXCXCXCXCXCXCX",
"CXCXCXCXCXCXMXkXU B { L J e.x.h.l.I.I.L.S.0.7.t.9. .] L ' ' J >.S.[.$X#X+XB.Q F ! ] [ [ {  .+.2.| ~ Z $ (.MXCXCXCXCXCXCXCXCXCXCX",
"CXCXCXCXCXCXCXmXs.4 S G L r..Xk.r.w.S.S.S.K.S.S.t.t.7.:.....7.S.L.|.|.#X+XS.( !  .#.>.>.>.<.8.2.( E 9 $ ,XMXCXCXCXCXCXCXCXCXCXCX",
"CXCXCXCXCXCXCXMXjX&.i D 7.U.+Xc.5.2.q.t.w.S.F.L.L.J.B.0.e.8.L.R.].{.|.#X@XJ.2.! +.C.m.8.>.+.+.| ^ I 6 3 8XMXCXCXCXCXCXCXCXCXCXCX",
"CXCXCXCXCXCXCXCXMXjXp.S 7.t.'.c.5.3.2.e.0.B.K.L.L.S.S.K.L.R.!.OXE.].+X#X$XR.r.! ..V.V.C.8.7.| ! U a 3 8 tXMXCXCXCXCXCXCXCXCXCXCX",
"CXCXCXCXCXCXCXCXCXMXlX=.| J.t.r.5.3.3.e.8.0.B.B.B.~.I.!.!.!.!.!.L.T.}.#XuX!.~.^ @.C.V.C.e.#.^ F A 6 3 j fXMXCXCXCXCXCXCXCXCXCXCX",
"CXCXCXCXCXCXCXCXCXMXmX1X6.z.z.r.2.6.3.+.;.7.7.7.8.C.U.Q.Q.!.!.R.].+X+X#XuX!.W.3.Q #.C.e.#.} T S 8 5 1 y jXMXCXCXCXCXCXCXCXCXCXCX",
"CXCXCXCXCXCXCXCXCXCXMXrXf.c.x.c.6.=.O.3.1. . .....+.~.~.!.!.!.~.U.J.k. XuXuXg.P 0 ..C.C.+.} ! A 7 * > m cXMXCXCXCXCXCXCXCXCXCXCX",
"CXCXCXCXCXCXCXCXCXCXMXrXj.j.f.h.&.j / O.3.2.+.+.@.+.e.J.I.Q.Y.Y.l.T 9 Y g.g.^ 2 2 } e.#.+.| ^ a = , s.kXMXCXCXCXCXCXCXCXCXCXCXCX",
"CXCXCXCXCXCXCXCXCXCXMXtX` E _ z x x j ! 3.+.+.e.e.~.g.J.Q.I.Y.Q.Q.x.k.O.E N 7 2 Z @. .#.+.^ U 2 & a.bXMXCXCXCXCXCXCXCXCXCXCXCXCX",
"CXCXCXCXCXCXCXCXCXCXMXvXa.h p 7 %X9Xh I 1.9.+.7.g.~.J.U.~.~.Q.@XXXW.x.k.^ Z p Z ~ } } | +.Q i 1 d aXMXCXCXCXCXCXCXCXCXCXCXCXCXCX",
"CXCXCXCXCXCXCXCXCXCXCXMXkX%Xd.a.kXvXm j ( 5.2.e.g.~.~.I.~.P.W.XXW.W.W.g.3.3.O.~ ^ | ^ Q ( Q p * u.BXMXCXCXCXCXCXCXCXCXCXCXCXCXCX",
"CXCXCXCXCXCXCXCXCXCXCXCXMXNXBXBXMXNX;Xh ~ 2.2.e.g.g.P.I.g.x.x.l.c.l.g.#.^ @.3.@.@.~ S S ^ Y 3 : 8XMXCXCXCXCXCXCXCXCXCXCXCXCXCXCX",
"CXCXCXCXCXCXCXCXCXCXCXCXCXMXMXMXMXMX9Xd I ( 2.9.q.P.I.J.q.k.q.q.q.e.g.#.O.+.+.^ U 8 < 4 | H 6 b cXMXCXCXCXCXCXCXCXCXCXCXCXCXCXCX",
"CXCXCXCXCXCXCXCXCXCXCXCXCXCXCXCXCXMXvXm 7 U +.9.q.P.P.t.<.) U ~ ^ ' ' @.@.^ B V 2 < 7 S +.S 1 *XNXCXCXCXCXCXCXCXCXCXCXCXCXCXCXCX",
"CXCXCXCXCXCXCXCXCXCXCXCXCXCXCXCXCXCXMX<X7 9 Y 2.9.J.L.B.[ S I ~ @.' P P P B B Y Y I U ^  .i * 4XMXCXCXCXCXCXCXCXCXCXCXCXCXCXCXCX",
"CXCXCXCXCXCXCXCXCXCXCXCXCXCXCXCXCXCXMXhXj j Z ^ 9.9.S.0.>.:.r.t.~.~.I.C.@.' +.@.Y Y F ^ F - r gXMXCXCXCXCXCXCXCXCXCXCXCXCXCXCXCX",
"CXCXCXCXCXCXCXCXCXCXCXCXCXCXCXCXCXCXMXnXa.9 S U ( ;.7.<.>.0.w.7.+.+.} Y T Y D N N Y T H 9 $ a.mXMXCXCXCXCXCXCXCXCXCXCXCXCXCXCXCX",
"CXCXCXCXCXCXCXCXCXCXCXCXCXCXCXCXCXCXCXMX0Xp F H Q ( { o.,.S.0.>.} T D F Y G G G ..] Q i * , sXMXCXCXCXCXCXCXCXCXCXCXCXCXCXCXCXCX",
"CXCXCXCXCXCXCXCXCXCXCXCXCXCXCXCXCXCXCXMXcXu.9 H S E ) 1.<.m.M.0.8.o.+.e.e.3.7.<. .T Z * # a.mXMXCXCXCXCXCXCXCXCXCXCXCXCXCXCXCXCX",
"CXCXCXCXCXCXCXCXCXCXCXCXCXCXCXCXCXCXCXCXMX8X7 i H S R ~ O.8.<.M.B.V.J.w.7. . .{ ] D =   f jXMXCXCXCXCXCXCXCXCXCXCXCXCXCXCXCXCXCX",
"CXCXCXCXCXCXCXCXCXCXCXCXCXCXCXCXCXCXCXCXMXnXs.2 i F A s a | 7.0.w.8.X.+.| } [ J Z = @ f dXMXCXCXCXCXCXCXCXCXCXCXCXCXCXCXCXCXCXCX",
"CXCXCXCXCXCXCXCXCXCXCXCXCXCXCXCXCXCXCXCXCXMXcXd.3 i D s u s ~ 1.+...T S S U Z 8 = % m fXMXCXCXCXCXCXCXCXCXCXCXCXCXCXCXCXCXCXCXCX",
"CXCXCXCXCXCXCXCXCXCXCXCXCXCXCXCXCXCXCXCXCXCXMXzX_ < 2 8 8 3 3 6 8 8 8 1 = 5 = % # M cXMXCXCXCXCXCXCXCXCXCXCXCXCXCXCXCXCXCXCXCXCX",
"CXCXCXCXCXCXCXCXCXCXCXCXCXCXCXCXCXCXCXCXCXCXCXMXsXz 1 = = - %   . . . . . . . X t lXMXCXCXCXCXCXCXCXCXCXCXCXCXCXCXCXCXCXCXCXCXCX",
"CXCXCXCXCXCXCXCXCXCXCXCXCXCXCXCXCXCXCXCXCXCXCXCXMXzX,Xz u 7 : %   X X X . o + ; <XmXCXCXCXCXCXCXCXCXCXCXCXCXCXCXCXCXCXCXCXCXCXCX",
"CXCXCXCXCXCXCXCXCXCXCXCXCXCXCXCXCXCXCXCXCXCXCXCXCXMXMXcXjXfXfXtX<X<X>X<X7X9XsXkXmXMXCXCXCXCXCXCXCXCXCXCXCXCXCXCXCXCXCXCXCXCXCXCX",
"CXCXCXCXCXCXCXCXCXCXCXCXCXCXCXCXCXCXCXCXCXCXCXCXCXCXCXMXMXMXMXMXMXMXMXMXMXMXMXMXCXCXCXCXCXCXCXCXCXCXCXCXCXCXCXCXCXCXCXCXCXCXCXCX",
"CXCXCXCXCXCXCXCXCXCXCXCXCXCXCXCXCXCXCXCXCXCXCXCXCXCXCXCXCXCXCXCXCXCXCXCXCXCXCXCXCXCXCXCXCXCXCXCXCXCXCXCXCXCXCXCXCXCXCXCXCXCXCXCX"
};
