/* XPM */
static char *result[] = {
/* columns rows colors chars-per-pixel */
"64 64 248 2 ",
"   c #27110F",
".  c #381A16",
"X  c #2B1412",
"o  c #3C221E",
"O  c #3D2926",
"+  c #48241D",
"@  c #55251E",
"#  c #4C2A25",
"$  c #472823",
"%  c #552C23",
"&  c #582D28",
"*  c #4C3328",
"=  c #5C332A",
"-  c #563529",
";  c #4D3935",
":  c #573D37",
">  c #642D24",
",  c #672F28",
"<  c #65342B",
"1  c #6C352C",
"2  c #64392D",
"3  c #673528",
"4  c #773A2D",
"5  c #643B34",
"6  c #6B3B32",
"7  c #663834",
"8  c #733D34",
"9  c #7B3E32",
"0  c #723A37",
"q  c #701E15",
"w  c #57423A",
"e  c #4F403A",
"r  c #6A423B",
"t  c #674339",
"y  c #754235",
"u  c #7C4235",
"i  c #7D443B",
"p  c #77483B",
"a  c #7F503E",
"s  c #513E40",
"d  c #594744",
"f  c #585454",
"g  c #574C4C",
"h  c #6D4C43",
"j  c #664A47",
"k  c #734B44",
"l  c #794B45",
"z  c #68524B",
"x  c #75544B",
"c  c #795248",
"v  c #685757",
"b  c #765A55",
"n  c #77625C",
"m  c #6E615F",
"M  c #6E5961",
"N  c #6B6364",
"B  c #786767",
"V  c #7B777C",
"C  c #85372C",
"Z  c #873831",
"A  c #973C3A",
"S  c #933D2F",
"D  c #812213",
"F  c #844336",
"G  c #83433A",
"H  c #84493C",
"J  c #8D4C3D",
"K  c #8B4537",
"L  c #924C3E",
"P  c #994A3C",
"I  c #97513E",
"U  c #8D523D",
"Y  c #A84C3B",
"T  c #844D43",
"R  c #894C43",
"E  c #934D42",
"W  c #9B4E44",
"Q  c #944A46",
"!  c #845244",
"~  c #8D5242",
"^  c #8D5C4E",
"/  c #87564A",
"(  c #935245",
")  c #9B5343",
"_  c #935549",
"`  c #9C564B",
"'  c #965B4E",
"]  c #9C5B4C",
"[  c #9C5C45",
"{  c #8B5C53",
"}  c #835650",
"|  c #955C51",
" . c #A25445",
".. c #A55946",
"X. c #AB5C46",
"o. c #A2564B",
"O. c #A9564A",
"+. c #A45C4C",
"@. c #AB5D4B",
"#. c #B25E4B",
"$. c #B45A46",
"%. c #A35C52",
"&. c #AB5B51",
"*. c #B45F54",
"=. c #A44A45",
"-. c #9C614D",
";. c #84645D",
":. c #896358",
">. c #9C6253",
",. c #98675A",
"<. c #8F705E",
"1. c #A5614D",
"2. c #AC614C",
"3. c #B4634D",
"4. c #BB634D",
"5. c #BA684D",
"6. c #A46353",
"7. c #AB6453",
"8. c #AC6A56",
"9. c #AC6559",
"0. c #A36B5C",
"q. c #AD6C5C",
"w. c #A36955",
"e. c #B36453",
"r. c #BB6553",
"t. c #B56A55",
"y. c #BB6A54",
"u. c #BB655A",
"i. c #B46C5B",
"p. c #BC6C5B",
"a. c #B5665A",
"s. c #BD715C",
"d. c #B87157",
"f. c #AE715E",
"g. c #8B6C65",
"h. c #866A66",
"j. c #966B62",
"k. c #8A736A",
"l. c #997469",
"z. c #887876",
"x. c #957B75",
"c. c #846970",
"v. c #A86E62",
"b. c #B76E61",
"n. c #AC7263",
"m. c #A67568",
"M. c #B37262",
"N. c #BD7363",
"B. c #BB7969",
"V. c #A87B75",
"C. c #B37970",
"Z. c #C26A4E",
"A. c #C2664E",
"S. c #C26652",
"D. c #C36B53",
"F. c #CA6C52",
"G. c #C36D5A",
"H. c #CA6E5B",
"J. c #C3665A",
"K. c #C57254",
"L. c #CB7255",
"P. c #C3725D",
"I. c #CC725C",
"U. c #C87B5E",
"Y. c #D1755C",
"T. c #D2795E",
"R. c #C46C62",
"E. c #C37463",
"W. c #CD7462",
"Q. c #C57A63",
"!. c #CB7A64",
"~. c #C47B6C",
"^. c #CB7B6B",
"/. c #CB7669",
"(. c #D17564",
"). c #D37B65",
"_. c #D37C6B",
"`. c #DA7E6E",
"'. c #C57F70",
"]. c #D37F72",
"[. c #D97E71",
"{. c #AC847A",
"}. c #B2887D",
"|. c #BF806C",
" X c #93807C",
".X c #C6816E",
"XX c #CC856C",
"oX c #CC896E",
"OX c #CF8061",
"+X c #D58165",
"@X c #D4836B",
"#X c #D9836C",
"$X c #D7866A",
"%X c #CB8573",
"&X c #C88773",
"*X c #D48372",
"=X c #D98373",
"-X c #D48B74",
";X c #DD8B7A",
":X c #D78A78",
">X c #DB9279",
",X c #E1907D",
"<X c #99898A",
"1X c #97939A",
"2X c #948A8D",
"3X c #A68B8A",
"4X c #A6938D",
"5X c #A99997",
"6X c #AF8F8E",
"7X c #A89CA4",
"8X c #ADA5AC",
"9X c #B5A9A9",
"0X c #B6ABB4",
"qX c #BAB3B6",
"wX c #BFB3AE",
"eX c #BAA195",
"rX c #D99484",
"tX c #C19890",
"yX c #D8A296",
"uX c #C4B4AD",
"iX c #C7BAB9",
"pX c #E4B2A6",
"aX c #DFC4BE",
"sX c #C7BFC5",
"dX c #CAC5C9",
"fX c #D4CACA",
"gX c #DCDADC",
"hX c #D8D4D8",
"jX c #D1CCD1",
"kX c #E6DDDC",
"lX c #F1DFD9",
"zX c #DCDDE1",
"xX c #E1DFE1",
"cX c #F0DFE0",
"vX c #E3E2E4",
"bX c #EAE5E5",
"nX c #E5E4E9",
"mX c #EDEAEA",
"MX c #E8E6E8",
"NX c #F1EDED",
"BX c #F0E6E5",
"VX c #F0EFF2",
"CX c #F5F4F5",
"ZX c #FEFEFE",
"AX c #F7F6F8",
"SX c #F3F1EF",
"DX c #E8E2DF",
"FX c None",
/* pixels */
"FXFXFXFXFXFXFXFXFXFXFXFXFXFXFXFXFXFXFXFXFXFXZXZXZXZXZXZXZXZXZXZXZXZXZXFXFXFXFXFXFXFXFXFXFXFXFXFXFXFXFXFXFXFXFXFXFXFXFXFXFXFXFXFX",
"FXFXFXFXFXFXFXFXFXFXFXFXFXFXFXFXFXFXFXZXZXZXZXAXCXBXBXDXDXDXBXSXAXAXZXZXZXZXZXFXFXFXFXFXFXFXFXFXFXFXFXFXFXFXFXFXFXFXFXFXFXFXFXFX",
"FXFXFXFXFXFXFXFXFXFXFXFXFXFXFXFXFXFXZXAXMXhXfXiXwX9XwXuXuXuXuXuXiXiXfXfXxXVXZXZXZXFXFXFXFXFXFXFXFXFXFXFXFXFXFXFXFXFXFXFXFXFXFXFX",
"FXFXFXFXFXFXFXFXFXFXFXFXFXFXFXFXZXZXAXjX0X9X5X5X5X4X4X4X4X4XeX5X4X5X5XeX9X0XhXAXZXZXZXZXFXFXFXFXFXFXFXFXFXFXFXFXFXFXFXFXFXFXFXFX",
"FXFXFXFXFXFXFXFXFXFXFXFXFXFXFXZXAXnXdX8X7X<X Xk.k.g.k.h.g.k.k.x.x.k.x. X<X<X5XdXCXZXZXZXZXZXFXFXFXFXFXFXFXFXFXFXFXFXFXFXFXFXFXFX",
"FXFXFXFXFXFXFXFXFXFXFXFXFXFXZXAXjX0X7X2Xz.n z c / } / { :.^ ,.j.<.<.<.n :.;.V 1XsXzXnXVXZXZXZXFXFXFXFXFXFXFXFXFXFXFXFXFXFXFXFXFX",
"FXFXFXFXFXFXFXFXFXFXFXFXFXZXVXqX5X<Xk.n x ! U ' ' ' ' _ ] w.0.,.{.eXeXx.;.;.b B  X2X5XqXhXAXZXZXFXFXFXFXFXFXFXFXFXFXFXFXFXFXFXFX",
"FXFXFXFXFXFXFXFXFXFXFXFXZXgX8X2Xz.g.x / ^ -.-.w.w.6.6.] ] 6.9.>.f.6XtX{.<.,.,.:.n B k.<X5XsXAXZXFXFXFXFXFXFXFXFXFXFXFXFXFXFXFXFX",
"FXFXFXFXFXFXFXFXFXFXFXZXgX1Xz.m b a a -.1.1.-.2.8.8.7.1.1.7.2.X.2.1.8.w.w.f.>.w.:.x z n k. XfXZXZXFXFXFXFXFXFXFXFXFXFXFXFXFXFXFX",
"FXFXFXFXFXFXFXFXFXFXZXxX2XB z d t U -.8.5.5.5.d.5.3.2.3.e.3.3.3.3.2.1.1.9.d.8.f.w.^ t w v n  XvXZXFXFXFXFXFXFXFXFXFXFXFXFXFXFXFX",
"FXFXFXFXFXFXFXFXFXZXAX7Xm g d ; a -.5.Z.5.5.5.5.K.Z.Z.Z.Z.Z.A.A.A.5.3.3.r.d.d.i.f.w.^ t w x z 0XZXZXFXFXFXFXFXFXFXFXFXFXFXFXFXFX",
"FXFXFXFXFXFXFXFXFXZXgXN j e * 2 [ d.K.d.d.K.L.L.L.L.L.L.L.F.F.F.F.A.4.5.5.r.t.i.d.8.w.a w d z k.hXZXFXFXFXFXFXFXFXFXFXFXFXFXFXFX",
"FXFXFXFXFXFXFXFXFXZX1Xw d e - U d.K.K.K.L.L.T.Y.T.Y.T.L.F.L.F.F.F.Z.S.A.4.4.4.a.d.M.i.>.p w d j 5XAXZXFXFXFXFXFXFXFXFXFXFXFXFXFX",
"FXFXFXFXFXFXFXFXZXmXf e w w p 5.s.d.L.K.L.T.T.T.).T.T.T.Y.Y.Y.L.F.F.F.S.A.4.4.3.e.t.9.n.,.t : d B jXZXZXFXFXFXFXFXFXFXFXFXFXFXFX",
"FXFXFXFXFXFXFXFXZXjXe e e t w.|.OXOXOXOXOXOX+X+X+X#X#X+XT.T.Y.Y.L.F.F.S.S.A.4.3.2.2.7.q.m.b t ; d 8XZXZXFXFXFXFXFXFXFXFXFXFXFXFX",
"FXFXFXFXFXFXFXFXZX1Xe e w a d.OXXXoXOX$XOX$X$X#X+X+X+X+XT.T.T.I.Y.L.S.Z.S.A.4.#.X.@.+.6.m.l.z : * V CXZXFXFXFXFXFXFXFXFXFXFXFXFX",
"FXFXFXFXFXFXFXZXCXV e z t 0.OX.XoXoXoXoX$X$X$X$X@X#X).).T.T.W.I.I.P.F.D.S.4.4.3.X.....+.n.}.j.j * f MXZXFXFXFXFXFXFXFXFXFXFXFXFX",
"FXFXFXFXFXFXFXZXnXf d j :.|.&XoXoX.XoXoXoXoXoX$X#X@X).).).W.W.I.I.I.I.S.G.S.4.#.#.X.+.+.w.V.{.} j N vXZXFXFXFXFXFXFXFXFXFXFXFXFX",
"FXFXFXFXFXFXFXZXzXg g b 0.|.oX&XoX&XoX-X-X-X-X$X$X@X@X_.).W./.(.I.I.H.H.H.G.S.4.#.X...+.6.0.{.l.z V gXZXFXFXFXFXFXFXFXFXFXFXFXFX",
"FXFXFXFXFXFXFXZXgXf m h.m.|.|.oX&XoXoXoX-X>X-X-X-X-X@X@X@X).W.I.I.H.H.H.H.S.S.4.3.X...+.] 0.V.l.x B hXZXFXFXFXFXFXFXFXFXFXFXFXFX",
"FXFXFXFXFXFXFXZXzXf N b ,.B.~.~..X%X.X%XoX:X:X:X*X*X$X_.).(.W.H.H.W.W.W.I.G.S.r.4.3.X.X.[ >.j.j.x B gXZXFXFXFXFXFXFXFXFXFXFXFXFX",
"FXFXFXFXFXFXFXZXzXN B B v.N.N.~.'..X.X].%X-X*X%X%X].*X[._._.W.W.W.H.H.H.H.H.J.4.#.X.X.X.] >.,.{ x v vXZXFXFXFXFXFXFXFXFXFXFXFXFX",
"FXFXFXFXFXFXFXZXxXN v h.m.M.N.B.~.~.'.'.^.^.*X%X].*X`.*X_._.(.W.(.(.(.H.H.H.H.A.3.#.#.+.+.' ^ ^ h m MXZXFXFXFXFXFXFXFXFXFXFXFXFX",
"FXFXFXFXFXFXFXZXxXf v h.l.i.N.R.~.^.~.^.^.^.^.].XX_.*X`._._.(._.`.(.(.(.I.P.H.S.4.e.@.` ] >.^ ! r v vXZXFXFXFXFXFXFXFXFXFXFXFXFX",
"FXFXFXFXFXFXFXZXvXf v B j.n.N.N.P.E.Q.^._.].].].%X*X=X*X_._.(._._.(.`.`.Y.H.H.G.i.7./ 7 r { } l k v xXZXFXFXFXFXFXFXFXFXFXFXFXFX",
"FXFXFXFXFXFXFXFXCXV g M :.v.b.p.p.s.E.E.!.^.^._.].*X=X=X=X`.).).Y.(.(.(.Y.H.J.u._ p & $ $ r { / h N nXZXZXFXFXFXFXFXFXFXFXFXFXFX",
"FXFXFXFXFXFXFXFXZXqXg z ;.0.d.y.y.p.P.W.!.W.!.XX].=X;X;X;X=X).!.H.Y.Y.H.P.2.R 8 # o o o # 5 } { x B sXxXZXZXFXFXFXFXFXFXFXFXFXFX",
"FXFXFXFXFXFXFXFXZXcXB z ;.,.8.t.y.y.s.W._.^.i.-.6.M.i.9.v.q.i.P.r.H.H.S.2.p + . . . o $ 7 0 k } x v l.C.fXZXFXFXFXFXFXFXFXFXFXFX",
"FXFXFXFXFXZXZXZXZXAX3Xz ;.,.7.p.s.y.P.Q.^.i.~ 2 5 = % @ % 6 H 1.3.G.Z.3.U < + @ & 0 0 = % 2 0 } z z } S 6XAXZXFXFXFXFXFXFXFXFXFX",
"FXFXFXFXZXAXbXlXcXSXiXh.j.,.8.P.P.y.s.s.9.( p = # + . . . + > K +.D.Z.X.4 > 1 9 ~ c 6 = 2 6 0 R h t l D 3XAXZXFXFXFXFXFXFXFXFXFX",
"FXFXFXFXZXcXyXrXyXpXyXV.j.:.6.p.G.P.U.q.( ~ y = 5 k } l > 3 4 L 2.Z.D.I > 4 F 8 x V.{.5 @ y i / l : 1 q 3XZXFXFXFXFXFXFXFXFXFXFX",
"FXFXFXFXZXaX$.O.C.'.rX&X| } 6.P.p.P.E.1.U H u a t t l.tX' 9 I Y 3.K.L. .Z W _ - - m.}.{ 6 8 G | j.0 , > iXZXFXFXFXFXFXFXFXFXFXFX",
"FXFXFXFXZXaXY Y y.!.^.%X,./ w.s.P.P.P.X.( U F 9 t $ k tXn...3.2.5.+X).5.J  .X.( H ` ( u u R ~ ] m.! & x mXZXFXFXFXFXFXFXFXFXFXFX",
"FXFXFXFXZXcX&.S $.+X-XE.9.^ f.P.W.Q.s.8.1.L ) +.' / >.7. ...X.3.).#X#XK.I L ) I P F Z F E ] -.+.w.i @ 6XZXFXFXFXFXFXFXFXFXFXFXFX",
"FXFXFXFXZXCXV.S  .L.F.e.b.v.f.^.XX!.U.t.2.2.t.@. .P P W I I e.P.$X;X>X!...J L P  .) ) +.+.&.6.] _ 4 , fXZXFXFXFXFXFXFXFXFXFXFXFX",
"FXFXFXFXFXZX9X4 K Y K  .'.B.q.E.E.!.P.P.P.y.d.y.e.#.O.O. .5.E.OX$X;X>X).1.I ) X.X.2.2.#.e.e.1.] R , 1 kXZXFXFXFXFXFXFXFXFXFXFXFX",
"FXFXFXFXFXZXMX;.4 F Y t.oX.XM.a.t.P.P.P.E.!.U.E.G.e.#.@.t.W.!.).+X>X,X_.i.[ o.e.u.r.$.4.3.e.+._ l , l nXZXFXFXFXFXFXFXFXFXFXFXFX",
"FXFXFXFXFXFXZXhX<.p  .p.XXoXM.6.e.i.p.p.W.!.!.E.P.P.G.E.(.`._.@X@X>X>X=XP.+. .u.G.J.r.#.@.+.) R 8 , { NXZXFXFXFXFXFXFXFXFXFXFXFX",
"FXFXFXFXFXFXFXZXkXl.) a.Q.B.M.9.9.e.t.J.G.I.P.R.G.^.`.].[.=X#X^.@X:XrX,X/.7.) r.H.G.J.a.&.` ~ l 6 1 x.AXZXFXFXFXFXFXFXFXFXFXFXFX",
"FXFXFXFXFXFXFXFXAXuX>.i.N.i.9.9.9.7.e.e.p.y.u.p.E.=X=X].[.[.^.].$X-X;X;X_.p.] @.J.J.u.*.o.L G 0 1 < <XAXZXFXFXFXFXFXFXFXFXFXFXFX",
"FXFXFXFXFXFXFXFXZXkXm.M.|.B.i.6.6.7.7.+.@.@.@.e.u./.].=X[.]./.].-X:XrXrX].b.E P J.J.*.O.W E i 7 > = <XZXFXFXFXFXFXFXFXFXFXFXFXFX",
"FXFXFXFXFXFXFXFXZXBX}.n.n.B.M.{ | %.9.7.&.@.O.O.e.R.^.[.`.W.R.a.L ] B.:XR.Q , Z *.u.e.O.` E 0 # * z.jXZXFXFXFXFXFXFXFXFXFXFXFXFX",
"FXFXFXFXFXFXFXFXZXbXV.j.,.,.:.d k W &.9.&.e.*.a.u.p./.].(.(.].b.` Q Q %.Q 0 < E &.e.*.&.` R < *  XMXZXZXFXFXFXFXFXFXFXFXFXFXFXFX",
"FXFXFXFXFXFXFXFXFXCX6Xc c k h 2XM l ] 9.7.e.a.R.E.N./.(.R.[.=X%X'.C.%.G 1 0 9 ` o.%.*.+.R 0 & b vXZXFXFXFXFXFXFXFXFXFXFXFXFXFXFX",
"FXFXFXFXFXFXFXFXFXZXkXB h t h.xX1Xj _ 9.e.e.a.p.E.E.^.R.'.%X%X~.'.B.9.%.` Q Q `  .` ` ] H 2 & 5XZXFXFXFXFXFXFXFXFXFXFXFXFXFXFXFX",
"FXFXFXFXFXFXFXFXFXFXZXzXiXqXhXZXsXj T %.7.e.p.p.E.~.~.N.~.B.~.~.~.E.9.%.9.%.%.` ` E I ` u < h fXZXFXFXFXFXFXFXFXFXFXFXFXFXFXFXFX",
"FXFXFXFXFXFXFXFXFXFXFXZXZXZXZXZXxXM k ` 7.e.a.E.~.^.R.M.E.b.b.b.b.b.o.` 9.%.` _ G 9 J +.u < <XCXZXFXFXFXFXFXFXFXFXFXFXFXFXFXFXFX",
"FXFXFXFXFXFXFXFXFXFXFXFXFXFXFXFXAX2X7 R +.8.i.N.~.~.p.i.9.%.6.*.*.a.*.9.&.W Z 6 & , W +.y t dXZXFXFXFXFXFXFXFXFXFXFXFXFXFXFXFXFX",
"FXFXFXFXFXFXFXFXFXFXFXFXFXFXFXFXZXdXh 0 ~ 9.t.s.W.E.5.[ u T Q Q A A A A Z Z 4 8 u R +.` 2 k kXZXFXFXFXFXFXFXFXFXFXFXFXFXFXFXFXFX",
"FXFXFXFXFXFXFXFXFXFXFXFXFXFXFXFXZXmXc.0 9 ) 8.i.E.E.5.) [ 8.9.u.R.u.&.=.=.&.o.( Q E +.H & n NXZXFXFXFXFXFXFXFXFXFXFXFXFXFXFXFXFX",
"FXFXFXFXFXFXFXFXFXFXFXFXFXFXFXFXFXZX7Xu H J ] 7.i.D.5.3.s.y.t.p.b.*.=.W =.Q K K L ) ) 1 * eXZXFXFXFXFXFXFXFXFXFXFXFXFXFXFXFXFXFX",
"FXFXFXFXFXFXFXFXFXFXFXFXFXFXFXFXFXZXgXx G L E [ 1.3.$.t.G.e.@. .Q A Q K Q Z K W ) L u % z vXZXFXFXFXFXFXFXFXFXFXFXFXFXFXFXFXFXFX",
"FXFXFXFXFXFXFXFXFXFXFXFXFXFXFXFXFXFXAX<X8 L L ~ ] 1.#.S.D.r.3.+.E ) ` o.+...#.O.L u = + 5XZXFXFXFXFXFXFXFXFXFXFXFXFXFXFXFXFXFXFX",
"FXFXFXFXFXFXFXFXFXFXFXFXFXFXFXFXFXFXZXjXk 9 U L ~ ' 8.4.y.D.G.S.G.E.a.u.e.3.@. .G & . v bXZXFXFXFXFXFXFXFXFXFXFXFXFXFXFXFXFXFXFX",
"FXFXFXFXFXFXFXFXFXFXFXFXFXFXFXFXFXFXZXAX4X7 u L J H ! 1.5.5.p.H.G.t.*.&.X...) G = . d fXZXFXFXFXFXFXFXFXFXFXFXFXFXFXFXFXFXFXFXFX",
"FXFXFXFXFXFXFXFXFXFXFXFXFXFXFXFXFXFXFXZXBXx.1 F J i t i ] e.t.*.@. .) ( ) E 9 < $ z fXZXFXFXFXFXFXFXFXFXFXFXFXFXFXFXFXFXFXFXFXFX",
"FXFXFXFXFXFXFXFXFXFXFXFXFXFXFXFXFXFXFXFXZXvX;.3 y u y 6 0 R Q W Q F 9 i 0 7 & $ B kXZXFXFXFXFXFXFXFXFXFXFXFXFXFXFXFXFXFXFXFXFXFX",
"FXFXFXFXFXFXFXFXFXFXFXFXFXFXFXFXFXFXFXFXFXZXfXc & 3 2 2 - % * * # $ $ $ $ o . b vXZXFXFXFXFXFXFXFXFXFXFXFXFXFXFXFXFXFXFXFXFXFXFX",
"FXFXFXFXFXFXFXFXFXFXFXFXFXFXFXFXFXFXFXFXFXFXZXfXg.< & & * + .         X X   O qXZXFXFXFXFXFXFXFXFXFXFXFXFXFXFXFXFXFXFXFXFXFXFXFX",
"FXFXFXFXFXFXFXFXFXFXFXFXFXFXFXFXFXFXFXFXFXFXFXZXNXiX6Xx.x.c.h w * ; s g m z.0XVXZXFXFXFXFXFXFXFXFXFXFXFXFXFXFXFXFXFXFXFXFXFXFXFX",
"FXFXFXFXFXFXFXFXFXFXFXFXFXFXFXFXFXFXFXFXFXFXFXFXZXZXZXAXAXAXNXNXMXmXmXCXCXZXZXZXFXFXFXFXFXFXFXFXFXFXFXFXFXFXFXFXFXFXFXFXFXFXFXFX",
"FXFXFXFXFXFXFXFXFXFXFXFXFXFXFXFXFXFXFXFXFXFXFXFXFXFXFXFXFXFXFXFXFXFXFXFXFXFXFXFXFXFXFXFXFXFXFXFXFXFXFXFXFXFXFXFXFXFXFXFXFXFXFXFX",
"FXFXFXFXFXFXFXFXFXFXFXFXFXFXFXFXFXFXFXFXFXFXFXFXFXFXFXFXFXFXFXFXFXFXFXFXFXFXFXFXFXFXFXFXFXFXFXFXFXFXFXFXFXFXFXFXFXFXFXFXFXFXFXFX",
"FXFXFXFXFXFXFXFXFXFXFXFXFXFXFXFXFXFXFXFXFXFXFXFXFXFXFXFXFXFXFXFXFXFXFXFXFXFXFXFXFXFXFXFXFXFXFXFXFXFXFXFXFXFXFXFXFXFXFXFXFXFXFXFX"
};
